Fira Sans-SemiLight Italic.ufo
<glyph name="parenleft" format="1">
  <advance width="324"/>
  <unicode hex="0028"/>
  <outline>
    <contour>
      <point x="157" y="641"/>
      <point x="69" y="489"/>
      <point x="69" y="234" type="curve" smooth="yes"/>
      <point x="69" y="78"/>
      <point x="121" y="-20"/>
      <point x="184" y="-130" type="curve"/>
      <point x="206" y="-120" type="line"/>
      <point x="148" y="-13"/>
      <point x="99" y="85"/>
      <point x="99" y="234" type="curve" smooth="yes"/>
      <point x="99" y="480"/>
      <point x="183" y="630"/>
      <point x="337" y="818" type="curve"/>
      <point x="318" y="832" type="line"/>
    </contour>
  </outline>
</glyph>
<glyph name="parenright" format="1">
  <advance width="324"/>
  <unicode hex="0029"/>
  <outline>
    <contour>
      <point x="144" y="820" type="line"/>
      <point x="201" y="715"/>
      <point x="250" y="616"/>
      <point x="250" y="467" type="curve" smooth="yes"/>
      <point x="250" y="220"/>
      <point x="166" y="71"/>
      <point x="12" y="-118" type="curve"/>
      <point x="31" y="-132" type="line"/>
      <point x="193" y="59"/>
      <point x="280" y="212"/>
      <point x="280" y="467" type="curve" smooth="yes"/>
      <point x="280" y="623"/>
      <point x="227" y="721"/>
      <point x="165" y="830" type="curve"/>
    </contour>
  </outline>
</glyph>
<glyph name="period" format="1">
  <advance width="180"/>
  <unicode hex="002E"/>
  <outline>
    <contour>
      <point x="73" y="-10"/>
      <point x="86" y="3"/>
      <point x="86" y="21" type="curve" smooth="yes"/>
      <point x="86" y="37"/>
      <point x="76" y="49"/>
      <point x="58" y="49" type="curve" smooth="yes"/>
      <point x="40" y="49"/>
      <point x="26" y="36"/>
      <point x="26" y="17" type="curve" smooth="yes"/>
      <point x="26" y="2"/>
      <point x="37" y="-10"/>
      <point x="54" y="-10" type="curve" smooth="yes"/>
    </contour>
  </outline>
</glyph>
<glyph name="zero" format="1">
  <advance width="543"/>
  <unicode hex="0030"/>
  <outline>
    <contour>
      <point x="431" y="674"/>
      <point x="487" y="598"/>
      <point x="487" y="445" type="curve" smooth="yes"/>
      <point x="487" y="253"/>
      <point x="415" y="-10"/>
      <point x="234" y="-10" type="curve" smooth="yes"/>
      <point x="133" y="-10"/>
      <point x="76" y="67"/>
      <point x="76" y="219" type="curve" smooth="yes"/>
      <point x="76" y="407"/>
      <point x="148" y="674"/>
      <point x="330" y="674" type="curve" smooth="yes"/>
    </contour>
    <contour>
      <point x="174" y="646"/>
      <point x="107" y="403"/>
      <point x="107" y="217" type="curve" smooth="yes"/>
      <point x="107" y="82"/>
      <point x="152" y="18"/>
      <point x="234" y="18" type="curve" smooth="yes"/>
      <point x="390" y="18"/>
      <point x="456" y="260"/>
      <point x="456" y="448" type="curve" smooth="yes"/>
      <point x="456" y="582"/>
      <point x="412" y="646"/>
      <point x="330" y="646" type="curve" smooth="yes"/>
    </contour>
  </outline>
</glyph>
<glyph name="six" format="1">
  <advance width="517"/>
  <unicode hex="0036"/>
  <outline>
    <contour>
      <point x="175" y="674"/>
      <point x="73" y="418"/>
      <point x="73" y="204" type="curve" smooth="yes"/>
      <point x="73" y="82"/>
      <point x="118" y="-10"/>
      <point x="240" y="-10" type="curve" smooth="yes"/>
      <point x="396" y="-10"/>
      <point x="457" y="157"/>
      <point x="457" y="266" type="curve" smooth="yes"/>
      <point x="457" y="375"/>
      <point x="391" y="428"/>
      <point x="307" y="428" type="curve" smooth="yes"/>
      <point x="223" y="428"/>
      <point x="155" y="382"/>
      <point x="108" y="312" type="curve"/>
      <point x="102" y="264" type="line"/>
      <point x="158" y="347"/>
      <point x="225" y="401"/>
      <point x="306" y="401" type="curve" smooth="yes"/>
      <point x="375" y="401"/>
      <point x="426" y="357"/>
      <point x="426" y="265" type="curve" smooth="yes"/>
      <point x="426" y="179"/>
      <point x="379" y="18"/>
      <point x="240" y="18" type="curve" smooth="yes"/>
      <point x="141" y="18"/>
      <point x="104" y="91"/>
      <point x="104" y="201" type="curve" smooth="yes"/>
      <point x="104" y="229"/>
      <point x="106" y="259"/>
      <point x="109" y="291" type="curve"/>
      <point x="110" y="306" type="line"/>
      <point x="141" y="499"/>
      <point x="233" y="647"/>
      <point x="360" y="647" type="curve" smooth="yes"/>
      <point x="398" y="647"/>
      <point x="425" y="635"/>
      <point x="452" y="614" type="curve"/>
      <point x="470" y="636" type="line"/>
      <point x="440" y="659"/>
      <point x="410" y="674"/>
      <point x="361" y="674" type="curve"/>
    </contour>
  </outline>
</glyph>
<glyph name="at" format="1">
  <advance width="1020"/>
  <unicode hex="0040"/>
  <outline>
    <contour>
      <point x="220" y="692"/>
      <point x="88" y="389"/>
      <point x="88" y="174" type="curve" smooth="yes"/>
      <point x="88" y="-56"/>
      <point x="248" y="-199"/>
      <point x="470" y="-199" type="curve" smooth="yes"/>
      <point x="557" y="-199"/>
      <point x="612" y="-184"/>
      <point x="669" y="-165" type="curve"/>
      <point x="663" y="-138" type="line"/>
      <point x="605" y="-159"/>
      <point x="548" y="-171"/>
      <point x="471" y="-171" type="curve" smooth="yes"/>
      <point x="263" y="-171"/>
      <point x="118" y="-39"/>
      <point x="118" y="175" type="curve" smooth="yes"/>
      <point x="118" y="377"/>
      <point x="244" y="664"/>
      <point x="574" y="664" type="curve" smooth="yes"/>
      <point x="787" y="664"/>
      <point x="902" y="535"/>
      <point x="902" y="357" type="curve" smooth="yes"/>
      <point x="902" y="220"/>
      <point x="851" y="41"/>
      <point x="721" y="41" type="curve" smooth="yes"/>
      <point x="644" y="41"/>
      <point x="641" y="121"/>
      <point x="649" y="186" type="curve" smooth="yes"/>
      <point x="684" y="444" type="line"/>
      <point x="649" y="462"/>
      <point x="604" y="478"/>
      <point x="552" y="478" type="curve" smooth="yes"/>
      <point x="380" y="478"/>
      <point x="314" y="305"/>
      <point x="314" y="185" type="curve" smooth="yes"/>
      <point x="314" y="73"/>
      <point x="376" y="17"/>
      <point x="454" y="17" type="curve" smooth="yes"/>
      <point x="523" y="17"/>
      <point x="577" y="56"/>
      <point x="619" y="129" type="curve"/>
      <point x="622" y="59"/>
      <point x="660" y="15"/>
      <point x="722" y="15" type="curve" smooth="yes"/>
      <point x="871" y="15"/>
      <point x="933" y="200"/>
      <point x="933" y="358" type="curve" smooth="yes"/>
      <point x="933" y="546"/>
      <point x="811" y="692"/>
      <point x="574" y="692" type="curve" smooth="yes"/>
    </contour>
    <contour>
      <point x="390" y="45"/>
      <point x="345" y="90"/>
      <point x="345" y="181" type="curve" smooth="yes"/>
      <point x="345" y="283"/>
      <point x="396" y="450"/>
      <point x="553" y="450" type="curve" smooth="yes"/>
      <point x="592" y="450"/>
      <point x="621" y="441"/>
      <point x="653" y="425" type="curve"/>
      <point x="616" y="170" type="line"/>
      <point x="587" y="103"/>
      <point x="526" y="45"/>
      <point x="456" y="45" type="curve" smooth="yes"/>
    </contour>
  </outline>
</glyph>
<glyph name="a" format="1">
  <advance width="552"/>
  <unicode hex="0061"/>
  <outline>
    <contour>
      <point x="134" y="530"/>
      <point x="65" y="332"/>
      <point x="65" y="193" type="curve" smooth="yes"/>
      <point x="65" y="65"/>
      <point x="126" y="-10"/>
      <point x="227" y="-10" type="curve" smooth="yes"/>
      <point x="297" y="-10"/>
      <point x="354" y="31"/>
      <point x="392" y="90" type="curve"/>
      <point x="383" y="25"/>
      <point x="407" y="3"/>
      <point x="443" y="-10" type="curve"/>
      <point x="452" y="13" type="line"/>
      <point x="416" y="28"/>
      <point x="415" y="57"/>
      <point x="422" y="109" type="curve" smooth="yes"/>
      <point x="477" y="488" type="line"/>
      <point x="436" y="511"/>
      <point x="393" y="530"/>
      <point x="324" y="530" type="curve" smooth="yes"/>
    </contour>
    <contour>
      <point x="375" y="504"/>
      <point x="414" y="492"/>
      <point x="445" y="474" type="curve"/>
      <point x="397" y="140" type="line"/>
      <point x="351" y="61"/>
      <point x="298" y="18"/>
      <point x="228" y="18" type="curve" smooth="yes"/>
      <point x="144" y="18"/>
      <point x="96" y="81"/>
      <point x="96" y="194" type="curve" smooth="yes"/>
      <point x="96" y="318"/>
      <point x="156" y="504"/>
      <point x="325" y="504" type="curve" smooth="yes"/>
    </contour>
    <contour>
      <point x="452" y="-10" type="move" name="ogonek"/>
    </contour>
    <contour>
      <point x="267" y="0" type="move" name="bottom"/>
    </contour>
    <contour>
      <point x="338" y="520" type="move" name="top"/>
    </contour>
  </outline>
</glyph>
<glyph name="c" format="1">
  <advance width="462"/>
  <unicode hex="0063"/>
  <outline>
    <contour>
      <point x="133" y="530"/>
      <point x="66" y="332"/>
      <point x="66" y="198" type="curve" smooth="yes"/>
      <point x="66" y="63"/>
      <point x="139" y="-10"/>
      <point x="247" y="-10" type="curve" smooth="yes"/>
      <point x="306" y="-10"/>
      <point x="356" y="10"/>
      <point x="398" y="43" type="curve"/>
      <point x="382" y="65" type="line"/>
      <point x="344" y="37"/>
      <point x="301" y="18"/>
      <point x="248" y="18" type="curve" smooth="yes"/>
      <point x="156" y="18"/>
      <point x="97" y="77"/>
      <point x="97" y="198" type="curve" smooth="yes"/>
      <point x="97" y="319"/>
      <point x="154" y="503"/>
      <point x="319" y="503" type="curve" smooth="yes"/>
      <point x="370" y="503"/>
      <point x="405" y="486"/>
      <point x="433" y="460" type="curve"/>
      <point x="452" y="480" type="line"/>
      <point x="417" y="514"/>
      <point x="375" y="530"/>
      <point x="320" y="530" type="curve" smooth="yes"/>
    </contour>
    <contour>
      <point x="324" y="520" type="move" name="top"/>
    </contour>
    <contour>
      <point x="246" y="0" type="move" name="bottom"/>
    </contour>
  </outline>
</glyph>
<glyph name="d" format="1">
  <advance width="570"/>
  <unicode hex="0064"/>
  <outline>
    <contour>
      <point x="452" y="453" type="line"/>
      <point x="430" y="490"/>
      <point x="389" y="530"/>
      <point x="310" y="530" type="curve" smooth="yes"/>
      <point x="127" y="530"/>
      <point x="65" y="329"/>
      <point x="65" y="193" type="curve" smooth="yes"/>
      <point x="65" y="65"/>
      <point x="126" y="-10"/>
      <point x="221" y="-10" type="curve" smooth="yes"/>
      <point x="312" y="-10"/>
      <point x="369" y="56"/>
      <point x="406" y="122" type="curve"/>
      <point x="393" y="0" type="line"/>
      <point x="418" y="0" type="line"/>
      <point x="522" y="734" type="line"/>
      <point x="492" y="739" type="line"/>
    </contour>
    <contour>
      <point x="384" y="503"/>
      <point x="423" y="462"/>
      <point x="447" y="415" type="curve"/>
      <point x="414" y="179" type="line"/>
      <point x="362" y="86"/>
      <point x="309" y="18"/>
      <point x="222" y="18" type="curve" smooth="yes"/>
      <point x="144" y="18"/>
      <point x="96" y="81"/>
      <point x="96" y="194" type="curve" smooth="yes"/>
      <point x="96" y="321"/>
      <point x="152" y="503"/>
      <point x="311" y="503" type="curve" smooth="yes"/>
    </contour>
    <contour>
      <point x="254" y="0" type="move" name="bottom"/>
    </contour>
    <contour>
      <point x="339" y="734" type="move" name="top"/>
    </contour>
    <contour>
      <point x="552" y="734" type="move" name="topright"/>
    </contour>
    <contour>
      <point x="288" y="260" type="move" name="center"/>
    </contour>
  </outline>
</glyph>
<glyph name="e" format="1">
  <advance width="510"/>
  <unicode hex="0065"/>
  <outline>
    <contour>
      <point x="147" y="530"/>
      <point x="65" y="344"/>
      <point x="65" y="197" type="curve" smooth="yes"/>
      <point x="65" y="62"/>
      <point x="133" y="-10"/>
      <point x="246" y="-10" type="curve" smooth="yes"/>
      <point x="312" y="-10"/>
      <point x="363" y="12"/>
      <point x="415" y="51" type="curve"/>
      <point x="399" y="73" type="line"/>
      <point x="349" y="38"/>
      <point x="308" y="18"/>
      <point x="246" y="18" type="curve" smooth="yes"/>
      <point x="157" y="18"/>
      <point x="96" y="73"/>
      <point x="96" y="198" type="curve" smooth="yes"/>
      <point x="96" y="330"/>
      <point x="166" y="503"/>
      <point x="329" y="503" type="curve" smooth="yes"/>
      <point x="405" y="503"/>
      <point x="443" y="464"/>
      <point x="443" y="409" type="curve" smooth="yes"/>
      <point x="443" y="308"/>
      <point x="325" y="253"/>
      <point x="92" y="239" type="curve"/>
      <point x="89" y="213" type="line"/>
      <point x="330" y="226"/>
      <point x="474" y="286"/>
      <point x="474" y="410" type="curve" smooth="yes"/>
      <point x="474" y="482"/>
      <point x="418" y="530"/>
      <point x="329" y="530" type="curve" smooth="yes"/>
    </contour>
    <contour>
      <point x="341" y="5" type="move" name="ogonek"/>
    </contour>
    <contour>
      <point x="241" y="0" type="move" name="bottom"/>
    </contour>
    <contour>
      <point x="311" y="520" type="move" name="top"/>
    </contour>
  </outline>
</glyph>
<glyph name="g" format="1">
  <advance width="557"/>
  <unicode hex="0067"/>
  <outline>
    <contour>
      <point x="135" y="530"/>
      <point x="65" y="332"/>
      <point x="66" y="202" type="curve" smooth="yes"/>
      <point x="67" y="78"/>
      <point x="128" y="0"/>
      <point x="229" y="0" type="curve" smooth="yes"/>
      <point x="299" y="0"/>
      <point x="356" y="40"/>
      <point x="394" y="99" type="curve"/>
      <point x="379" y="-6" type="line" smooth="yes"/>
      <point x="362" y="-128"/>
      <point x="291" y="-173"/>
      <point x="210" y="-173" type="curve" smooth="yes"/>
      <point x="145" y="-173"/>
      <point x="100" y="-153"/>
      <point x="56" y="-130" type="curve"/>
      <point x="43" y="-152" type="line"/>
      <point x="86" y="-176"/>
      <point x="141" y="-199"/>
      <point x="209" y="-199" type="curve" smooth="yes"/>
      <point x="305" y="-199"/>
      <point x="388" y="-150"/>
      <point x="409" y="-2" type="curve" smooth="yes"/>
      <point x="479" y="488" type="line"/>
      <point x="438" y="511"/>
      <point x="397" y="530"/>
      <point x="325" y="530" type="curve" smooth="yes"/>
    </contour>
    <contour>
      <point x="376" y="504"/>
      <point x="416" y="492"/>
      <point x="447" y="474" type="curve"/>
      <point x="401" y="147" type="line"/>
      <point x="355" y="70"/>
      <point x="300" y="28"/>
      <point x="230" y="28" type="curve" smooth="yes"/>
      <point x="146" y="28"/>
      <point x="98" y="94"/>
      <point x="97" y="203" type="curve" smooth="yes"/>
      <point x="96" y="320"/>
      <point x="157" y="504"/>
      <point x="326" y="504" type="curve" smooth="yes"/>
    </contour>
    <contour>
      <point x="316" y="520" type="move" name="top"/>
    </contour>
    <contour>
      <point x="209" y="-193" type="move" name="bottom"/>
    </contour>
  </outline>
</glyph>
<glyph name="o" format="1">
  <advance width="562"/>
  <unicode hex="006F"/>
  <outline>
    <contour>
      <point x="437" y="-10"/>
      <point x="497" y="196"/>
      <point x="497" y="327" type="curve" smooth="yes"/>
      <point x="497" y="459"/>
      <point x="430" y="530"/>
      <point x="318" y="530" type="curve" smooth="yes"/>
      <point x="129" y="530"/>
      <point x="66" y="331"/>
      <point x="66" y="197" type="curve" smooth="yes"/>
      <point x="66" y="66"/>
      <point x="132" y="-10"/>
      <point x="245" y="-10" type="curve" smooth="yes"/>
    </contour>
    <contour>
      <point x="151" y="18"/>
      <point x="97" y="81"/>
      <point x="97" y="196" type="curve" smooth="yes"/>
      <point x="97" y="312"/>
      <point x="148" y="503"/>
      <point x="318" y="503" type="curve" smooth="yes"/>
      <point x="413" y="503"/>
      <point x="466" y="441"/>
      <point x="466" y="326" type="curve" smooth="yes"/>
      <point x="466" y="204"/>
      <point x="412" y="18"/>
      <point x="245" y="18" type="curve" smooth="yes"/>
    </contour>
    <contour>
      <point x="322" y="0" type="move" name="ogonek"/>
    </contour>
    <contour>
      <point x="319" y="520" type="move" name="top"/>
    </contour>
    <contour>
      <point x="493" y="520" type="move" name="topright"/>
    </contour>
    <contour>
      <point x="245" y="0" type="move" name="bottom"/>
    </contour>
  </outline>
</glyph>
<glyph name="q" format="1">
  <advance width="559"/>
  <unicode hex="0071"/>
  <outline>
    <contour>
      <point x="384" y="-195" type="line"/>
      <point x="481" y="488" type="line"/>
      <point x="440" y="511"/>
      <point x="396" y="530"/>
      <point x="324" y="530" type="curve" smooth="yes"/>
      <point x="134" y="530"/>
      <point x="65" y="332"/>
      <point x="65" y="193" type="curve" smooth="yes"/>
      <point x="65" y="65"/>
      <point x="126" y="-10"/>
      <point x="227" y="-10" type="curve" smooth="yes"/>
      <point x="297" y="-10"/>
      <point x="356" y="31"/>
      <point x="394" y="89" type="curve"/>
      <point x="354" y="-199" type="line"/>
    </contour>
    <contour>
      <point x="144" y="18"/>
      <point x="96" y="81"/>
      <point x="96" y="194" type="curve" smooth="yes"/>
      <point x="96" y="318"/>
      <point x="156" y="504"/>
      <point x="325" y="504" type="curve" smooth="yes"/>
      <point x="375" y="504"/>
      <point x="418" y="492"/>
      <point x="449" y="474" type="curve"/>
      <point x="401" y="140" type="line"/>
      <point x="355" y="61"/>
      <point x="298" y="18"/>
      <point x="228" y="18" type="curve" smooth="yes"/>
    </contour>
    <contour>
      <point x="323" y="520" type="move" name="top"/>
    </contour>
    <contour>
      <point x="206" y="-193" type="move" name="bottom"/>
    </contour>
  </outline>
</glyph>
<glyph name="section" format="1">
  <advance width="532"/>
  <unicode hex="00A7"/>
  <outline>
    <contour>
      <point x="216" y="673"/>
      <point x="161" y="611"/>
      <point x="161" y="543" type="curve" smooth="yes"/>
      <point x="161" y="480"/>
      <point x="190" y="448"/>
      <point x="303" y="407" type="curve" smooth="yes"/>
      <point x="391" y="375"/>
      <point x="411" y="340"/>
      <point x="411" y="298" type="curve" smooth="yes"/>
      <point x="411" y="253"/>
      <point x="396" y="212"/>
      <point x="309" y="165" type="curve"/>
      <point x="327" y="150" type="line"/>
      <point x="413" y="196"/>
      <point x="442" y="237"/>
      <point x="442" y="298" type="curve" smooth="yes"/>
      <point x="442" y="361"/>
      <point x="406" y="397"/>
      <point x="311" y="432" type="curve" smooth="yes"/>
      <point x="216" y="467"/>
      <point x="192" y="492"/>
      <point x="192" y="542" type="curve" smooth="yes"/>
      <point x="192" y="594"/>
      <point x="226" y="646"/>
      <point x="326" y="646" type="curve" smooth="yes"/>
      <point x="379" y="646"/>
      <point x="416" y="632"/>
      <point x="456" y="606" type="curve"/>
      <point x="472" y="628" type="line"/>
      <point x="432" y="654"/>
      <point x="390" y="673"/>
      <point x="326" y="673" type="curve" smooth="yes"/>
    </contour>
    <contour>
      <point x="138" y="414"/>
      <point x="102" y="372"/>
      <point x="102" y="311" type="curve" smooth="yes"/>
      <point x="102" y="245"/>
      <point x="144" y="214"/>
      <point x="243" y="176" type="curve" smooth="yes"/>
      <point x="329" y="143"/>
      <point x="356" y="115"/>
      <point x="356" y="69" type="curve" smooth="yes"/>
      <point x="356" y="17"/>
      <point x="324" y="-38"/>
      <point x="212" y="-38" type="curve" smooth="yes"/>
      <point x="159" y="-38"/>
      <point x="113" y="-25"/>
      <point x="75" y="2" type="curve"/>
      <point x="58" y="-21" type="line"/>
      <point x="101" y="-49"/>
      <point x="147" y="-66"/>
      <point x="212" y="-66" type="curve" smooth="yes"/>
      <point x="336" y="-66"/>
      <point x="387" y="2"/>
      <point x="387" y="69" type="curve" smooth="yes"/>
      <point x="387" y="132"/>
      <point x="347" y="165"/>
      <point x="254" y="200" type="curve" smooth="yes"/>
      <point x="161" y="235"/>
      <point x="133" y="263"/>
      <point x="133" y="311" type="curve" smooth="yes"/>
      <point x="133" y="366"/>
      <point x="163" y="402"/>
      <point x="236" y="444" type="curve"/>
      <point x="218" y="459" type="line"/>
    </contour>
  </outline>
</glyph>
<glyph name="copyright" format="1">
  <advance width="810"/>
  <unicode hex="00A9"/>
  <outline>
    <contour>
      <point x="268" y="726"/>
      <point x="147" y="605"/>
      <point x="147" y="435" type="curve" smooth="yes"/>
      <point x="147" y="263"/>
      <point x="268" y="144"/>
      <point x="430" y="144" type="curve"/>
      <point x="592" y="144"/>
      <point x="713" y="265"/>
      <point x="713" y="435" type="curve" smooth="yes"/>
      <point x="713" y="607"/>
      <point x="592" y="726"/>
      <point x="430" y="726" type="curve"/>
    </contour>
    <contour>
      <point x="369" y="608"/>
      <point x="295" y="557"/>
      <point x="295" y="437" type="curve" smooth="yes"/>
      <point x="295" y="331"/>
      <point x="351" y="262"/>
      <point x="431" y="262" type="curve" smooth="yes"/>
      <point x="474" y="262"/>
      <point x="506" y="278"/>
      <point x="529" y="296" type="curve"/>
      <point x="515" y="318" type="line"/>
      <point x="494" y="303"/>
      <point x="471" y="290"/>
      <point x="432" y="290" type="curve" smooth="yes"/>
      <point x="372" y="290"/>
      <point x="326" y="337"/>
      <point x="326" y="437" type="curve" smooth="yes"/>
      <point x="326" y="549"/>
      <point x="388" y="580"/>
      <point x="431" y="580" type="curve" smooth="yes"/>
      <point x="465" y="580"/>
      <point x="484" y="572"/>
      <point x="505" y="557" type="curve"/>
      <point x="520" y="578" type="line"/>
      <point x="495" y="597"/>
      <point x="469" y="608"/>
      <point x="431" y="608" type="curve" smooth="yes"/>
    </contour>
    <contour>
      <point x="576" y="698"/>
      <point x="682" y="593"/>
      <point x="682" y="435" type="curve" smooth="yes"/>
      <point x="682" y="280"/>
      <point x="576" y="172"/>
      <point x="431" y="172" type="curve"/>
      <point x="284" y="172"/>
      <point x="178" y="277"/>
      <point x="178" y="435" type="curve" smooth="yes"/>
      <point x="178" y="590"/>
      <point x="284" y="698"/>
      <point x="431" y="698" type="curve"/>
    </contour>
  </outline>
</glyph>
<glyph name="degree" format="1">
  <advance width="519"/>
  <unicode hex="00B0"/>
  <outline>
    <contour>
      <point x="317" y="407"/>
      <point x="396" y="471"/>
      <point x="396" y="571" type="curve" smooth="yes"/>
      <point x="396" y="650"/>
      <point x="343" y="692"/>
      <point x="274" y="692" type="curve"/>
      <point x="198" y="692"/>
      <point x="119" y="628"/>
      <point x="119" y="528" type="curve" smooth="yes"/>
      <point x="119" y="449"/>
      <point x="172" y="407"/>
      <point x="241" y="407" type="curve"/>
    </contour>
    <contour>
      <point x="184" y="435"/>
      <point x="150" y="470"/>
      <point x="150" y="528" type="curve" smooth="yes"/>
      <point x="150" y="612"/>
      <point x="207" y="664"/>
      <point x="274" y="664" type="curve"/>
      <point x="331" y="664"/>
      <point x="365" y="629"/>
      <point x="365" y="571" type="curve" smooth="yes"/>
      <point x="365" y="487"/>
      <point x="308" y="435"/>
      <point x="241" y="435" type="curve"/>
    </contour>
  </outline>
</glyph>
<glyph name="ordmasculine" format="1">
  <advance width="500"/>
  <unicode hex="00BA"/>
  <outline>
    <contour>
      <point x="181" y="682"/>
      <point x="107" y="569"/>
      <point x="107" y="435" type="curve" smooth="yes"/>
      <point x="107" y="335"/>
      <point x="160" y="276"/>
      <point x="253" y="276" type="curve" smooth="yes"/>
      <point x="381" y="276"/>
      <point x="455" y="390"/>
      <point x="455" y="525" type="curve" smooth="yes"/>
      <point x="455" y="628"/>
      <point x="400" y="682"/>
      <point x="307" y="682" type="curve" smooth="yes"/>
    </contour>
    <contour>
      <point x="383" y="654"/>
      <point x="424" y="611"/>
      <point x="424" y="527" type="curve" smooth="yes"/>
      <point x="424" y="411"/>
      <point x="369" y="304"/>
      <point x="254" y="304" type="curve" smooth="yes"/>
      <point x="180" y="304"/>
      <point x="138" y="350"/>
      <point x="138" y="435" type="curve" smooth="yes"/>
      <point x="138" y="550"/>
      <point x="194" y="654"/>
      <point x="308" y="654" type="curve" smooth="yes"/>
    </contour>
    <component base="minus" xOffset="-39" yOffset="-316"/>
  </outline>
</glyph>
<glyph name="ae" format="1">
  <advance width="819"/>
  <unicode hex="00E6"/>
  <outline>
    <contour>
      <point x="233" y="530"/>
      <point x="184" y="517"/>
      <point x="129" y="496" type="curve"/>
      <point x="138" y="471" type="line"/>
      <point x="190" y="491"/>
      <point x="237" y="503"/>
      <point x="284" y="503" type="curve" smooth="yes"/>
      <point x="366" y="503"/>
      <point x="411" y="453"/>
      <point x="414" y="381" type="curve"/>
      <point x="408" y="369"/>
      <point x="397" y="339"/>
      <point x="387" y="300" type="curve"/>
      <point x="268" y="300" type="line" smooth="yes"/>
      <point x="101" y="300"/>
      <point x="39" y="215"/>
      <point x="39" y="124" type="curve" smooth="yes"/>
      <point x="39" y="41"/>
      <point x="95" y="-10"/>
      <point x="183" y="-10" type="curve" smooth="yes"/>
      <point x="252" y="-10"/>
      <point x="319" y="17"/>
      <point x="387" y="104" type="curve"/>
      <point x="412" y="29"/>
      <point x="471" y="-10"/>
      <point x="554" y="-10" type="curve" smooth="yes"/>
      <point x="620" y="-10"/>
      <point x="671" y="12"/>
      <point x="723" y="51" type="curve"/>
      <point x="707" y="73" type="line"/>
      <point x="657" y="38"/>
      <point x="616" y="18"/>
      <point x="554" y="18" type="curve" smooth="yes"/>
      <point x="465" y="18"/>
      <point x="404" y="67"/>
      <point x="404" y="213" type="curve"/>
      <point x="641" y="227"/>
      <point x="782" y="288"/>
      <point x="782" y="409" type="curve" smooth="yes"/>
      <point x="782" y="482"/>
      <point x="723" y="530"/>
      <point x="634" y="530" type="curve" smooth="yes"/>
      <point x="535" y="530"/>
      <point x="458" y="463"/>
      <point x="436" y="413" type="curve"/>
      <point x="426" y="478"/>
      <point x="381" y="530"/>
      <point x="284" y="530" type="curve" smooth="yes"/>
    </contour>
    <contour>
      <point x="372" y="227"/>
      <point x="371" y="176"/>
      <point x="380" y="134" type="curve"/>
      <point x="316" y="50"/>
      <point x="252" y="18"/>
      <point x="183" y="18" type="curve" smooth="yes"/>
      <point x="115" y="18"/>
      <point x="70" y="54"/>
      <point x="70" y="124" type="curve" smooth="yes"/>
      <point x="70" y="202"/>
      <point x="116" y="274"/>
      <point x="269" y="274" type="curve" smooth="yes"/>
      <point x="380" y="274" type="line"/>
    </contour>
    <contour>
      <point x="710" y="503"/>
      <point x="751" y="464"/>
      <point x="751" y="408" type="curve" smooth="yes"/>
      <point x="751" y="310"/>
      <point x="635" y="254"/>
      <point x="406" y="239" type="curve"/>
      <point x="419" y="363"/>
      <point x="488" y="503"/>
      <point x="634" y="503" type="curve" smooth="yes"/>
    </contour>
    <contour>
      <point x="443" y="520" type="move" name="top"/>
    </contour>
    <contour>
      <point x="373" y="0" type="move" name="bottom"/>
    </contour>
  </outline>
</glyph>
<glyph name="eth" format="1">
  <advance width="556"/>
  <unicode hex="00F0"/>
  <outline>
    <contour>
      <point x="207" y="713" type="line"/>
      <point x="256" y="703"/>
      <point x="308" y="676"/>
      <point x="339" y="652" type="curve"/>
      <point x="430" y="574"/>
      <point x="460" y="477"/>
      <point x="451" y="351" type="curve"/>
      <point x="450" y="341" type="line"/>
      <point x="438" y="176"/>
      <point x="371" y="18"/>
      <point x="234" y="18" type="curve" smooth="yes"/>
      <point x="143" y="18"/>
      <point x="94" y="76"/>
      <point x="94" y="177" type="curve" smooth="yes"/>
      <point x="94" y="298"/>
      <point x="146" y="435"/>
      <point x="290" y="435" type="curve" smooth="yes"/>
      <point x="358" y="435"/>
      <point x="413" y="395"/>
      <point x="455" y="329" type="curve"/>
      <point x="461" y="360" type="line"/>
      <point x="421" y="423"/>
      <point x="365" y="463"/>
      <point x="288" y="463" type="curve" smooth="yes"/>
      <point x="124" y="463"/>
      <point x="63" y="308"/>
      <point x="63" y="177" type="curve" smooth="yes"/>
      <point x="63" y="63"/>
      <point x="121" y="-10"/>
      <point x="234" y="-10" type="curve" smooth="yes"/>
      <point x="409" y="-10"/>
      <point x="482" y="196"/>
      <point x="482" y="391" type="curve" smooth="yes"/>
      <point x="482" y="521"/>
      <point x="437" y="603"/>
      <point x="367" y="664" type="curve"/>
      <point x="321" y="702"/>
      <point x="268" y="728"/>
      <point x="215" y="739" type="curve"/>
    </contour>
    <contour>
      <point x="339" y="670" type="line"/>
      <point x="335" y="666" type="line"/>
      <point x="230" y="571" type="line"/>
      <point x="253" y="562" type="line"/>
      <point x="353" y="649" type="line"/>
      <point x="359" y="655" type="line"/>
      <point x="445" y="733" type="line"/>
      <point x="427" y="750" type="line"/>
    </contour>
    <contour>
      <point x="347" y="734" type="move" name="top"/>
    </contour>
    <contour>
      <point x="234" y="0" type="move" name="bottom"/>
    </contour>
  </outline>
</glyph>
<glyph name="oslash" format="1">
  <advance width="562"/>
  <unicode hex="00F8"/>
  <outline>
    <contour>
      <point x="437" y="-10"/>
      <point x="497" y="196"/>
      <point x="497" y="327" type="curve" smooth="yes"/>
      <point x="497" y="459"/>
      <point x="430" y="530"/>
      <point x="318" y="530" type="curve" smooth="yes"/>
      <point x="129" y="530"/>
      <point x="66" y="331"/>
      <point x="66" y="197" type="curve" smooth="yes"/>
      <point x="66" y="66"/>
      <point x="132" y="-10"/>
      <point x="245" y="-10" type="curve" smooth="yes"/>
    </contour>
    <contour>
      <point x="151" y="18"/>
      <point x="97" y="81"/>
      <point x="97" y="196" type="curve" smooth="yes"/>
      <point x="97" y="312"/>
      <point x="148" y="503"/>
      <point x="318" y="503" type="curve" smooth="yes"/>
      <point x="413" y="503"/>
      <point x="466" y="441"/>
      <point x="466" y="326" type="curve" smooth="yes"/>
      <point x="466" y="204"/>
      <point x="412" y="18"/>
      <point x="245" y="18" type="curve" smooth="yes"/>
    </contour>
    <contour>
      <point x="89" y="-113" type="line"/>
      <point x="114" y="-121" type="line"/>
      <point x="177" y="7" type="line"/>
      <point x="183" y="21" type="line"/>
      <point x="405" y="489" type="line"/>
      <point x="413" y="501" type="line"/>
      <point x="474" y="634" type="line"/>
      <point x="448" y="642" type="line"/>
      <point x="388" y="513" type="line"/>
      <point x="383" y="500" type="line"/>
      <point x="161" y="31" type="line"/>
      <point x="152" y="19" type="line"/>
    </contour>
    <contour>
      <point x="319" y="520" type="move" name="top"/>
    </contour>
    <contour>
      <point x="242" y="0" type="move" name="bottom"/>
    </contour>
  </outline>
</glyph>
<glyph name="dcroat" format="1">
  <advance width="576"/>
  <unicode hex="0111"/>
  <outline>
    <contour>
      <point x="309" y="652" type="line"/>
      <point x="309" y="625" type="line"/>
      <point x="506" y="625" type="line"/>
      <point x="581" y="625" type="line"/>
      <point x="585" y="652" type="line"/>
    </contour>
    <component base="d"/>
  </outline>
</glyph>
<glyph name="Lslash" format="1">
  <advance width="467"/>
  <unicode hex="0141"/>
  <outline>
    <contour>
      <point x="400" y="453" type="line"/>
      <point x="386" y="477" type="line"/>
      <point x="47" y="281" type="line"/>
      <point x="61" y="257" type="line"/>
      <point x="137" y="301" type="line"/>
    </contour>
    <component base="L" xOffset="12"/>
  </outline>
</glyph>
<glyph name="oe" format="1">
  <advance width="902"/>
  <unicode hex="0153"/>
  <outline>
    <contour>
      <point x="129" y="530"/>
      <point x="66" y="331"/>
      <point x="66" y="197" type="curve" smooth="yes"/>
      <point x="66" y="66"/>
      <point x="132" y="-10"/>
      <point x="245" y="-10" type="curve" smooth="yes"/>
      <point x="427" y="-10"/>
      <point x="497" y="196"/>
      <point x="497" y="327" type="curve"/>
      <point x="488" y="468"/>
      <point x="430" y="530"/>
      <point x="318" y="530" type="curve" smooth="yes"/>
    </contour>
    <contour>
      <point x="413" y="503"/>
      <point x="466" y="441"/>
      <point x="466" y="326" type="curve" smooth="yes"/>
      <point x="466" y="204"/>
      <point x="412" y="18"/>
      <point x="245" y="18" type="curve" smooth="yes"/>
      <point x="151" y="18"/>
      <point x="97" y="81"/>
      <point x="97" y="196" type="curve" smooth="yes"/>
      <point x="97" y="312"/>
      <point x="148" y="503"/>
      <point x="318" y="503" type="curve" smooth="yes"/>
    </contour>
    <contour>
      <point x="536" y="530"/>
      <point x="467" y="351"/>
      <point x="457" y="197" type="curve"/>
      <point x="466" y="63"/>
      <point x="525" y="-10"/>
      <point x="638" y="-10" type="curve" smooth="yes"/>
      <point x="704" y="-10"/>
      <point x="755" y="12"/>
      <point x="807" y="51" type="curve"/>
      <point x="791" y="73" type="line"/>
      <point x="741" y="38"/>
      <point x="700" y="18"/>
      <point x="638" y="18" type="curve" smooth="yes"/>
      <point x="549" y="18"/>
      <point x="488" y="73"/>
      <point x="488" y="198" type="curve" smooth="yes"/>
      <point x="488" y="330"/>
      <point x="555" y="503"/>
      <point x="713" y="503" type="curve" smooth="yes"/>
      <point x="794" y="503"/>
      <point x="835" y="464"/>
      <point x="835" y="409" type="curve" smooth="yes"/>
      <point x="835" y="309"/>
      <point x="717" y="253"/>
      <point x="484" y="239" type="curve"/>
      <point x="481" y="213" type="line"/>
      <point x="722" y="226"/>
      <point x="866" y="287"/>
      <point x="866" y="410" type="curve" smooth="yes"/>
      <point x="866" y="482"/>
      <point x="807" y="530"/>
      <point x="713" y="530" type="curve" smooth="yes"/>
    </contour>
    <contour>
      <point x="492" y="520" type="move" name="top"/>
    </contour>
    <contour>
      <point x="452" y="0" type="move" name="bottom"/>
    </contour>
  </outline>
</glyph>
<glyph name="Tbar" format="1">
  <advance width="477"/>
  <unicode hex="0166"/>
  <outline>
    <contour>
      <point x="271" y="382" type="line"/>
      <point x="118" y="382" type="line"/>
      <point x="114" y="354" type="line"/>
      <point x="236" y="354" type="line"/>
      <point x="389" y="354" type="line"/>
      <point x="393" y="382" type="line"/>
    </contour>
    <component base="T"/>
  </outline>
</glyph>
<glyph name="uni0180" format="1">
  <advance width="570"/>
  <unicode hex="0180"/>
  <outline>
    <contour>
      <point x="101" y="652" type="line"/>
      <point x="97" y="625" type="line"/>
      <point x="172" y="625" type="line"/>
      <point x="378" y="625" type="line"/>
      <point x="388" y="652" type="line"/>
    </contour>
    <component base="b" xOffset="4"/>
  </outline>
</glyph>
<glyph name="uni0188" format="1">
  <advance width="462"/>
  <unicode hex="0188"/>
  <outline>
    <contour>
      <point x="306" y="-10"/>
      <point x="356" y="10"/>
      <point x="398" y="43" type="curve"/>
      <point x="382" y="65" type="line"/>
      <point x="344" y="37"/>
      <point x="301" y="18"/>
      <point x="248" y="18" type="curve" smooth="yes"/>
      <point x="156" y="18"/>
      <point x="97" y="77"/>
      <point x="97" y="198" type="curve" smooth="yes"/>
      <point x="97" y="319"/>
      <point x="154" y="503"/>
      <point x="319" y="503" type="curve" smooth="yes"/>
      <point x="370" y="503"/>
      <point x="405" y="487"/>
      <point x="437" y="464" type="curve"/>
      <point x="452" y="480" type="line"/>
      <point x="445" y="487"/>
      <point x="438" y="493"/>
      <point x="431" y="498" type="curve"/>
      <point x="401" y="519"/>
      <point x="365" y="530"/>
      <point x="320" y="530" type="curve" smooth="yes"/>
      <point x="133" y="530"/>
      <point x="66" y="332"/>
      <point x="66" y="198" type="curve" smooth="yes"/>
      <point x="66" y="63"/>
      <point x="139" y="-10"/>
      <point x="247" y="-10" type="curve" smooth="yes"/>
    </contour>
    <contour>
      <point x="499" y="738"/>
      <point x="453" y="701"/>
      <point x="442" y="622" type="curve" smooth="yes"/>
      <point x="424" y="496" type="line"/>
      <point x="452" y="480" type="line"/>
      <point x="471" y="619" type="line" smooth="yes"/>
      <point x="480" y="688"/>
      <point x="518" y="711"/>
      <point x="559" y="711" type="curve" smooth="yes"/>
      <point x="593" y="711"/>
      <point x="614" y="700"/>
      <point x="632" y="687" type="curve"/>
      <point x="649" y="706" type="line"/>
      <point x="630" y="721"/>
      <point x="603" y="738"/>
      <point x="559" y="738" type="curve" smooth="yes"/>
    </contour>
    <contour>
      <point x="298" y="734" type="move" name="top"/>
    </contour>
    <contour>
      <point x="195" y="0" type="move" name="bottom"/>
    </contour>
  </outline>
</glyph>
<glyph name="uni018B" format="1">
  <advance width="562"/>
  <unicode hex="018B"/>
  <outline>
    <contour>
      <point x="177" y="653" type="line"/>
      <point x="477" y="653" type="line"/>
      <point x="501" y="682" type="line"/>
      <point x="181" y="682" type="line"/>
    </contour>
    <component base="uni0500" xOffset="10"/>
    <contour>
      <point x="341" y="682" type="move" name="top"/>
    </contour>
    <contour>
      <point x="245" y="0" type="move" name="bottom"/>
    </contour>
  </outline>
</glyph>
<glyph name="uni018C" format="1">
  <advance width="570"/>
  <unicode hex="018C"/>
  <outline>
    <contour>
      <point x="489" y="706" type="line"/>
      <point x="512" y="734" type="line"/>
      <point x="249" y="734" type="line"/>
      <point x="245" y="706" type="line"/>
    </contour>
    <contour>
      <point x="452" y="453" type="line"/>
      <point x="430" y="490"/>
      <point x="389" y="530"/>
      <point x="310" y="530" type="curve" smooth="yes"/>
      <point x="127" y="530"/>
      <point x="65" y="329"/>
      <point x="65" y="193" type="curve" smooth="yes"/>
      <point x="65" y="65"/>
      <point x="126" y="-10"/>
      <point x="221" y="-10" type="curve" smooth="yes"/>
      <point x="312" y="-10"/>
      <point x="369" y="56"/>
      <point x="406" y="122" type="curve"/>
      <point x="393" y="0" type="line"/>
      <point x="418" y="0" type="line"/>
      <point x="522" y="734" type="line"/>
      <point x="492" y="734" type="line"/>
    </contour>
    <contour>
      <point x="384" y="503"/>
      <point x="423" y="462"/>
      <point x="447" y="415" type="curve"/>
      <point x="414" y="179" type="line"/>
      <point x="362" y="86"/>
      <point x="309" y="18"/>
      <point x="222" y="18" type="curve" smooth="yes"/>
      <point x="144" y="18"/>
      <point x="96" y="81"/>
      <point x="96" y="194" type="curve" smooth="yes"/>
      <point x="96" y="321"/>
      <point x="152" y="503"/>
      <point x="311" y="503" type="curve" smooth="yes"/>
    </contour>
    <contour>
      <point x="349" y="734" type="move" name="top"/>
    </contour>
    <contour>
      <point x="246" y="0" type="move" name="bottom"/>
    </contour>
  </outline>
</glyph>
<glyph name="uni018D" format="1">
  <advance width="559"/>
  <unicode hex="018D"/>
  <outline>
    <contour>
      <point x="329" y="-199"/>
      <point x="386" y="-140"/>
      <point x="386" y="-79" type="curve" smooth="yes"/>
      <point x="386" y="-26"/>
      <point x="354" y="4"/>
      <point x="288" y="35" type="curve"/>
      <point x="447" y="94"/>
      <point x="495" y="205"/>
      <point x="495" y="331" type="curve" smooth="yes"/>
      <point x="495" y="453"/>
      <point x="428" y="530"/>
      <point x="314" y="530" type="curve" smooth="yes"/>
      <point x="123" y="530"/>
      <point x="70" y="345"/>
      <point x="70" y="233" type="curve" smooth="yes"/>
      <point x="70" y="129"/>
      <point x="122" y="73"/>
      <point x="236" y="28" type="curve" smooth="yes"/>
      <point x="325" y="-7"/>
      <point x="355" y="-34"/>
      <point x="355" y="-79" type="curve" smooth="yes"/>
      <point x="355" y="-125"/>
      <point x="315" y="-171"/>
      <point x="215" y="-171" type="curve" smooth="yes"/>
      <point x="160" y="-171"/>
      <point x="118" y="-155"/>
      <point x="80" y="-124" type="curve"/>
      <point x="60" y="-143" type="line"/>
      <point x="101" y="-179"/>
      <point x="157" y="-199"/>
      <point x="215" y="-199" type="curve" smooth="yes"/>
    </contour>
    <contour>
      <point x="144" y="93"/>
      <point x="100" y="140"/>
      <point x="100" y="233" type="curve" smooth="yes"/>
      <point x="100" y="325"/>
      <point x="141" y="502"/>
      <point x="313" y="502" type="curve" smooth="yes"/>
      <point x="409" y="502"/>
      <point x="465" y="436"/>
      <point x="465" y="331" type="curve" smooth="yes"/>
      <point x="465" y="214"/>
      <point x="424" y="108"/>
      <point x="259" y="47" type="curve"/>
    </contour>
    <contour>
      <point x="317" y="520" type="move" name="top"/>
    </contour>
  </outline>
</glyph>
<glyph name="uni01A3" format="1">
  <advance width="741"/>
  <unicode hex="01A3"/>
  <outline>
    <contour>
      <point x="567" y="-195" type="line"/>
      <point x="650" y="396" type="line" smooth="yes"/>
      <point x="661" y="475"/>
      <point x="629" y="530"/>
      <point x="542" y="530" type="curve" smooth="yes"/>
      <point x="491" y="530"/>
      <point x="450" y="516"/>
      <point x="413" y="498" type="curve"/>
      <point x="437" y="482" type="line"/>
      <point x="467" y="494"/>
      <point x="498" y="503"/>
      <point x="541" y="503" type="curve" smooth="yes"/>
      <point x="608" y="503"/>
      <point x="630" y="467"/>
      <point x="620" y="397" type="curve" smooth="yes"/>
      <point x="536" y="-199" type="line"/>
    </contour>
    <contour>
      <point x="129" y="530"/>
      <point x="66" y="331"/>
      <point x="66" y="197" type="curve" smooth="yes"/>
      <point x="66" y="66"/>
      <point x="132" y="-10"/>
      <point x="245" y="-10" type="curve" smooth="yes"/>
      <point x="437" y="-10"/>
      <point x="497" y="196"/>
      <point x="497" y="327" type="curve" smooth="yes"/>
      <point x="497" y="459"/>
      <point x="428" y="530"/>
      <point x="318" y="530" type="curve" smooth="yes"/>
    </contour>
    <contour>
      <point x="413" y="503"/>
      <point x="466" y="441"/>
      <point x="466" y="326" type="curve" smooth="yes"/>
      <point x="466" y="204"/>
      <point x="412" y="18"/>
      <point x="245" y="18" type="curve" smooth="yes"/>
      <point x="151" y="18"/>
      <point x="97" y="81"/>
      <point x="97" y="196" type="curve" smooth="yes"/>
      <point x="97" y="312"/>
      <point x="148" y="503"/>
      <point x="318" y="503" type="curve" smooth="yes"/>
    </contour>
    <contour>
      <point x="408" y="520" type="move" name="top"/>
    </contour>
  </outline>
</glyph>
<glyph name="uni01AC" format="1">
  <advance width="498"/>
  <unicode hex="01AC"/>
  <outline>
    <contour>
      <point x="239" y="0" type="line"/>
      <point x="330" y="652" type="line"/>
      <point x="538" y="652" type="line"/>
      <point x="547" y="682" type="line"/>
      <point x="221" y="682" type="line"/>
      <point x="217" y="652" type="line"/>
      <point x="299" y="652" type="line"/>
      <point x="208" y="0" type="line"/>
    </contour>
    <contour>
      <point x="109" y="503" type="line"/>
      <point x="102" y="520"/>
      <point x="95" y="537"/>
      <point x="95" y="564" type="curve" smooth="yes"/>
      <point x="95" y="613"/>
      <point x="122" y="652"/>
      <point x="191" y="652" type="curve" smooth="yes"/>
      <point x="218" y="652" type="line"/>
      <point x="222" y="682" type="line"/>
      <point x="192" y="682" type="line" smooth="yes"/>
      <point x="109" y="682"/>
      <point x="64" y="631"/>
      <point x="64" y="564" type="curve" smooth="yes"/>
      <point x="64" y="531"/>
      <point x="74" y="511"/>
      <point x="84" y="491" type="curve"/>
    </contour>
    <contour>
      <point x="309" y="682" type="move" name="top"/>
    </contour>
    <contour>
      <point x="224" y="0" type="move" name="bottom"/>
    </contour>
  </outline>
</glyph>
<glyph name="uni01B6" format="1">
  <advance width="410"/>
  <unicode hex="01B6"/>
  <outline>
    <contour>
      <point x="329" y="0" type="line"/>
      <point x="336" y="28" type="line"/>
      <point x="37" y="28" type="line"/>
      <point x="408" y="495" type="line"/>
      <point x="412" y="520" type="line"/>
      <point x="92" y="520" type="line"/>
      <point x="88" y="492" type="line"/>
      <point x="369" y="492" type="line"/>
      <point x="-3" y="25" type="line"/>
      <point x="-7" y="0" type="line"/>
    </contour>
    <contour>
      <point x="335" y="256" type="line"/>
      <point x="339" y="284" type="line"/>
      <point x="90" y="284" type="line"/>
      <point x="86" y="256" type="line"/>
    </contour>
    <contour>
      <point x="242" y="520" type="move" name="top"/>
    </contour>
    <contour>
      <point x="168" y="0" type="move" name="bottom"/>
    </contour>
  </outline>
</glyph>
<glyph name="uni01BB" format="1">
  <advance width="465"/>
  <unicode hex="01BB"/>
  <outline>
    <contour>
      <point x="440" y="270" type="line"/>
      <point x="444" y="298" type="line"/>
      <point x="120" y="298" type="line"/>
      <point x="116" y="270" type="line"/>
    </contour>
    <component base="two"/>
  </outline>
</glyph>
<glyph name="uni0221" format="1">
  <advance width="653"/>
  <unicode hex="0221"/>
  <outline>
    <contour>
      <point x="423" y="194" type="line"/>
      <point x="368" y="94"/>
      <point x="314" y="18"/>
      <point x="222" y="18" type="curve" smooth="yes"/>
      <point x="144" y="18"/>
      <point x="96" y="81"/>
      <point x="96" y="194" type="curve" smooth="yes"/>
      <point x="96" y="321"/>
      <point x="152" y="503"/>
      <point x="311" y="503" type="curve" smooth="yes"/>
      <point x="384" y="503"/>
      <point x="423" y="462"/>
      <point x="447" y="415" type="curve"/>
      <point x="406" y="124" type="line" smooth="yes"/>
      <point x="395" y="44"/>
      <point x="429" y="-10"/>
      <point x="514" y="-10" type="curve"/>
      <point x="515" y="18" type="line"/>
      <point x="448" y="18"/>
      <point x="427" y="53"/>
      <point x="436" y="123" type="curve" smooth="yes"/>
      <point x="522" y="734" type="line"/>
      <point x="492" y="739" type="line"/>
      <point x="452" y="453" type="line"/>
      <point x="430" y="490"/>
      <point x="389" y="530"/>
      <point x="310" y="530" type="curve" smooth="yes"/>
      <point x="127" y="530"/>
      <point x="65" y="329"/>
      <point x="65" y="193" type="curve" smooth="yes"/>
      <point x="65" y="65"/>
      <point x="126" y="-10"/>
      <point x="221" y="-10" type="curve" smooth="yes"/>
      <point x="317" y="-10"/>
      <point x="376" y="64"/>
      <point x="412" y="134" type="curve"/>
    </contour>
    <contour>
      <point x="432" y="37" type="line"/>
      <point x="436" y="43" type="line"/>
      <point x="496" y="136"/>
      <point x="530" y="157"/>
      <point x="572" y="157" type="curve" smooth="yes"/>
      <point x="607" y="157"/>
      <point x="630" y="139"/>
      <point x="630" y="106" type="curve" smooth="yes"/>
      <point x="630" y="48"/>
      <point x="575" y="18"/>
      <point x="515" y="18" type="curve"/>
      <point x="514" y="-10" type="line"/>
      <point x="595" y="-10"/>
      <point x="660" y="39"/>
      <point x="660" y="106" type="curve" smooth="yes"/>
      <point x="660" y="152"/>
      <point x="626" y="184"/>
      <point x="574" y="184" type="curve" smooth="yes"/>
      <point x="514" y="184"/>
      <point x="473" y="149"/>
      <point x="428" y="75" type="curve"/>
      <point x="420" y="63" type="line"/>
      <point x="341" y="-47" type="line"/>
      <point x="364" y="-59" type="line"/>
    </contour>
    <contour>
      <point x="391" y="734" type="move" name="top"/>
    </contour>
  </outline>
</glyph>
<glyph name="uni0223" format="1">
  <advance width="559"/>
  <unicode hex="0223"/>
  <outline>
    <contour>
      <point x="154" y="418"/>
      <point x="60" y="309"/>
      <point x="60" y="166" type="curve" smooth="yes"/>
      <point x="60" y="58"/>
      <point x="129" y="-10"/>
      <point x="244" y="-10" type="curve" smooth="yes"/>
      <point x="392" y="-10"/>
      <point x="484" y="99"/>
      <point x="484" y="247" type="curve" smooth="yes"/>
      <point x="484" y="352"/>
      <point x="425" y="417"/>
      <point x="300" y="417" type="curve"/>
    </contour>
    <contour>
      <point x="407" y="395"/>
      <point x="454" y="338"/>
      <point x="454" y="247" type="curve" smooth="yes"/>
      <point x="454" y="118"/>
      <point x="381" y="18"/>
      <point x="245" y="18" type="curve" smooth="yes"/>
      <point x="145" y="18"/>
      <point x="91" y="72"/>
      <point x="91" y="166" type="curve" smooth="yes"/>
      <point x="91" y="293"/>
      <point x="167" y="395"/>
      <point x="301" y="395" type="curve"/>
    </contour>
    <contour>
      <point x="492" y="734" type="line"/>
      <point x="469" y="575" type="line" smooth="yes"/>
      <point x="458" y="494"/>
      <point x="411" y="422"/>
      <point x="301" y="422" type="curve" smooth="yes"/>
      <point x="205" y="422"/>
      <point x="169" y="478"/>
      <point x="183" y="573" type="curve" smooth="yes"/>
      <point x="206" y="734" type="line"/>
      <point x="176" y="734" type="line"/>
      <point x="154" y="575" type="line" smooth="yes"/>
      <point x="137" y="467"/>
      <point x="183" y="402"/>
      <point x="301" y="401" type="curve"/>
      <point x="429" y="403"/>
      <point x="485" y="475"/>
      <point x="499" y="573" type="curve" smooth="yes"/>
      <point x="522" y="734" type="line"/>
    </contour>
    <contour>
      <point x="347" y="734" type="move" name="top"/>
    </contour>
    <contour>
      <point x="243" y="0" type="move" name="bottom"/>
    </contour>
  </outline>
</glyph>
<glyph name="uni0234" format="1">
  <advance width="337"/>
  <unicode hex="0234"/>
  <outline>
    <contour>
      <point x="199" y="18" type="line"/>
      <point x="132" y="18"/>
      <point x="110" y="51"/>
      <point x="120" y="121" type="curve" smooth="yes"/>
      <point x="207" y="738" type="line"/>
      <point x="177" y="734" type="line"/>
      <point x="91" y="122" type="line" smooth="yes"/>
      <point x="80" y="43"/>
      <point x="114" y="-10"/>
      <point x="198" y="-10" type="curve"/>
    </contour>
    <contour>
      <point x="116" y="37" type="line"/>
      <point x="120" y="43" type="line"/>
      <point x="180" y="136"/>
      <point x="214" y="157"/>
      <point x="256" y="157" type="curve" smooth="yes"/>
      <point x="291" y="157"/>
      <point x="314" y="139"/>
      <point x="314" y="106" type="curve" smooth="yes"/>
      <point x="314" y="48"/>
      <point x="259" y="18"/>
      <point x="199" y="18" type="curve"/>
      <point x="198" y="-10" type="line"/>
      <point x="279" y="-10"/>
      <point x="344" y="39"/>
      <point x="344" y="106" type="curve" smooth="yes"/>
      <point x="344" y="152"/>
      <point x="310" y="184"/>
      <point x="258" y="184" type="curve" smooth="yes"/>
      <point x="198" y="184"/>
      <point x="157" y="149"/>
      <point x="112" y="75" type="curve"/>
      <point x="104" y="63" type="line"/>
      <point x="25" y="-47" type="line"/>
      <point x="48" y="-59" type="line"/>
    </contour>
    <contour>
      <point x="236" y="734" type="move" name="top"/>
    </contour>
  </outline>
</glyph>
<glyph name="uni0238" format="1">
  <advance width="836"/>
  <unicode hex="0238"/>
  <outline>
    <contour>
      <point x="295" y="-10"/>
      <point x="352" y="38"/>
      <point x="391" y="113" type="curve"/>
      <point x="395" y="162" type="line"/>
      <point x="345" y="62"/>
      <point x="292" y="18"/>
      <point x="218" y="18" type="curve" smooth="yes"/>
      <point x="143" y="18"/>
      <point x="96" y="81"/>
      <point x="96" y="192" type="curve" smooth="yes"/>
      <point x="96" y="342"/>
      <point x="171" y="502"/>
      <point x="301" y="502" type="curve" smooth="yes"/>
      <point x="367" y="502"/>
      <point x="396" y="461"/>
      <point x="433" y="399" type="curve"/>
      <point x="438" y="429" type="line"/>
      <point x="412" y="487"/>
      <point x="372" y="530"/>
      <point x="300" y="530" type="curve" smooth="yes"/>
      <point x="152" y="530"/>
      <point x="65" y="360"/>
      <point x="65" y="192" type="curve" smooth="yes"/>
      <point x="65" y="64"/>
      <point x="125" y="-10"/>
      <point x="217" y="-10" type="curve" smooth="yes"/>
    </contour>
    <contour>
      <point x="394" y="0" type="line"/>
      <point x="412" y="96" type="line"/>
      <point x="502" y="738" type="line"/>
      <point x="472" y="734" type="line"/>
      <point x="382" y="96" type="line"/>
      <point x="372" y="0" type="line"/>
    </contour>
    <contour>
      <point x="697" y="-10"/>
      <point x="771" y="169"/>
      <point x="771" y="340" type="curve" smooth="yes"/>
      <point x="771" y="463"/>
      <point x="718" y="530"/>
      <point x="625" y="530" type="curve" smooth="yes"/>
      <point x="559" y="530"/>
      <point x="498" y="491"/>
      <point x="452" y="432" type="curve"/>
      <point x="448" y="397" type="line"/>
      <point x="503" y="461"/>
      <point x="555" y="502"/>
      <point x="625" y="502" type="curve" smooth="yes"/>
      <point x="699" y="502"/>
      <point x="741" y="448"/>
      <point x="741" y="342" type="curve" smooth="yes"/>
      <point x="741" y="192"/>
      <point x="680" y="18"/>
      <point x="546" y="18" type="curve" smooth="yes"/>
      <point x="484" y="18"/>
      <point x="441" y="61"/>
      <point x="415" y="160" type="curve"/>
      <point x="408" y="111" type="line"/>
      <point x="429" y="40"/>
      <point x="475" y="-10"/>
      <point x="547" y="-10" type="curve" smooth="yes"/>
    </contour>
    <contour>
      <point x="483" y="734" type="move" name="top"/>
    </contour>
    <contour>
      <point x="379" y="0" type="move" name="bottom"/>
    </contour>
  </outline>
</glyph>
<glyph name="uni0239" format="1">
  <advance width="836"/>
  <unicode hex="0239"/>
  <outline>
    <contour>
      <point x="371" y="-193" type="line"/>
      <point x="458" y="421" type="line"/>
      <point x="459" y="434" type="line"/>
      <point x="468" y="520" type="line"/>
      <point x="446" y="520" type="line"/>
      <point x="430" y="434" type="line"/>
      <point x="427" y="418" type="line"/>
      <point x="340" y="-199" type="line"/>
    </contour>
    <contour>
      <point x="296" y="-10"/>
      <point x="351" y="38"/>
      <point x="386" y="90" type="curve"/>
      <point x="394" y="142" type="line"/>
      <point x="346" y="64"/>
      <point x="293" y="18"/>
      <point x="219" y="18" type="curve" smooth="yes"/>
      <point x="143" y="18"/>
      <point x="96" y="81"/>
      <point x="96" y="193" type="curve" smooth="yes"/>
      <point x="96" y="342"/>
      <point x="170" y="502"/>
      <point x="302" y="502" type="curve" smooth="yes"/>
      <point x="369" y="502"/>
      <point x="407" y="447"/>
      <point x="430" y="396" type="curve"/>
      <point x="434" y="434" type="line"/>
      <point x="415" y="478"/>
      <point x="377" y="530"/>
      <point x="301" y="530" type="curve" smooth="yes"/>
      <point x="152" y="530"/>
      <point x="65" y="360"/>
      <point x="65" y="193" type="curve" smooth="yes"/>
      <point x="65" y="64"/>
      <point x="125" y="-10"/>
      <point x="218" y="-10" type="curve" smooth="yes"/>
    </contour>
    <contour>
      <point x="697" y="-10"/>
      <point x="771" y="169"/>
      <point x="771" y="340" type="curve" smooth="yes"/>
      <point x="771" y="463"/>
      <point x="718" y="530"/>
      <point x="628" y="530" type="curve" smooth="yes"/>
      <point x="557" y="530"/>
      <point x="498" y="489"/>
      <point x="452" y="431" type="curve"/>
      <point x="448" y="397" type="line"/>
      <point x="503" y="459"/>
      <point x="554" y="502"/>
      <point x="628" y="502" type="curve" smooth="yes"/>
      <point x="700" y="502"/>
      <point x="741" y="448"/>
      <point x="741" y="340" type="curve" smooth="yes"/>
      <point x="741" y="191"/>
      <point x="680" y="18"/>
      <point x="546" y="18" type="curve" smooth="yes"/>
      <point x="484" y="18"/>
      <point x="439" y="61"/>
      <point x="412" y="141" type="curve"/>
      <point x="407" y="94" type="line"/>
      <point x="427" y="40"/>
      <point x="477" y="-10"/>
      <point x="547" y="-10" type="curve" smooth="yes"/>
    </contour>
    <contour>
      <point x="457" y="520" type="move" name="top"/>
    </contour>
  </outline>
</glyph>
<glyph name="uni0243" format="1">
  <advance width="594"/>
  <unicode hex="0243"/>
  <outline>
    <contour>
      <point x="119" y="208" type="line"/>
      <point x="28" y="208" type="line"/>
      <point x="24" y="180" type="line"/>
      <point x="336" y="180" type="line"/>
      <point x="340" y="208" type="line"/>
    </contour>
    <component base="B" xOffset="5"/>
  </outline>
</glyph>
<glyph name="uni0247" format="1">
  <advance width="510"/>
  <unicode hex="0247"/>
  <outline>
    <contour>
      <point x="122" y="-64" type="line"/>
      <point x="143" y="-70" type="line"/>
      <point x="413" y="583" type="line"/>
      <point x="392" y="589" type="line"/>
    </contour>
    <contour>
      <point x="147" y="530"/>
      <point x="65" y="344"/>
      <point x="65" y="197" type="curve" smooth="yes"/>
      <point x="65" y="62"/>
      <point x="133" y="-10"/>
      <point x="246" y="-10" type="curve" smooth="yes"/>
      <point x="312" y="-10"/>
      <point x="363" y="12"/>
      <point x="415" y="51" type="curve"/>
      <point x="399" y="73" type="line"/>
      <point x="349" y="38"/>
      <point x="308" y="18"/>
      <point x="246" y="18" type="curve" smooth="yes"/>
      <point x="157" y="18"/>
      <point x="96" y="73"/>
      <point x="96" y="198" type="curve" smooth="yes"/>
      <point x="96" y="330"/>
      <point x="166" y="503"/>
      <point x="329" y="503" type="curve" smooth="yes"/>
      <point x="405" y="503"/>
      <point x="443" y="464"/>
      <point x="443" y="409" type="curve" smooth="yes"/>
      <point x="443" y="308"/>
      <point x="325" y="253"/>
      <point x="92" y="239" type="curve"/>
      <point x="89" y="213" type="line"/>
      <point x="330" y="226"/>
      <point x="474" y="286"/>
      <point x="474" y="410" type="curve" smooth="yes"/>
      <point x="474" y="482"/>
      <point x="418" y="530"/>
      <point x="329" y="530" type="curve" smooth="yes"/>
    </contour>
    <contour>
      <point x="311" y="520" type="move" name="top"/>
    </contour>
    <contour>
      <point x="241" y="0" type="move" name="bottom"/>
    </contour>
  </outline>
</glyph>
<glyph name="uni024B" format="1">
  <advance width="559"/>
  <unicode hex="024B"/>
  <outline>
    <contour>
      <point x="297" y="-10"/>
      <point x="357" y="31"/>
      <point x="395" y="89" type="curve"/>
      <point x="382" y="1" type="line"/>
      <point x="412" y="1" type="line"/>
      <point x="478" y="488" type="line"/>
      <point x="437" y="511"/>
      <point x="396" y="530"/>
      <point x="324" y="530" type="curve" smooth="yes"/>
      <point x="134" y="530"/>
      <point x="65" y="332"/>
      <point x="65" y="193" type="curve" smooth="yes"/>
      <point x="65" y="65"/>
      <point x="126" y="-10"/>
      <point x="227" y="-10" type="curve" smooth="yes"/>
    </contour>
    <contour>
      <point x="450" y="-199"/>
      <point x="469" y="-194"/>
      <point x="483" y="-188" type="curve"/>
      <point x="476" y="-163" type="line"/>
      <point x="463" y="-168"/>
      <point x="449" y="-171"/>
      <point x="436" y="-171" type="curve" smooth="yes"/>
      <point x="400" y="-171"/>
      <point x="390" y="-153"/>
      <point x="396" y="-113" type="curve" smooth="yes"/>
      <point x="412" y="1" type="line"/>
      <point x="382" y="1" type="line"/>
      <point x="366" y="-110" type="line" smooth="yes"/>
      <point x="357" y="-172"/>
      <point x="386" y="-199"/>
      <point x="433" y="-199" type="curve" smooth="yes"/>
    </contour>
    <contour>
      <point x="144" y="18"/>
      <point x="96" y="81"/>
      <point x="96" y="194" type="curve" smooth="yes"/>
      <point x="96" y="318"/>
      <point x="156" y="504"/>
      <point x="325" y="504" type="curve" smooth="yes"/>
      <point x="375" y="504"/>
      <point x="416" y="492"/>
      <point x="447" y="474" type="curve"/>
      <point x="402" y="140" type="line"/>
      <point x="356" y="61"/>
      <point x="298" y="18"/>
      <point x="228" y="18" type="curve" smooth="yes"/>
    </contour>
    <contour>
      <point x="317" y="520" type="move" name="top"/>
    </contour>
  </outline>
</glyph>
<glyph name="uni024C" format="1">
  <advance width="583"/>
  <unicode hex="024C"/>
  <outline>
    <contour>
      <point x="299" y="349" type="line"/>
      <point x="139" y="349" type="line"/>
      <point x="48" y="349" type="line"/>
      <point x="44" y="320" type="line"/>
      <point x="331" y="320" type="line"/>
    </contour>
    <component base="R" xOffset="6"/>
  </outline>
</glyph>
<glyph name="uni0250" format="1">
  <advance width="517"/>
  <unicode hex="0250"/>
  <outline>
    <contour>
      <point x="288" y="-10"/>
      <point x="334" y="3"/>
      <point x="387" y="24" type="curve"/>
      <point x="378" y="50" type="line"/>
      <point x="329" y="30"/>
      <point x="285" y="18"/>
      <point x="230" y="18" type="curve" smooth="yes"/>
      <point x="140" y="18"/>
      <point x="111" y="58"/>
      <point x="124" y="150" type="curve" smooth="yes"/>
      <point x="159" y="408" type="line"/>
      <point x="160" y="430" type="line"/>
      <point x="169" y="495"/>
      <point x="145" y="517"/>
      <point x="109" y="530" type="curve"/>
      <point x="100" y="507" type="line"/>
      <point x="136" y="492"/>
      <point x="137" y="463"/>
      <point x="130" y="411" type="curve" smooth="yes"/>
      <point x="93" y="148" type="line" smooth="yes"/>
      <point x="78" y="41"/>
      <point x="124" y="-10"/>
      <point x="230" y="-10" type="curve" smooth="yes"/>
    </contour>
    <contour>
      <point x="249" y="210" type="line" smooth="yes"/>
      <point x="379" y="210"/>
      <point x="478" y="278"/>
      <point x="478" y="398" type="curve" smooth="yes"/>
      <point x="478" y="478"/>
      <point x="427" y="530"/>
      <point x="337" y="530" type="curve" smooth="yes"/>
      <point x="261" y="530"/>
      <point x="204" y="495"/>
      <point x="153" y="427" type="curve"/>
      <point x="153" y="389" type="line"/>
      <point x="199" y="458"/>
      <point x="258" y="502"/>
      <point x="337" y="502" type="curve" smooth="yes"/>
      <point x="407" y="502"/>
      <point x="447" y="466"/>
      <point x="447" y="398" type="curve" smooth="yes"/>
      <point x="447" y="296"/>
      <point x="365" y="238"/>
      <point x="248" y="238" type="curve" smooth="yes"/>
      <point x="128" y="238" type="line"/>
      <point x="125" y="210" type="line"/>
    </contour>
    <contour>
      <point x="298" y="520" type="move" name="top"/>
    </contour>
    <contour>
      <point x="224" y="0" type="move" name="bottom"/>
    </contour>
  </outline>
</glyph>
<glyph name="uni0251" format="1">
  <advance width="552"/>
  <unicode hex="0251"/>
  <outline>
    <contour>
      <point x="297" y="-10"/>
      <point x="354" y="31"/>
      <point x="392" y="90" type="curve"/>
      <point x="383" y="25"/>
      <point x="407" y="3"/>
      <point x="443" y="-10" type="curve"/>
      <point x="452" y="13" type="line"/>
      <point x="416" y="28"/>
      <point x="415" y="57"/>
      <point x="422" y="109" type="curve" smooth="yes"/>
      <point x="483" y="520" type="line"/>
      <point x="459" y="520" type="line"/>
      <point x="442" y="438" type="line"/>
      <point x="398" y="140" type="line"/>
      <point x="352" y="61"/>
      <point x="298" y="18"/>
      <point x="228" y="18" type="curve" smooth="yes"/>
      <point x="144" y="18"/>
      <point x="96" y="81"/>
      <point x="96" y="194" type="curve" smooth="yes"/>
      <point x="96" y="321"/>
      <point x="165" y="503"/>
      <point x="309" y="503" type="curve" smooth="yes"/>
      <point x="371" y="503"/>
      <point x="420" y="471"/>
      <point x="443" y="371" type="curve"/>
      <point x="458" y="388" type="line"/>
      <point x="442" y="488"/>
      <point x="388" y="530"/>
      <point x="310" y="530" type="curve" smooth="yes"/>
      <point x="144" y="530"/>
      <point x="65" y="335"/>
      <point x="65" y="193" type="curve" smooth="yes"/>
      <point x="65" y="65"/>
      <point x="126" y="-10"/>
      <point x="227" y="-10" type="curve" smooth="yes"/>
    </contour>
    <contour>
      <point x="314" y="520" type="move" name="top"/>
    </contour>
    <contour>
      <point x="240" y="0" type="move" name="bottom"/>
    </contour>
  </outline>
</glyph>
<glyph name="uni0255" format="1">
  <advance width="473"/>
  <unicode hex="0255"/>
  <outline>
    <contour>
      <point x="97" y="314"/>
      <point x="152" y="503"/>
      <point x="321" y="503" type="curve" smooth="yes"/>
      <point x="370" y="503"/>
      <point x="405" y="488"/>
      <point x="433" y="460" type="curve"/>
      <point x="452" y="480" type="line"/>
      <point x="417" y="514"/>
      <point x="375" y="530"/>
      <point x="320" y="530" type="curve" smooth="yes"/>
      <point x="133" y="530"/>
      <point x="66" y="332"/>
      <point x="66" y="198" type="curve" smooth="yes"/>
      <point x="66" y="113"/>
      <point x="94" y="53"/>
      <point x="142" y="20" type="curve"/>
      <point x="161" y="42" type="line"/>
      <point x="120" y="69"/>
      <point x="97" y="120"/>
      <point x="97" y="195" type="curve" smooth="yes"/>
    </contour>
    <contour>
      <point x="108" y="-59" type="line"/>
      <point x="154" y="16" type="line"/>
      <point x="158" y="22" type="line"/>
      <point x="226" y="146"/>
      <point x="270" y="177"/>
      <point x="327" y="177" type="curve" smooth="yes"/>
      <point x="371" y="177"/>
      <point x="392" y="154"/>
      <point x="392" y="117" type="curve" smooth="yes"/>
      <point x="392" y="48"/>
      <point x="330" y="18"/>
      <point x="254" y="18" type="curve" smooth="yes"/>
      <point x="218" y="18"/>
      <point x="190" y="25"/>
      <point x="164" y="41" type="curve"/>
      <point x="149" y="15" type="line"/>
      <point x="180" y="-2"/>
      <point x="212" y="-10"/>
      <point x="254" y="-10" type="curve" smooth="yes"/>
      <point x="357" y="-10"/>
      <point x="422" y="39"/>
      <point x="422" y="117" type="curve" smooth="yes"/>
      <point x="422" y="167"/>
      <point x="390" y="204"/>
      <point x="327" y="204" type="curve" smooth="yes"/>
      <point x="266" y="204"/>
      <point x="211" y="169"/>
      <point x="144" y="53" type="curve"/>
      <point x="131" y="31" type="line"/>
      <point x="85" y="-47" type="line"/>
    </contour>
    <contour>
      <point x="314" y="520" type="move" name="top"/>
    </contour>
    <contour>
      <point x="240" y="0" type="move" name="bottom"/>
    </contour>
  </outline>
</glyph>
<glyph name="uni0258" format="1">
  <advance width="513"/>
  <unicode hex="0258"/>
  <outline>
    <contour>
      <point x="144" y="530"/>
      <point x="74" y="463"/>
      <point x="74" y="375" type="curve" smooth="yes"/>
      <point x="74" y="261"/>
      <point x="181" y="219"/>
      <point x="410" y="213" type="curve"/>
      <point x="413" y="239" type="line"/>
      <point x="192" y="246"/>
      <point x="105" y="280"/>
      <point x="105" y="375" type="curve" smooth="yes"/>
      <point x="105" y="448"/>
      <point x="156" y="503"/>
      <point x="249" y="503" type="curve" smooth="yes"/>
      <point x="367" y="503"/>
      <point x="414" y="414"/>
      <point x="414" y="313" type="curve" smooth="yes"/>
      <point x="414" y="159"/>
      <point x="337" y="18"/>
      <point x="192" y="18" type="curve" smooth="yes"/>
      <point x="132" y="18"/>
      <point x="95" y="37"/>
      <point x="58" y="71" type="curve"/>
      <point x="38" y="52" type="line"/>
      <point x="80" y="12"/>
      <point x="125" y="-10"/>
      <point x="192" y="-10" type="curve" smooth="yes"/>
      <point x="352" y="-10"/>
      <point x="446" y="142"/>
      <point x="446" y="314" type="curve" smooth="yes"/>
      <point x="446" y="427"/>
      <point x="388" y="530"/>
      <point x="249" y="530" type="curve" smooth="yes"/>
    </contour>
    <contour>
      <point x="249" y="520" type="move" name="top"/>
    </contour>
    <contour>
      <point x="192" y="0" type="move" name="bottom"/>
    </contour>
  </outline>
</glyph>
<glyph name="uni025E" format="1">
  <advance width="544"/>
  <unicode hex="025E"/>
  <outline>
    <contour>
      <point x="410" y="-10"/>
      <point x="464" y="77"/>
      <point x="464" y="154" type="curve" smooth="yes"/>
      <point x="464" y="230"/>
      <point x="412" y="269"/>
      <point x="341" y="275" type="curve"/>
      <point x="422" y="288"/>
      <point x="473" y="330"/>
      <point x="473" y="406" type="curve" smooth="yes"/>
      <point x="473" y="481"/>
      <point x="418" y="530"/>
      <point x="328" y="530" type="curve"/>
      <point x="158" y="530"/>
      <point x="66" y="375"/>
      <point x="66" y="197" type="curve" smooth="yes"/>
      <point x="66" y="67"/>
      <point x="133" y="-10"/>
      <point x="259" y="-10" type="curve" smooth="yes"/>
    </contour>
    <contour>
      <point x="152" y="18"/>
      <point x="97" y="81"/>
      <point x="97" y="197" type="curve" smooth="yes"/>
      <point x="97" y="355"/>
      <point x="171" y="502"/>
      <point x="328" y="502" type="curve"/>
      <point x="404" y="502"/>
      <point x="441" y="463"/>
      <point x="441" y="406" type="curve" smooth="yes"/>
      <point x="441" y="333"/>
      <point x="383" y="287"/>
      <point x="283" y="287" type="curve" smooth="yes"/>
      <point x="252" y="287" type="line"/>
      <point x="245" y="261" type="line"/>
      <point x="282" y="261" type="line" smooth="yes"/>
      <point x="377" y="261"/>
      <point x="433" y="226"/>
      <point x="433" y="154" type="curve" smooth="yes"/>
      <point x="433" y="89"/>
      <point x="393" y="18"/>
      <point x="259" y="18" type="curve" smooth="yes"/>
    </contour>
    <contour>
      <point x="319" y="520" type="move" name="top"/>
    </contour>
    <contour>
      <point x="245" y="0" type="move" name="bottom"/>
    </contour>
  </outline>
</glyph>
<glyph name="uni0260" format="1">
  <advance width="564"/>
  <unicode hex="0260"/>
  <outline>
    <contour>
      <point x="455" y="520" type="line"/>
      <point x="401" y="147" type="line"/>
      <point x="355" y="70"/>
      <point x="300" y="28"/>
      <point x="230" y="28" type="curve" smooth="yes"/>
      <point x="146" y="28"/>
      <point x="98" y="94"/>
      <point x="97" y="203" type="curve" smooth="yes"/>
      <point x="96" y="320"/>
      <point x="157" y="504"/>
      <point x="326" y="504" type="curve" smooth="yes"/>
      <point x="379" y="504"/>
      <point x="423" y="490"/>
      <point x="455" y="470" type="curve"/>
      <point x="475" y="487" type="line"/>
      <point x="442" y="509"/>
      <point x="401" y="530"/>
      <point x="325" y="530" type="curve" smooth="yes"/>
      <point x="135" y="530"/>
      <point x="65" y="332"/>
      <point x="66" y="202" type="curve" smooth="yes"/>
      <point x="67" y="78"/>
      <point x="128" y="0"/>
      <point x="229" y="0" type="curve" smooth="yes"/>
      <point x="299" y="0"/>
      <point x="356" y="40"/>
      <point x="394" y="99" type="curve"/>
      <point x="379" y="-6" type="line" smooth="yes"/>
      <point x="362" y="-128"/>
      <point x="291" y="-173"/>
      <point x="210" y="-173" type="curve" smooth="yes"/>
      <point x="145" y="-173"/>
      <point x="100" y="-153"/>
      <point x="56" y="-130" type="curve"/>
      <point x="43" y="-152" type="line"/>
      <point x="86" y="-176"/>
      <point x="141" y="-199"/>
      <point x="209" y="-199" type="curve" smooth="yes"/>
      <point x="305" y="-199"/>
      <point x="387" y="-150"/>
      <point x="409" y="-2" type="curve" smooth="yes"/>
      <point x="485" y="520" type="line"/>
    </contour>
    <component base="hookaboveHELPER2" xOffset="380"/>
    <contour>
      <point x="356" y="734" type="move" name="top"/>
    </contour>
    <contour>
      <point x="209" y="-193" type="move" name="bottom"/>
    </contour>
  </outline>
</glyph>
<glyph name="uni0262" format="1">
  <advance width="551"/>
  <unicode hex="0262"/>
  <outline>
    <contour>
      <point x="168" y="532"/>
      <point x="65" y="376"/>
      <point x="66" y="201" type="curve" smooth="yes"/>
      <point x="66" y="59"/>
      <point x="143" y="-8"/>
      <point x="264" y="-8" type="curve" smooth="yes"/>
      <point x="315" y="-8"/>
      <point x="374" y="5"/>
      <point x="428" y="34" type="curve"/>
      <point x="461" y="277" type="line"/>
      <point x="304" y="277" type="line"/>
      <point x="304" y="249" type="line"/>
      <point x="425" y="249" type="line"/>
      <point x="398" y="50" type="line"/>
      <point x="359" y="31"/>
      <point x="319" y="20"/>
      <point x="264" y="20" type="curve" smooth="yes"/>
      <point x="161" y="20"/>
      <point x="96" y="75"/>
      <point x="96" y="201" type="curve" smooth="yes"/>
      <point x="96" y="359"/>
      <point x="181" y="504"/>
      <point x="331" y="504" type="curve" smooth="yes"/>
      <point x="379" y="504"/>
      <point x="419" y="490"/>
      <point x="456" y="460" type="curve"/>
      <point x="476" y="480" type="line"/>
      <point x="435" y="514"/>
      <point x="391" y="532"/>
      <point x="330" y="532" type="curve" smooth="yes"/>
    </contour>
    <contour>
      <point x="333" y="520" type="move" name="top"/>
    </contour>
    <contour>
      <point x="259" y="0" type="move" name="bottom"/>
    </contour>
  </outline>
</glyph>
<glyph name="uni0264" format="1">
  <advance width="515"/>
  <unicode hex="0264"/>
  <outline>
    <contour>
      <point x="278" y="-10"/>
      <point x="311" y="29"/>
      <point x="311" y="80" type="curve" smooth="yes"/>
      <point x="311" y="116"/>
      <point x="295" y="158"/>
      <point x="270" y="210" type="curve"/>
      <point x="254" y="233" type="line"/>
      <point x="185" y="458" type="line" smooth="yes"/>
      <point x="170" y="508"/>
      <point x="150" y="530"/>
      <point x="107" y="530" type="curve" smooth="yes"/>
      <point x="82" y="530"/>
      <point x="59" y="520"/>
      <point x="40" y="506" type="curve"/>
      <point x="51" y="484" type="line"/>
      <point x="73" y="498"/>
      <point x="87" y="503"/>
      <point x="106" y="503" type="curve" smooth="yes"/>
      <point x="129" y="503"/>
      <point x="145" y="492"/>
      <point x="156" y="454" type="curve" smooth="yes"/>
      <point x="235" y="211" type="line"/>
      <point x="250" y="188" type="line"/>
      <point x="270" y="140"/>
      <point x="281" y="112"/>
      <point x="281" y="80" type="curve" smooth="yes"/>
      <point x="281" y="42"/>
      <point x="261" y="17"/>
      <point x="225" y="17" type="curve" smooth="yes"/>
      <point x="199" y="17"/>
      <point x="187" y="32"/>
      <point x="187" y="58" type="curve" smooth="yes"/>
      <point x="187" y="100"/>
      <point x="214" y="138"/>
      <point x="250" y="188" type="curve"/>
      <point x="270" y="210" type="line"/>
      <point x="415" y="452" type="line" smooth="yes"/>
      <point x="437" y="491"/>
      <point x="456" y="503"/>
      <point x="481" y="503" type="curve" smooth="yes"/>
      <point x="498" y="503"/>
      <point x="511" y="498"/>
      <point x="529" y="484" type="curve"/>
      <point x="544" y="504" type="line"/>
      <point x="528" y="518"/>
      <point x="508" y="530"/>
      <point x="481" y="530" type="curve" smooth="yes"/>
      <point x="440" y="530"/>
      <point x="414" y="508"/>
      <point x="385" y="458" type="curve" smooth="yes"/>
      <point x="254" y="233" type="line"/>
      <point x="235" y="211" type="line"/>
      <point x="185" y="146"/>
      <point x="157" y="98"/>
      <point x="157" y="59" type="curve" smooth="yes"/>
      <point x="157" y="18"/>
      <point x="182" y="-10"/>
      <point x="225" y="-10" type="curve" smooth="yes"/>
    </contour>
    <contour>
      <point x="289" y="520" type="move" name="top"/>
    </contour>
    <contour>
      <point x="225" y="0" type="move" name="bottom"/>
    </contour>
  </outline>
</glyph>
<glyph name="uni0267" format="1">
  <advance width="582"/>
  <unicode hex="0267"/>
  <outline>
    <component base="hookHELPER" xOffset="237"/>
    <component base="uni0266"/>
    <contour>
      <point x="226" y="-193" type="move" name="bottom"/>
    </contour>
  </outline>
</glyph>
<glyph name="uni0269" format="1">
  <advance width="276"/>
  <unicode hex="0269"/>
  <outline>
    <contour>
      <point x="75" y="17"/>
      <point x="102" y="-10"/>
      <point x="151" y="-10" type="curve" smooth="yes"/>
      <point x="168" y="-10"/>
      <point x="187" y="-5"/>
      <point x="201" y="1" type="curve"/>
      <point x="193" y="25" type="line"/>
      <point x="180" y="20"/>
      <point x="167" y="16"/>
      <point x="153" y="16" type="curve" smooth="yes"/>
      <point x="118" y="16"/>
      <point x="108" y="36"/>
      <point x="114" y="76" type="curve" smooth="yes"/>
      <point x="177" y="520" type="line"/>
      <point x="147" y="520" type="line"/>
      <point x="84" y="78" type="line" smooth="yes"/>
    </contour>
    <contour>
      <point x="162" y="520" type="move" name="top"/>
    </contour>
    <contour>
      <point x="101" y="0" type="move" name="bottom"/>
    </contour>
  </outline>
</glyph>
<glyph name="uni026C" format="1">
  <advance width="311"/>
  <unicode hex="026C"/>
  <outline>
    <contour>
      <point x="175" y="277" type="line"/>
      <point x="207" y="278"/>
      <point x="236" y="281"/>
      <point x="267" y="287" type="curve"/>
      <point x="268" y="312" type="line"/>
      <point x="238" y="307"/>
      <point x="212" y="304"/>
      <point x="179" y="303" type="curve"/>
      <point x="150" y="303" type="line"/>
      <point x="91" y="303"/>
      <point x="65" y="320"/>
      <point x="65" y="359" type="curve" smooth="yes"/>
      <point x="65" y="397"/>
      <point x="93" y="421"/>
      <point x="140" y="421" type="curve" smooth="yes"/>
      <point x="152" y="421"/>
      <point x="159" y="420"/>
      <point x="167" y="419" type="curve"/>
      <point x="171" y="446" type="line"/>
      <point x="163" y="447"/>
      <point x="155" y="448"/>
      <point x="142" y="448" type="curve" smooth="yes"/>
      <point x="81" y="448"/>
      <point x="35" y="415"/>
      <point x="35" y="359" type="curve" smooth="yes"/>
      <point x="35" y="303"/>
      <point x="79" y="276"/>
      <point x="146" y="276" type="curve"/>
    </contour>
    <component base="l" xOffset="33"/>
  </outline>
</glyph>
<glyph name="uni0276" format="1">
  <advance width="709"/>
  <unicode hex="0276"/>
  <outline>
    <contour>
      <point x="627" y="0" type="line"/>
      <point x="631" y="28" type="line"/>
      <point x="344" y="28" type="line"/>
      <point x="298" y="0" type="line"/>
    </contour>
    <contour>
      <point x="621" y="261" type="line"/>
      <point x="625" y="288" type="line"/>
      <point x="487" y="288" type="line"/>
      <point x="483" y="261" type="line"/>
    </contour>
    <contour>
      <point x="688" y="492" type="line"/>
      <point x="696" y="520" type="line"/>
      <point x="361" y="520" type="line"/>
      <point x="400" y="492" type="line"/>
    </contour>
    <contour>
      <point x="273" y="-10"/>
      <point x="295" y="-5"/>
      <point x="319" y="3" type="curve"/>
      <point x="326" y="7"/>
      <point x="334" y="11"/>
      <point x="355" y="23" type="curve"/>
      <point x="451" y="75"/>
      <point x="498" y="205"/>
      <point x="498" y="320" type="curve" smooth="yes"/>
      <point x="499" y="417"/>
      <point x="462" y="485"/>
      <point x="409" y="504" type="curve"/>
      <point x="402" y="508"/>
      <point x="394" y="516"/>
      <point x="384" y="520" type="curve"/>
      <point x="366" y="526"/>
      <point x="343" y="530"/>
      <point x="318" y="530" type="curve"/>
      <point x="129" y="530"/>
      <point x="66" y="331"/>
      <point x="66" y="197" type="curve" smooth="yes"/>
      <point x="66" y="66"/>
      <point x="132" y="-10"/>
      <point x="244" y="-10" type="curve" smooth="yes"/>
    </contour>
    <contour>
      <point x="151" y="18"/>
      <point x="97" y="81"/>
      <point x="97" y="196" type="curve" smooth="yes"/>
      <point x="97" y="312"/>
      <point x="148" y="503"/>
      <point x="318" y="503" type="curve" smooth="yes"/>
      <point x="413" y="503"/>
      <point x="466" y="441"/>
      <point x="466" y="326" type="curve" smooth="yes"/>
      <point x="466" y="204"/>
      <point x="412" y="18"/>
      <point x="245" y="18" type="curve" smooth="yes"/>
    </contour>
    <contour>
      <point x="422" y="520" type="move" name="top"/>
    </contour>
    <contour>
      <point x="348" y="0" type="move" name="bottom"/>
    </contour>
  </outline>
</glyph>
<glyph name="uni0277" format="1">
  <advance width="742"/>
  <unicode hex="0277"/>
  <outline>
    <contour>
      <point x="184" y="530"/>
      <point x="62" y="390"/>
      <point x="62" y="164" type="curve" smooth="yes"/>
      <point x="62" y="43"/>
      <point x="118" y="-10"/>
      <point x="202" y="-10" type="curve" smooth="yes"/>
      <point x="269" y="-10"/>
      <point x="325" y="26"/>
      <point x="350" y="113" type="curve"/>
      <point x="350" y="28"/>
      <point x="395" y="-10"/>
      <point x="468" y="-10" type="curve" smooth="yes"/>
      <point x="614" y="-10"/>
      <point x="672" y="151"/>
      <point x="672" y="298" type="curve" smooth="yes"/>
      <point x="672" y="441"/>
      <point x="590" y="530"/>
      <point x="409" y="530" type="curve" smooth="yes"/>
    </contour>
    <contour>
      <point x="381" y="18"/>
      <point x="364" y="87"/>
      <point x="374" y="176" type="curve" smooth="yes"/>
      <point x="394" y="316" type="line"/>
      <point x="362" y="311" type="line"/>
      <point x="344" y="179" type="line" smooth="yes"/>
      <point x="327" y="59"/>
      <point x="265" y="18"/>
      <point x="204" y="18" type="curve" smooth="yes"/>
      <point x="142" y="18"/>
      <point x="93" y="52"/>
      <point x="93" y="164" type="curve" smooth="yes"/>
      <point x="93" y="369"/>
      <point x="198" y="502"/>
      <point x="407" y="502" type="curve" smooth="yes"/>
      <point x="568" y="502"/>
      <point x="641" y="427"/>
      <point x="641" y="297" type="curve" smooth="yes"/>
      <point x="641" y="170"/>
      <point x="594" y="18"/>
      <point x="467" y="18" type="curve" smooth="yes"/>
    </contour>
    <contour>
      <point x="409" y="520" type="move" name="top"/>
    </contour>
    <contour>
      <point x="332" y="0" type="move" name="bottom"/>
    </contour>
  </outline>
</glyph>
<glyph name="uni0278" format="1">
  <advance width="621"/>
  <unicode hex="0278"/>
  <outline>
    <contour>
      <point x="348" y="486" type="line"/>
      <point x="473" y="484"/>
      <point x="537" y="424"/>
      <point x="538" y="311" type="curve" smooth="yes"/>
      <point x="538" y="151"/>
      <point x="447" y="35"/>
      <point x="283" y="34" type="curve"/>
      <point x="283" y="7" type="line"/>
      <point x="465" y="9"/>
      <point x="569" y="132"/>
      <point x="568" y="311" type="curve" smooth="yes"/>
      <point x="568" y="436"/>
      <point x="493" y="511"/>
      <point x="352" y="513" type="curve"/>
    </contour>
    <contour>
      <point x="160" y="511"/>
      <point x="53" y="387"/>
      <point x="53" y="211" type="curve" smooth="yes"/>
      <point x="53" y="84"/>
      <point x="128" y="9"/>
      <point x="269" y="7" type="curve"/>
      <point x="273" y="34" type="line"/>
      <point x="149" y="35"/>
      <point x="84" y="95"/>
      <point x="84" y="211" type="curve" smooth="yes"/>
      <point x="84" y="369"/>
      <point x="175" y="484"/>
      <point x="338" y="486" type="curve"/>
      <point x="338" y="513" type="line"/>
    </contour>
    <contour>
      <point x="364" y="734" type="line"/>
      <point x="331" y="506" type="line"/>
      <point x="329" y="493" type="line"/>
      <point x="264" y="27" type="line"/>
      <point x="261" y="13" type="line"/>
      <point x="231" y="-199" type="line"/>
      <point x="261" y="-193" type="line"/>
      <point x="290" y="13" type="line"/>
      <point x="292" y="27" type="line"/>
      <point x="357" y="493" type="line"/>
      <point x="361" y="506" type="line"/>
      <point x="394" y="739" type="line"/>
    </contour>
    <contour>
      <point x="379" y="734" type="move" name="top"/>
    </contour>
    <contour>
      <point x="248" y="-193" type="move" name="bottom"/>
    </contour>
  </outline>
</glyph>
<glyph name="uni027F" format="1">
  <advance width="327"/>
  <unicode hex="027F"/>
  <outline>
    <contour>
      <point x="196" y="328" type="line"/>
      <point x="150" y="0" type="line"/>
      <point x="180" y="0" type="line"/>
      <point x="226" y="328" type="line"/>
    </contour>
    <component base="hookHELPERright" xOffset="229" yOffset="328" xScale="-1" yScale="-1"/>
    <contour>
      <point x="161" y="520" type="move" name="top"/>
    </contour>
    <contour>
      <point x="165" y="0" type="move" name="bottom"/>
    </contour>
  </outline>
</glyph>
<glyph name="uni028A" format="1">
  <advance width="562"/>
  <unicode hex="028A"/>
  <outline>
    <contour>
      <point x="400" y="-10"/>
      <point x="492" y="128"/>
      <point x="492" y="288" type="curve" smooth="yes"/>
      <point x="492" y="384"/>
      <point x="457" y="447"/>
      <point x="422" y="492" type="curve"/>
      <point x="515" y="492" type="line"/>
      <point x="519" y="520" type="line"/>
      <point x="390" y="520" type="line"/>
      <point x="387" y="493" type="line"/>
      <point x="425" y="447"/>
      <point x="461" y="382"/>
      <point x="461" y="288" type="curve" smooth="yes"/>
      <point x="461" y="148"/>
      <point x="388" y="18"/>
      <point x="245" y="18" type="curve" smooth="yes"/>
      <point x="151" y="18"/>
      <point x="95" y="75"/>
      <point x="95" y="187" type="curve" smooth="yes"/>
      <point x="95" y="311"/>
      <point x="151" y="407"/>
      <point x="242" y="491" type="curve"/>
      <point x="246" y="520" type="line"/>
      <point x="117" y="520" type="line"/>
      <point x="113" y="492" type="line"/>
      <point x="208" y="492" type="line"/>
      <point x="126" y="419"/>
      <point x="64" y="316"/>
      <point x="64" y="187" type="curve" smooth="yes"/>
      <point x="64" y="63"/>
      <point x="133" y="-10"/>
      <point x="245" y="-10" type="curve" smooth="yes"/>
    </contour>
    <contour>
      <point x="319" y="520" type="move" name="top"/>
    </contour>
    <contour>
      <point x="245" y="0" type="move" name="bottom"/>
    </contour>
  </outline>
</glyph>
<glyph name="uni028F" format="1">
  <advance width="421"/>
  <unicode hex="028F"/>
  <outline>
    <contour>
      <point x="402" y="520" type="line"/>
      <point x="207" y="238" type="line"/>
      <point x="88" y="520" type="line"/>
      <point x="57" y="520" type="line"/>
      <point x="190" y="211" type="line"/>
      <point x="160" y="0" type="line"/>
      <point x="190" y="0" type="line"/>
      <point x="220" y="212" type="line"/>
      <point x="438" y="520" type="line"/>
    </contour>
    <contour>
      <point x="248" y="520" type="move" name="top"/>
    </contour>
    <contour>
      <point x="174" y="0" type="move" name="bottom"/>
    </contour>
  </outline>
</glyph>
<glyph name="uni0297" format="1">
  <advance width="484"/>
  <unicode hex="0297"/>
  <outline>
    <contour>
      <point x="172" y="530"/>
      <point x="71" y="273"/>
      <point x="70" y="61" type="curve" smooth="yes"/>
      <point x="71" y="-103"/>
      <point x="134" y="-206"/>
      <point x="248" y="-206" type="curve" smooth="yes"/>
      <point x="301" y="-206"/>
      <point x="350" y="-186"/>
      <point x="392" y="-153" type="curve"/>
      <point x="377" y="-130" type="line"/>
      <point x="338" y="-159"/>
      <point x="295" y="-178"/>
      <point x="248" y="-178" type="curve" smooth="yes"/>
      <point x="156" y="-178"/>
      <point x="102" y="-90"/>
      <point x="102" y="61" type="curve" smooth="yes"/>
      <point x="102" y="250"/>
      <point x="189" y="502"/>
      <point x="349" y="502" type="curve" smooth="yes"/>
      <point x="395" y="502"/>
      <point x="426" y="488"/>
      <point x="455" y="460" type="curve"/>
      <point x="474" y="479" type="line"/>
      <point x="436" y="514"/>
      <point x="402" y="530"/>
      <point x="349" y="530" type="curve" smooth="yes"/>
    </contour>
    <contour>
      <point x="349" y="520" type="move" name="top"/>
    </contour>
    <contour>
      <point x="248" y="-193" type="move" name="bottom"/>
    </contour>
  </outline>
</glyph>
<glyph name="uni029A" format="1">
  <advance width="549"/>
  <unicode hex="029A"/>
  <outline>
    <contour>
      <point x="390" y="-10"/>
      <point x="483" y="140"/>
      <point x="483" y="320" type="curve" smooth="yes"/>
      <point x="483" y="454"/>
      <point x="413" y="530"/>
      <point x="292" y="530" type="curve"/>
      <point x="162" y="530"/>
      <point x="111" y="444"/>
      <point x="111" y="382" type="curve" smooth="yes"/>
      <point x="111" y="315"/>
      <point x="151" y="288"/>
      <point x="203" y="275" type="curve"/>
      <point x="106" y="268"/>
      <point x="53" y="205"/>
      <point x="53" y="130" type="curve" smooth="yes"/>
      <point x="53" y="42"/>
      <point x="122" y="-10"/>
      <point x="218" y="-10" type="curve" smooth="yes"/>
    </contour>
    <contour>
      <point x="137" y="18"/>
      <point x="84" y="57"/>
      <point x="84" y="129" type="curve" smooth="yes"/>
      <point x="84" y="191"/>
      <point x="118" y="259"/>
      <point x="261" y="259" type="curve" smooth="yes"/>
      <point x="297" y="259" type="line"/>
      <point x="305" y="286" type="line"/>
      <point x="266" y="286" type="line" smooth="yes"/>
      <point x="181" y="286"/>
      <point x="142" y="326"/>
      <point x="142" y="382" type="curve" smooth="yes"/>
      <point x="142" y="433"/>
      <point x="178" y="502"/>
      <point x="292" y="502" type="curve" smooth="yes"/>
      <point x="395" y="502"/>
      <point x="452" y="441"/>
      <point x="452" y="320" type="curve" smooth="yes"/>
      <point x="452" y="162"/>
      <point x="376" y="18"/>
      <point x="220" y="18" type="curve" smooth="yes"/>
    </contour>
    <contour>
      <point x="293" y="520" type="move" name="top"/>
    </contour>
    <contour>
      <point x="215" y="0" type="move" name="bottom"/>
    </contour>
  </outline>
</glyph>
<glyph name="uni029B" format="1">
  <advance width="550"/>
  <unicode hex="029B"/>
  <outline>
    <contour>
      <point x="168" y="532"/>
      <point x="65" y="376"/>
      <point x="66" y="201" type="curve" smooth="yes"/>
      <point x="66" y="59"/>
      <point x="143" y="-8"/>
      <point x="264" y="-8" type="curve" smooth="yes"/>
      <point x="315" y="-8"/>
      <point x="374" y="5"/>
      <point x="428" y="34" type="curve"/>
      <point x="461" y="277" type="line"/>
      <point x="304" y="277" type="line"/>
      <point x="304" y="249" type="line"/>
      <point x="425" y="249" type="line"/>
      <point x="398" y="50" type="line"/>
      <point x="359" y="31"/>
      <point x="319" y="20"/>
      <point x="264" y="20" type="curve" smooth="yes"/>
      <point x="161" y="20"/>
      <point x="96" y="75"/>
      <point x="96" y="201" type="curve" smooth="yes"/>
      <point x="96" y="359"/>
      <point x="181" y="504"/>
      <point x="331" y="504" type="curve" smooth="yes"/>
      <point x="379" y="504"/>
      <point x="419" y="490"/>
      <point x="459" y="463" type="curve"/>
      <point x="476" y="480" type="line"/>
      <point x="470" y="485"/>
      <point x="463" y="490"/>
      <point x="457" y="494" type="curve"/>
      <point x="424" y="518"/>
      <point x="382" y="532"/>
      <point x="330" y="532" type="curve" smooth="yes"/>
    </contour>
    <contour>
      <point x="523" y="738"/>
      <point x="477" y="701"/>
      <point x="466" y="622" type="curve" smooth="yes"/>
      <point x="448" y="496" type="line"/>
      <point x="476" y="480" type="line"/>
      <point x="495" y="619" type="line" smooth="yes"/>
      <point x="504" y="688"/>
      <point x="542" y="711"/>
      <point x="583" y="711" type="curve" smooth="yes"/>
      <point x="617" y="711"/>
      <point x="638" y="700"/>
      <point x="656" y="687" type="curve"/>
      <point x="673" y="706" type="line"/>
      <point x="654" y="721"/>
      <point x="627" y="738"/>
      <point x="583" y="738" type="curve" smooth="yes"/>
    </contour>
    <contour>
      <point x="342" y="734" type="move" name="top"/>
    </contour>
    <contour>
      <point x="264" y="0" type="move" name="bottom"/>
    </contour>
  </outline>
</glyph>
<glyph name="uni02A3" format="1">
  <advance width="833"/>
  <unicode hex="02A3"/>
  <outline>
    <contour>
      <point x="485" y="520" type="line"/>
      <point x="481" y="492" type="line"/>
      <point x="792" y="492" type="line"/>
      <point x="420" y="25" type="line"/>
      <point x="416" y="0" type="line"/>
      <point x="752" y="0" type="line"/>
      <point x="759" y="28" type="line"/>
      <point x="458" y="28" type="line"/>
      <point x="831" y="495" type="line"/>
      <point x="835" y="520" type="line"/>
    </contour>
    <component base="d"/>
    <contour>
      <point x="485" y="734" type="move" name="top"/>
    </contour>
    <contour>
      <point x="382" y="0" type="move" name="bottom"/>
    </contour>
  </outline>
</glyph>
<glyph name="uni02A5" format="1">
  <advance width="844"/>
  <unicode hex="02A5"/>
  <outline>
    <contour>
      <point x="476" y="520" type="line"/>
      <point x="472" y="492" type="line"/>
      <point x="793" y="492" type="line"/>
      <point x="421" y="25" type="line"/>
      <point x="417" y="0" type="line"/>
      <point x="633" y="0" type="line"/>
      <point x="640" y="28" type="line"/>
      <point x="460" y="28" type="line"/>
      <point x="832" y="495" type="line"/>
      <point x="836" y="520" type="line"/>
    </contour>
    <contour>
      <point x="636" y="-103" type="line"/>
      <point x="639" y="-71"/>
      <point x="645" y="-32"/>
      <point x="652" y="6" type="curve"/>
      <point x="654" y="16" type="line"/>
      <point x="674" y="122"/>
      <point x="716" y="169"/>
      <point x="770" y="169" type="curve" smooth="yes"/>
      <point x="806" y="169"/>
      <point x="824" y="151"/>
      <point x="824" y="116" type="curve" smooth="yes"/>
      <point x="824" y="41"/>
      <point x="745" y="24"/>
      <point x="644" y="28" type="curve"/>
      <point x="642" y="0" type="line"/>
      <point x="758" y="-2"/>
      <point x="853" y="19"/>
      <point x="853" y="117" type="curve" smooth="yes"/>
      <point x="853" y="165"/>
      <point x="821" y="196"/>
      <point x="771" y="196" type="curve" smooth="yes"/>
      <point x="699" y="196"/>
      <point x="649" y="130"/>
      <point x="629" y="29" type="curve"/>
      <point x="623" y="1" type="line"/>
      <point x="617" y="-33"/>
      <point x="611" y="-68"/>
      <point x="608" y="-101" type="curve"/>
    </contour>
    <component base="d"/>
    <contour>
      <point x="507" y="734" type="move" name="top"/>
    </contour>
  </outline>
</glyph>
<glyph name="uni02AF" format="1">
  <advance width="653"/>
  <unicode hex="02AF"/>
  <outline>
    <contour>
      <point x="507" y="0" type="line"/>
      <point x="581" y="520" type="line"/>
      <point x="551" y="520" type="line"/>
      <point x="507" y="210" type="line"/>
      <point x="447" y="96"/>
      <point x="378" y="16"/>
      <point x="292" y="16" type="curve" smooth="yes"/>
      <point x="219" y="16"/>
      <point x="189" y="60"/>
      <point x="202" y="153" type="curve" smooth="yes"/>
      <point x="227" y="331" type="line"/>
      <point x="197" y="331" type="line"/>
      <point x="172" y="151" type="line" smooth="yes"/>
      <point x="158" y="49"/>
      <point x="197" y="-10"/>
      <point x="289" y="-10" type="curve" smooth="yes"/>
      <point x="369" y="-10"/>
      <point x="446" y="49"/>
      <point x="500" y="153" type="curve"/>
      <point x="477" y="0" type="line"/>
    </contour>
    <component base="hookHELPERright" xOffset="230" yOffset="331" xScale="-1" yScale="-1"/>
    <component base="hookHELPERright" xOffset="474"/>
    <contour>
      <point x="378" y="520" type="move" name="top"/>
    </contour>
    <contour>
      <point x="260" y="-193" type="move" name="bottom"/>
    </contour>
  </outline>
</glyph>
<glyph name="uni02B1" format="1">
  <advance width="306"/>
  <unicode hex="02B1"/>
  <outline>
    <contour>
      <point x="276" y="400" type="line"/>
      <point x="302" y="586" type="line" smooth="yes"/>
      <point x="309" y="635"/>
      <point x="284" y="667"/>
      <point x="230" y="667" type="curve" smooth="yes"/>
      <point x="185" y="667"/>
      <point x="149" y="644"/>
      <point x="119" y="609" type="curve"/>
      <point x="123" y="587" type="line"/>
      <point x="151" y="619"/>
      <point x="184" y="642"/>
      <point x="226" y="642" type="curve" smooth="yes"/>
      <point x="263" y="642"/>
      <point x="279" y="625"/>
      <point x="273" y="582" type="curve" smooth="yes"/>
      <point x="248" y="400" type="line"/>
    </contour>
    <contour>
      <point x="98" y="400" type="line"/>
      <point x="134" y="661" type="line"/>
      <point x="106" y="661" type="line"/>
      <point x="70" y="400" type="line"/>
    </contour>
    <contour>
      <point x="134" y="661" type="line"/>
      <point x="140" y="702" type="line" smooth="yes"/>
      <point x="145" y="734"/>
      <point x="167" y="748"/>
      <point x="201" y="748" type="curve" smooth="yes"/>
      <point x="219" y="748"/>
      <point x="237" y="745"/>
      <point x="256" y="737" type="curve"/>
      <point x="266" y="757" type="line"/>
      <point x="245" y="766"/>
      <point x="225" y="771"/>
      <point x="199" y="771" type="curve" smooth="yes"/>
      <point x="151" y="771"/>
      <point x="118" y="747"/>
      <point x="113" y="705" type="curve" smooth="yes"/>
      <point x="106" y="661" type="line"/>
    </contour>
  </outline>
</glyph>
<glyph name="uni02B2" format="1">
  <advance width="189"/>
  <unicode hex="02B2"/>
  <outline>
    <contour>
      <point x="161" y="661" type="line"/>
      <point x="125" y="399" type="line" smooth="yes"/>
      <point x="118" y="352"/>
      <point x="99" y="336"/>
      <point x="58" y="317" type="curve"/>
      <point x="64" y="299" type="line"/>
      <point x="119" y="321"/>
      <point x="144" y="339"/>
      <point x="152" y="398" type="curve" smooth="yes"/>
      <point x="189" y="661" type="line"/>
    </contour>
    <contour>
      <point x="176" y="775"/>
      <point x="168" y="765"/>
      <point x="168" y="753" type="curve" smooth="yes"/>
      <point x="168" y="743"/>
      <point x="175" y="735"/>
      <point x="187" y="735" type="curve" smooth="yes"/>
      <point x="201" y="735"/>
      <point x="209" y="745"/>
      <point x="209" y="757" type="curve" smooth="yes"/>
      <point x="209" y="767"/>
      <point x="202" y="775"/>
      <point x="190" y="775" type="curve" smooth="yes"/>
    </contour>
  </outline>
</glyph>
<glyph name="uni02B4" format="1">
  <advance width="238"/>
  <unicode hex="02B4"/>
  <outline>
    <contour>
      <point x="141" y="395"/>
      <point x="170" y="417"/>
      <point x="195" y="464" type="curve"/>
      <point x="199" y="513" type="line"/>
      <point x="174" y="452"/>
      <point x="145" y="419"/>
      <point x="100" y="419" type="curve" smooth="yes"/>
      <point x="91" y="419"/>
      <point x="83" y="420"/>
      <point x="76" y="422" type="curve"/>
      <point x="69" y="398" type="line"/>
      <point x="76" y="396"/>
      <point x="86" y="395"/>
      <point x="99" y="395" type="curve" smooth="yes"/>
    </contour>
    <contour>
      <point x="208" y="400" type="line"/>
      <point x="244" y="661" type="line"/>
      <point x="216" y="661" type="line"/>
      <point x="193" y="495" type="line"/>
      <point x="191" y="464" type="line"/>
      <point x="184" y="400" type="line"/>
    </contour>
  </outline>
</glyph>
<glyph name="uni02BF" format="1">
  <advance width="149"/>
  <unicode hex="02BF"/>
  <outline>
    <contour>
      <point x="192" y="784" type="line"/>
      <point x="158" y="784"/>
      <point x="125" y="763"/>
      <point x="125" y="715" type="curve" smooth="yes"/>
      <point x="125" y="681"/>
      <point x="143" y="664"/>
      <point x="175" y="664" type="curve"/>
      <point x="172" y="640" type="line"/>
      <point x="132" y="640"/>
      <point x="95" y="664"/>
      <point x="95" y="714" type="curve" smooth="yes"/>
      <point x="95" y="774"/>
      <point x="140" y="808"/>
      <point x="195" y="808" type="curve"/>
    </contour>
  </outline>
</glyph>
<glyph name="uni02E0" format="1">
  <advance width="340"/>
  <unicode hex="02E0"/>
  <outline>
    <contour>
      <point x="211" y="298"/>
      <point x="232" y="319"/>
      <point x="232" y="353" type="curve" smooth="yes"/>
      <point x="232" y="376"/>
      <point x="222" y="399"/>
      <point x="209" y="426" type="curve"/>
      <point x="196" y="449" type="line"/>
      <point x="136" y="661" type="line"/>
      <point x="106" y="661" type="line"/>
      <point x="179" y="426" type="line"/>
      <point x="192" y="408" type="line"/>
      <point x="200" y="388"/>
      <point x="204" y="369"/>
      <point x="204" y="354" type="curve" smooth="yes"/>
      <point x="204" y="335"/>
      <point x="197" y="321"/>
      <point x="179" y="321" type="curve" smooth="yes"/>
      <point x="167" y="321"/>
      <point x="160" y="327"/>
      <point x="160" y="341" type="curve" smooth="yes"/>
      <point x="160" y="359"/>
      <point x="176" y="387"/>
      <point x="192" y="408" type="curve"/>
      <point x="209" y="426" type="line"/>
      <point x="346" y="661" type="line"/>
      <point x="316" y="661" type="line"/>
      <point x="196" y="449" type="line"/>
      <point x="179" y="426" type="line"/>
      <point x="151" y="389"/>
      <point x="132" y="362"/>
      <point x="132" y="338" type="curve" smooth="yes"/>
      <point x="132" y="316"/>
      <point x="148" y="298"/>
      <point x="177" y="298" type="curve" smooth="yes"/>
    </contour>
  </outline>
</glyph>
<glyph name="uni02E2" format="1">
  <advance width="307"/>
  <unicode hex="02E2"/>
  <outline>
    <contour>
      <point x="154" y="667"/>
      <point x="108" y="636"/>
      <point x="108" y="595" type="curve" smooth="yes"/>
      <point x="108" y="560"/>
      <point x="133" y="542"/>
      <point x="189" y="527" type="curve" smooth="yes"/>
      <point x="239" y="513"/>
      <point x="257" y="504"/>
      <point x="257" y="479" type="curve" smooth="yes"/>
      <point x="257" y="443"/>
      <point x="220" y="420"/>
      <point x="173" y="420" type="curve" smooth="yes"/>
      <point x="137" y="420"/>
      <point x="113" y="430"/>
      <point x="91" y="448" type="curve"/>
      <point x="74" y="429" type="line"/>
      <point x="97" y="410"/>
      <point x="126" y="395"/>
      <point x="174" y="395" type="curve" smooth="yes"/>
      <point x="236" y="395"/>
      <point x="287" y="426"/>
      <point x="287" y="480" type="curve" smooth="yes"/>
      <point x="287" y="518"/>
      <point x="259" y="535"/>
      <point x="203" y="549" type="curve" smooth="yes"/>
      <point x="154" y="562"/>
      <point x="138" y="571"/>
      <point x="138" y="595" type="curve" smooth="yes"/>
      <point x="138" y="622"/>
      <point x="168" y="642"/>
      <point x="210" y="642" type="curve" smooth="yes"/>
      <point x="239" y="642"/>
      <point x="264" y="634"/>
      <point x="285" y="619" type="curve"/>
      <point x="302" y="638" type="line"/>
      <point x="277" y="657"/>
      <point x="249" y="667"/>
      <point x="211" y="667" type="curve" smooth="yes"/>
    </contour>
  </outline>
</glyph>
<glyph name="uni02E4" format="1">
  <advance width="323"/>
  <unicode hex="02E4"/>
  <outline>
    <contour>
      <point x="241" y="571" type="line"/>
      <point x="206" y="579" type="line" smooth="yes"/>
      <point x="162" y="590"/>
      <point x="135" y="606"/>
      <point x="135" y="648" type="curve" smooth="yes"/>
      <point x="135" y="710"/>
      <point x="174" y="748"/>
      <point x="238" y="748" type="curve" smooth="yes"/>
      <point x="274" y="748"/>
      <point x="300" y="736"/>
      <point x="322" y="716" type="curve"/>
      <point x="339" y="730" type="line"/>
      <point x="312" y="756"/>
      <point x="282" y="771"/>
      <point x="238" y="771" type="curve" smooth="yes"/>
      <point x="160" y="771"/>
      <point x="106" y="720"/>
      <point x="106" y="648" type="curve" smooth="yes"/>
      <point x="106" y="589"/>
      <point x="151" y="568"/>
      <point x="195" y="558" type="curve" smooth="yes"/>
      <point x="210" y="554" type="line"/>
      <point x="189" y="400" type="line"/>
      <point x="217" y="400" type="line"/>
    </contour>
  </outline>
</glyph>
<glyph name="gravecomb" format="1">
  <advance width="251"/>
  <unicode hex="0300"/>
  <outline>
    <contour>
      <point x="97" y="735" type="line"/>
      <point x="267" y="651" type="line"/>
      <point x="279" y="671" type="line"/>
      <point x="115" y="767" type="line"/>
    </contour>
    <contour>
      <point x="190" y="767" type="move" name="top"/>
    </contour>
    <contour>
      <point x="151" y="520" type="move" name="_top"/>
    </contour>
  </outline>
</glyph>
<glyph name="acutecomb" format="1">
  <advance width="253"/>
  <unicode hex="0301"/>
  <outline>
    <contour>
      <point x="86" y="671" type="line"/>
      <point x="96" y="651" type="line"/>
      <point x="290" y="735" type="line"/>
      <point x="278" y="767" type="line"/>
    </contour>
    <contour>
      <point x="191" y="767" type="move" name="top"/>
    </contour>
    <contour>
      <point x="162" y="520" type="move" name="_top"/>
    </contour>
  </outline>
</glyph>
<glyph name="uni0307" format="1">
  <advance width="111"/>
  <unicode hex="0307"/>
  <outline>
    <contour>
      <point x="133" y="681"/>
      <point x="144" y="694"/>
      <point x="144" y="709" type="curve" smooth="yes"/>
      <point x="144" y="722"/>
      <point x="135" y="731"/>
      <point x="121" y="731" type="curve"/>
      <point x="104" y="731"/>
      <point x="93" y="718"/>
      <point x="93" y="703" type="curve" smooth="yes"/>
      <point x="93" y="690"/>
      <point x="102" y="681"/>
      <point x="116" y="681" type="curve"/>
    </contour>
    <contour>
      <point x="119" y="706" type="move" name="_center"/>
    </contour>
    <contour>
      <point x="121" y="731" type="move" name="top"/>
    </contour>
    <contour>
      <point x="92" y="520" type="move" name="_top"/>
    </contour>
  </outline>
</glyph>
<glyph name="uni0308" format="1">
  <advance width="283"/>
  <unicode hex="0308"/>
  <outline>
    <contour>
      <point x="131" y="670"/>
      <point x="142" y="683"/>
      <point x="142" y="698" type="curve" smooth="yes"/>
      <point x="142" y="711"/>
      <point x="133" y="720"/>
      <point x="119" y="720" type="curve"/>
      <point x="102" y="720"/>
      <point x="91" y="707"/>
      <point x="91" y="692" type="curve" smooth="yes"/>
      <point x="91" y="679"/>
      <point x="100" y="670"/>
      <point x="114" y="670" type="curve"/>
    </contour>
    <contour>
      <point x="303" y="670"/>
      <point x="314" y="683"/>
      <point x="314" y="698" type="curve" smooth="yes"/>
      <point x="314" y="711"/>
      <point x="305" y="720"/>
      <point x="291" y="720" type="curve"/>
      <point x="274" y="720"/>
      <point x="263" y="707"/>
      <point x="263" y="692" type="curve" smooth="yes"/>
      <point x="263" y="679"/>
      <point x="272" y="670"/>
      <point x="286" y="670" type="curve"/>
    </contour>
    <contour>
      <point x="205" y="720" type="move" name="top"/>
    </contour>
    <contour>
      <point x="178" y="520" type="move" name="_top"/>
    </contour>
  </outline>
</glyph>
<glyph name="hookabovecomb" format="1">
  <advance width="213"/>
  <unicode hex="0309"/>
  <outline>
    <contour>
      <point x="163" y="621" type="line"/>
      <point x="170" y="675" type="line"/>
      <point x="219" y="681"/>
      <point x="251" y="709"/>
      <point x="251" y="750" type="curve" smooth="yes"/>
      <point x="251" y="791"/>
      <point x="223" y="816"/>
      <point x="177" y="816" type="curve" smooth="yes"/>
      <point x="147" y="816"/>
      <point x="127" y="809"/>
      <point x="105" y="797" type="curve"/>
      <point x="116" y="774" type="line"/>
      <point x="136" y="783"/>
      <point x="149" y="789"/>
      <point x="176" y="789" type="curve" smooth="yes"/>
      <point x="204" y="789"/>
      <point x="219" y="776"/>
      <point x="219" y="750" type="curve" smooth="yes"/>
      <point x="219" y="711"/>
      <point x="183" y="696"/>
      <point x="142" y="695" type="curve"/>
      <point x="133" y="621" type="line"/>
    </contour>
    <contour>
      <point x="90" y="504" type="move" name="_topright"/>
    </contour>
    <contour>
      <point x="186" y="815" type="move" name="top"/>
    </contour>
    <contour>
      <point x="134" y="520" type="move" name="_top"/>
    </contour>
  </outline>
</glyph>
<glyph name="uni030A" format="1">
  <advance width="233"/>
  <unicode hex="030A"/>
  <outline>
    <contour>
      <point x="138" y="808"/>
      <point x="95" y="770"/>
      <point x="95" y="713" type="curve" smooth="yes"/>
      <point x="95" y="671"/>
      <point x="125" y="640"/>
      <point x="172" y="640" type="curve"/>
      <point x="226" y="640"/>
      <point x="269" y="678"/>
      <point x="269" y="736" type="curve" smooth="yes"/>
      <point x="269" y="778"/>
      <point x="239" y="808"/>
      <point x="192" y="808" type="curve"/>
    </contour>
    <contour>
      <point x="222" y="784"/>
      <point x="240" y="766"/>
      <point x="240" y="735" type="curve" smooth="yes"/>
      <point x="240" y="698"/>
      <point x="217" y="664"/>
      <point x="173" y="664" type="curve" smooth="yes"/>
      <point x="142" y="664"/>
      <point x="124" y="682"/>
      <point x="124" y="713" type="curve" smooth="yes"/>
      <point x="124" y="752"/>
      <point x="148" y="784"/>
      <point x="191" y="784" type="curve" smooth="yes"/>
    </contour>
    <contour>
      <point x="194" y="808" type="move" name="top"/>
    </contour>
    <contour>
      <point x="153" y="520" type="move" name="_top"/>
    </contour>
  </outline>
</glyph>
<glyph name="uni0312" format="1">
  <advance width="139"/>
  <unicode hex="0312"/>
  <outline>
    <component base="uni0326" xOffset="136" yOffset="502" xScale="-1" yScale="-1"/>
    <contour>
      <point x="104" y="520" type="move" name="_top"/>
    </contour>
  </outline>
</glyph>
<glyph name="uni031F" format="1">
  <advance width="286"/>
  <unicode hex="031F"/>
  <outline>
    <component base="uni208A" xOffset="-84" yOffset="-190"/>
    <contour>
      <point x="106" y="0" type="move" name="_bottom"/>
    </contour>
    <contour>
      <point x="81" y="-302" type="move" name="bottom"/>
    </contour>
  </outline>
</glyph>
<glyph name="dotbelowcomb" format="1">
  <advance width="110"/>
  <unicode hex="0323"/>
  <outline>
    <component base="uni0307" xOffset="120" yOffset="585" xScale="-1" yScale="-1"/>
    <contour>
      <point x="17" y="0" type="move" name="_bottom"/>
    </contour>
    <contour>
      <point x="0" y="-146" type="move" name="bottom"/>
    </contour>
  </outline>
</glyph>
<glyph name="uni0324" format="1">
  <advance width="282"/>
  <unicode hex="0324"/>
  <outline>
    <component base="uni0308" xOffset="-115" yOffset="-816"/>
    <contour>
      <point x="105" y="0" type="move" name="_bottom"/>
    </contour>
    <contour>
      <point x="85" y="-146" type="move" name="bottom"/>
    </contour>
  </outline>
</glyph>
<glyph name="uni0326" format="1">
  <advance width="139"/>
  <unicode hex="0326"/>
  <outline>
    <contour>
      <point x="3" y="-91"/>
      <point x="-10" y="-106"/>
      <point x="-10" y="-125" type="curve" smooth="yes"/>
      <point x="-10" y="-134"/>
      <point x="-5" y="-146"/>
      <point x="7" y="-152" type="curve"/>
      <point x="-44" y="-265" type="line"/>
      <point x="-22" y="-265" type="line"/>
      <point x="29" y="-180" type="line" smooth="yes"/>
      <point x="49" y="-146"/>
      <point x="55" y="-136"/>
      <point x="55" y="-119" type="curve" smooth="yes"/>
      <point x="55" y="-103"/>
      <point x="43" y="-91"/>
      <point x="25" y="-91" type="curve" smooth="yes"/>
    </contour>
    <contour>
      <point x="40" y="0" type="move" name="_bottom"/>
    </contour>
  </outline>
</glyph>
<glyph name="uni032D" format="1">
  <advance width="325"/>
  <unicode hex="032D"/>
  <outline>
    <contour>
      <point x="112" y="-104" type="line"/>
      <point x="219" y="-189" type="line"/>
      <point x="234" y="-171" type="line"/>
      <point x="124" y="-71" type="line"/>
      <point x="108" y="-71" type="line"/>
      <point x="-31" y="-171" type="line"/>
      <point x="-16" y="-189" type="line"/>
    </contour>
    <contour>
      <point x="126" y="0" type="move" name="_bottom"/>
    </contour>
    <contour>
      <point x="102" y="-189" type="move" name="bottom"/>
    </contour>
  </outline>
</glyph>
<glyph name="uni0332" format="1">
  <advance width="382"/>
  <unicode hex="0332"/>
  <outline>
    <contour>
      <point x="299" y="-118" type="line"/>
      <point x="-22" y="-118" type="line"/>
      <point x="-27" y="-147" type="line"/>
      <point x="295" y="-147" type="line"/>
    </contour>
    <contour>
      <point x="155" y="0" type="move" name="_bottom"/>
    </contour>
    <contour>
      <point x="138" y="-147" type="move" name="bottom"/>
    </contour>
  </outline>
</glyph>
<glyph name="uni0334" format="1">
  <advance width="458"/>
  <unicode hex="0334"/>
  <outline>
    <component base="asciitilde"/>
    <contour>
      <point x="229" y="318" type="move" name="_center"/>
    </contour>
  </outline>
</glyph>
<glyph name="uni0361" format="1">
  <advance width="363"/>
  <unicode hex="0361"/>
  <outline>
    <contour>
      <point x="96" y="631" type="line"/>
      <point x="167" y="676"/>
      <point x="275" y="751"/>
      <point x="426" y="751" type="curve" smooth="yes"/>
      <point x="575" y="751"/>
      <point x="663" y="676"/>
      <point x="720" y="631" type="curve"/>
      <point x="734" y="646" type="line"/>
      <point x="670" y="702"/>
      <point x="584" y="781"/>
      <point x="427" y="781" type="curve" smooth="yes"/>
      <point x="272" y="781"/>
      <point x="163" y="704"/>
      <point x="85" y="648" type="curve"/>
    </contour>
  </outline>
</glyph>
<glyph name="uni0372" format="1">
  <advance width="499"/>
  <unicode hex="0372"/>
  <outline>
    <contour>
      <point x="229" y="0" type="line"/>
      <point x="321" y="652" type="line"/>
      <point x="509" y="652" type="line"/>
      <point x="480" y="457" type="line"/>
      <point x="510" y="457" type="line"/>
      <point x="543" y="682" type="line"/>
      <point x="76" y="682" type="line"/>
      <point x="43" y="457" type="line"/>
      <point x="73" y="457" type="line"/>
      <point x="102" y="652" type="line"/>
      <point x="290" y="652" type="line"/>
      <point x="198" y="0" type="line"/>
    </contour>
    <contour>
      <point x="310" y="682" type="move" name="top"/>
    </contour>
    <contour>
      <point x="214" y="0" type="move" name="bottom"/>
    </contour>
  </outline>
</glyph>
<glyph name="uni0373" format="1">
  <advance width="457"/>
  <unicode hex="0373"/>
  <outline>
    <contour>
      <point x="269" y="501" type="line"/>
      <point x="239" y="501" type="line"/>
      <point x="140" y="-199" type="line"/>
      <point x="171" y="-195" type="line"/>
    </contour>
    <contour>
      <point x="56" y="490"/>
      <point x="74" y="492"/>
      <point x="129" y="492" type="curve" smooth="yes"/>
      <point x="477" y="492" type="line"/>
      <point x="482" y="520" type="line"/>
      <point x="137" y="520" type="line" smooth="yes"/>
      <point x="76" y="520"/>
      <point x="48" y="518"/>
      <point x="27" y="509" type="curve"/>
      <point x="31" y="483" type="line"/>
    </contour>
    <contour>
      <point x="265" y="520" type="move" name="top"/>
    </contour>
  </outline>
</glyph>
<glyph name="uni0377" format="1">
  <advance width="582"/>
  <unicode hex="0377"/>
  <outline>
    <contour>
      <point x="115" y="0" type="line"/>
      <point x="475" y="485" type="line"/>
      <point x="507" y="520" type="line"/>
      <point x="470" y="520" type="line"/>
      <point x="112" y="39" type="line"/>
      <point x="120" y="84"/>
      <point x="128" y="132"/>
      <point x="140" y="216" type="curve" smooth="yes"/>
      <point x="182" y="520" type="line"/>
      <point x="152" y="520" type="line"/>
      <point x="78" y="0" type="line"/>
    </contour>
    <contour>
      <point x="483" y="19" type="line"/>
      <point x="448" y="38"/>
      <point x="441" y="60"/>
      <point x="447" y="99" type="curve" smooth="yes"/>
      <point x="507" y="520" type="line"/>
      <point x="475" y="485" type="line"/>
      <point x="467" y="436"/>
      <point x="415" y="106"/>
      <point x="415" y="79" type="curve" smooth="yes"/>
      <point x="415" y="36"/>
      <point x="433" y="12"/>
      <point x="472" y="-5" type="curve"/>
    </contour>
    <contour>
      <point x="328" y="520" type="move" name="top"/>
    </contour>
    <contour>
      <point x="255" y="0" type="move" name="bottom"/>
    </contour>
  </outline>
</glyph>
<glyph name="uni037B" format="1">
  <advance width="499"/>
  <unicode hex="037B"/>
  <outline>
    <contour>
      <point x="165" y="530"/>
      <point x="124" y="515"/>
      <point x="65" y="480" type="curve"/>
      <point x="79" y="457" type="line"/>
      <point x="130" y="486"/>
      <point x="167" y="502"/>
      <point x="229" y="502" type="curve" smooth="yes"/>
      <point x="330" y="502"/>
      <point x="399" y="427"/>
      <point x="399" y="300" type="curve" smooth="yes"/>
      <point x="399" y="119"/>
      <point x="303" y="18"/>
      <point x="178" y="18" type="curve" smooth="yes"/>
      <point x="112" y="18"/>
      <point x="65" y="35"/>
      <point x="21" y="65" type="curve"/>
      <point x="4" y="44" type="line"/>
      <point x="48" y="13"/>
      <point x="106" y="-10"/>
      <point x="177" y="-10" type="curve" smooth="yes"/>
      <point x="321" y="-10"/>
      <point x="430" y="103"/>
      <point x="430" y="298" type="curve" smooth="yes"/>
      <point x="430" y="438"/>
      <point x="354" y="530"/>
      <point x="229" y="530" type="curve" smooth="yes"/>
    </contour>
    <contour>
      <point x="188" y="259" type="move" name="center"/>
    </contour>
    <contour>
      <point x="213" y="0" type="move" name="bottom"/>
    </contour>
    <contour>
      <point x="286" y="520" type="move" name="top"/>
    </contour>
  </outline>
</glyph>
<glyph name="dieresistonos" format="1">
  <advance width="283"/>
  <unicode hex="0385"/>
  <outline>
    <contour>
      <point x="98" y="690"/>
      <point x="87" y="677"/>
      <point x="87" y="662" type="curve" smooth="yes"/>
      <point x="87" y="649"/>
      <point x="96" y="640"/>
      <point x="110" y="640" type="curve"/>
      <point x="127" y="640"/>
      <point x="138" y="653"/>
      <point x="138" y="668" type="curve" smooth="yes"/>
      <point x="138" y="681"/>
      <point x="129" y="690"/>
      <point x="115" y="690" type="curve"/>
    </contour>
    <contour>
      <point x="270" y="690"/>
      <point x="259" y="677"/>
      <point x="259" y="662" type="curve" smooth="yes"/>
      <point x="259" y="649"/>
      <point x="268" y="640"/>
      <point x="282" y="640" type="curve"/>
      <point x="299" y="640"/>
      <point x="310" y="653"/>
      <point x="310" y="668" type="curve" smooth="yes"/>
      <point x="310" y="681"/>
      <point x="301" y="690"/>
      <point x="287" y="690" type="curve"/>
    </contour>
    <contour>
      <point x="193" y="704" type="line"/>
      <point x="211" y="704" type="line"/>
      <point x="239" y="823" type="line"/>
      <point x="209" y="824" type="line"/>
    </contour>
    <contour>
      <point x="179" y="520" type="move" name="_top"/>
    </contour>
  </outline>
</glyph>
<glyph name="Theta" format="1">
  <advance width="690"/>
  <unicode hex="0398"/>
  <outline>
    <contour>
      <point x="222" y="365" type="line"/>
      <point x="218" y="337" type="line"/>
      <point x="492" y="337" type="line"/>
      <point x="496" y="365" type="line"/>
    </contour>
    <contour>
      <point x="163" y="692"/>
      <point x="80" y="430"/>
      <point x="80" y="259" type="curve" smooth="yes"/>
      <point x="80" y="85"/>
      <point x="169" y="-10"/>
      <point x="309" y="-10" type="curve" smooth="yes"/>
      <point x="554" y="-10"/>
      <point x="633" y="250"/>
      <point x="633" y="426" type="curve" smooth="yes"/>
      <point x="633" y="601"/>
      <point x="544" y="692"/>
      <point x="405" y="692" type="curve" smooth="yes"/>
    </contour>
    <contour>
      <point x="526" y="664"/>
      <point x="601" y="585"/>
      <point x="601" y="426" type="curve" smooth="yes"/>
      <point x="601" y="270"/>
      <point x="538" y="19"/>
      <point x="309" y="19" type="curve" smooth="yes"/>
      <point x="189" y="19"/>
      <point x="112" y="100"/>
      <point x="112" y="258" type="curve" smooth="yes"/>
      <point x="112" y="415"/>
      <point x="182" y="664"/>
      <point x="404" y="664" type="curve"/>
    </contour>
    <contour>
      <point x="404" y="682" type="move" name="top"/>
    </contour>
    <contour>
      <point x="308" y="0" type="move" name="bottom"/>
    </contour>
  </outline>
</glyph>
<glyph name="alpha" format="1">
  <advance width="594"/>
  <unicode hex="03B1"/>
  <outline>
    <contour>
      <point x="125" y="530"/>
      <point x="64" y="320"/>
      <point x="64" y="181" type="curve" smooth="yes"/>
      <point x="64" y="53"/>
      <point x="117" y="-10"/>
      <point x="210" y="-10" type="curve" smooth="yes"/>
      <point x="304" y="-10"/>
      <point x="373" y="52"/>
      <point x="426" y="210" type="curve"/>
      <point x="427" y="66" type="line" smooth="yes"/>
      <point x="427" y="17"/>
      <point x="451" y="3"/>
      <point x="477" y="-4" type="curve"/>
      <point x="489" y="23" type="line"/>
      <point x="474" y="28"/>
      <point x="459" y="37"/>
      <point x="458" y="71" type="curve" smooth="yes"/>
      <point x="453" y="271" type="line"/>
      <point x="550" y="520" type="line"/>
      <point x="518" y="520" type="line"/>
      <point x="442" y="311" type="line"/>
      <point x="436" y="481"/>
      <point x="386" y="530"/>
      <point x="291" y="530" type="curve" smooth="yes"/>
    </contour>
    <contour>
      <point x="378" y="503"/>
      <point x="412" y="454"/>
      <point x="421" y="264" type="curve"/>
      <point x="360" y="73"/>
      <point x="288" y="18"/>
      <point x="211" y="18" type="curve" smooth="yes"/>
      <point x="135" y="18"/>
      <point x="95" y="68"/>
      <point x="95" y="181" type="curve" smooth="yes"/>
      <point x="95" y="312"/>
      <point x="150" y="503"/>
      <point x="290" y="503" type="curve" smooth="yes"/>
    </contour>
    <contour>
      <point x="304" y="520" type="move" name="top"/>
    </contour>
    <contour>
      <point x="263" y="0" type="move" name="bottom"/>
    </contour>
  </outline>
</glyph>
<glyph name="beta" format="1">
  <advance width="579"/>
  <unicode hex="03B2"/>
  <outline>
    <contour>
      <point x="82" y="-195" type="line"/>
      <point x="119" y="68" type="line"/>
      <point x="157" y="19"/>
      <point x="208" y="-10"/>
      <point x="285" y="-10" type="curve" smooth="yes"/>
      <point x="448" y="-10"/>
      <point x="515" y="117"/>
      <point x="515" y="220" type="curve" smooth="yes"/>
      <point x="515" y="332"/>
      <point x="437" y="397"/>
      <point x="329" y="398" type="curve"/>
      <point x="454" y="410"/>
      <point x="519" y="486"/>
      <point x="519" y="585" type="curve" smooth="yes"/>
      <point x="519" y="680"/>
      <point x="453" y="736"/>
      <point x="363" y="738" type="curve" smooth="yes"/>
      <point x="259" y="740"/>
      <point x="172" y="669"/>
      <point x="155" y="542" type="curve" smooth="yes"/>
      <point x="50" y="-199" type="line"/>
    </contour>
    <contour>
      <point x="214" y="18"/>
      <point x="166" y="42"/>
      <point x="124" y="104" type="curve"/>
      <point x="185" y="538" type="line" smooth="yes"/>
      <point x="202" y="656"/>
      <point x="275" y="713"/>
      <point x="363" y="711" type="curve" smooth="yes"/>
      <point x="436" y="709"/>
      <point x="488" y="668"/>
      <point x="488" y="585" type="curve" smooth="yes"/>
      <point x="488" y="491"/>
      <point x="418" y="412"/>
      <point x="284" y="412" type="curve" smooth="yes"/>
      <point x="243" y="412" type="line"/>
      <point x="236" y="385" type="line"/>
      <point x="281" y="385" type="line" smooth="yes"/>
      <point x="407" y="385"/>
      <point x="484" y="326"/>
      <point x="484" y="218" type="curve" smooth="yes"/>
      <point x="484" y="131"/>
      <point x="426" y="18"/>
      <point x="285" y="18" type="curve" smooth="yes"/>
    </contour>
    <contour>
      <point x="356" y="734" type="move" name="top"/>
    </contour>
  </outline>
</glyph>
<glyph name="gamma" format="1">
  <advance width="442"/>
  <unicode hex="03B3"/>
  <outline>
    <contour>
      <point x="48" y="517" type="line"/>
      <point x="97" y="437"/>
      <point x="135" y="299"/>
      <point x="169" y="12" type="curve"/>
      <point x="128" y="-69"/>
      <point x="123" y="-125"/>
      <point x="150" y="-199" type="curve"/>
      <point x="177" y="-193" type="line"/>
      <point x="154" y="-119"/>
      <point x="161" y="-70"/>
      <point x="200" y="8" type="curve" smooth="yes"/>
      <point x="458" y="518" type="line"/>
      <point x="428" y="525" type="line"/>
      <point x="191" y="46" type="line"/>
      <point x="163" y="329"/>
      <point x="119" y="454"/>
      <point x="77" y="524" type="curve"/>
    </contour>
    <contour>
      <point x="256" y="520" type="move" name="top"/>
    </contour>
  </outline>
</glyph>
<glyph name="delta" format="1">
  <advance width="559"/>
  <unicode hex="03B4"/>
  <outline>
    <contour>
      <point x="233" y="738"/>
      <point x="173" y="676"/>
      <point x="173" y="605" type="curve" smooth="yes"/>
      <point x="173" y="550"/>
      <point x="205" y="516"/>
      <point x="271" y="485" type="curve"/>
      <point x="112" y="426"/>
      <point x="64" y="315"/>
      <point x="64" y="189" type="curve" smooth="yes"/>
      <point x="64" y="67"/>
      <point x="131" y="-10"/>
      <point x="245" y="-10" type="curve" smooth="yes"/>
      <point x="436" y="-10"/>
      <point x="489" y="175"/>
      <point x="489" y="287" type="curve" smooth="yes"/>
      <point x="489" y="391"/>
      <point x="437" y="447"/>
      <point x="323" y="492" type="curve" smooth="yes"/>
      <point x="234" y="527"/>
      <point x="204" y="558"/>
      <point x="204" y="605" type="curve" smooth="yes"/>
      <point x="204" y="659"/>
      <point x="244" y="710"/>
      <point x="346" y="710" type="curve" smooth="yes"/>
      <point x="399" y="710"/>
      <point x="441" y="694"/>
      <point x="479" y="663" type="curve"/>
      <point x="499" y="682" type="line"/>
      <point x="458" y="718"/>
      <point x="402" y="738"/>
      <point x="347" y="738" type="curve" smooth="yes"/>
    </contour>
    <contour>
      <point x="415" y="427"/>
      <point x="459" y="380"/>
      <point x="459" y="287" type="curve" smooth="yes"/>
      <point x="459" y="195"/>
      <point x="418" y="18"/>
      <point x="246" y="18" type="curve" smooth="yes"/>
      <point x="150" y="18"/>
      <point x="94" y="84"/>
      <point x="94" y="189" type="curve" smooth="yes"/>
      <point x="94" y="306"/>
      <point x="135" y="412"/>
      <point x="300" y="473" type="curve"/>
    </contour>
    <contour>
      <point x="347" y="734" type="move" name="top"/>
    </contour>
    <contour>
      <point x="243" y="0" type="move" name="bottom"/>
    </contour>
  </outline>
</glyph>
<glyph name="epsilon" format="1">
  <advance width="461"/>
  <unicode hex="03B5"/>
  <outline>
    <contour>
      <point x="296" y="-10"/>
      <point x="350" y="16"/>
      <point x="397" y="52" type="curve"/>
      <point x="381" y="74" type="line"/>
      <point x="332" y="39"/>
      <point x="293" y="18"/>
      <point x="218" y="18" type="curve" smooth="yes"/>
      <point x="137" y="18"/>
      <point x="84" y="57"/>
      <point x="84" y="129" type="curve" smooth="yes"/>
      <point x="84" y="191"/>
      <point x="118" y="259"/>
      <point x="261" y="259" type="curve" smooth="yes"/>
      <point x="317" y="259" type="line"/>
      <point x="325" y="286" type="line"/>
      <point x="266" y="286" type="line" smooth="yes"/>
      <point x="181" y="286"/>
      <point x="142" y="326"/>
      <point x="142" y="382" type="curve" smooth="yes"/>
      <point x="142" y="434"/>
      <point x="178" y="503"/>
      <point x="295" y="503" type="curve" smooth="yes"/>
      <point x="352" y="503"/>
      <point x="390" y="487"/>
      <point x="423" y="463" type="curve"/>
      <point x="443" y="483" type="line"/>
      <point x="408" y="509"/>
      <point x="365" y="530"/>
      <point x="295" y="530" type="curve" smooth="yes"/>
      <point x="163" y="530"/>
      <point x="111" y="446"/>
      <point x="111" y="382" type="curve" smooth="yes"/>
      <point x="111" y="315"/>
      <point x="151" y="288"/>
      <point x="203" y="275" type="curve"/>
      <point x="106" y="268"/>
      <point x="53" y="205"/>
      <point x="53" y="130" type="curve" smooth="yes"/>
      <point x="53" y="41"/>
      <point x="121" y="-10"/>
      <point x="218" y="-10" type="curve" smooth="yes"/>
    </contour>
    <contour>
      <point x="291" y="520" type="move" name="top"/>
    </contour>
    <contour>
      <point x="212" y="0" type="move" name="bottom"/>
    </contour>
  </outline>
</glyph>
<glyph name="theta" format="1">
  <advance width="558"/>
  <unicode hex="03B8"/>
  <outline>
    <contour>
      <point x="150" y="738"/>
      <point x="77" y="475"/>
      <point x="77" y="225" type="curve" smooth="yes"/>
      <point x="77" y="75"/>
      <point x="131" y="-10"/>
      <point x="243" y="-10" type="curve" smooth="yes"/>
      <point x="426" y="-10"/>
      <point x="511" y="247"/>
      <point x="511" y="500" type="curve" smooth="yes"/>
      <point x="511" y="653"/>
      <point x="461" y="738"/>
      <point x="347" y="738" type="curve" smooth="yes"/>
    </contour>
    <contour>
      <point x="445" y="156"/>
      <point x="364" y="18"/>
      <point x="244" y="18" type="curve" smooth="yes"/>
      <point x="151" y="18"/>
      <point x="107" y="92"/>
      <point x="107" y="225" type="curve" smooth="yes"/>
      <point x="107" y="263"/>
      <point x="110" y="306"/>
      <point x="115" y="355" type="curve"/>
      <point x="469" y="355" type="line"/>
    </contour>
    <contour>
      <point x="439" y="711"/>
      <point x="481" y="643"/>
      <point x="481" y="500" type="curve" smooth="yes"/>
      <point x="481" y="472"/>
      <point x="478" y="429"/>
      <point x="474" y="382" type="curve"/>
      <point x="119" y="382" type="line"/>
      <point x="145" y="591"/>
      <point x="228" y="711"/>
      <point x="346" y="711" type="curve" smooth="yes"/>
    </contour>
    <contour>
      <point x="346" y="734" type="move" name="top"/>
    </contour>
    <contour>
      <point x="243" y="0" type="move" name="bottom"/>
    </contour>
  </outline>
</glyph>
<glyph name="nu" format="1">
  <advance width="442"/>
  <unicode hex="03BD"/>
  <outline>
    <contour>
      <point x="48" y="517" type="line"/>
      <point x="97" y="434"/>
      <point x="135" y="293"/>
      <point x="161" y="0" type="curve"/>
      <point x="203" y="0" type="line"/>
      <point x="458" y="518" type="line"/>
      <point x="428" y="525" type="line"/>
      <point x="186" y="26" type="line"/>
      <point x="164" y="315"/>
      <point x="120" y="451"/>
      <point x="78" y="524" type="curve"/>
    </contour>
    <contour>
      <point x="256" y="520" type="move" name="top"/>
    </contour>
    <contour>
      <point x="183" y="0" type="move" name="bottom"/>
    </contour>
  </outline>
</glyph>
<glyph name="xi" format="1">
  <advance width="412"/>
  <unicode hex="03BE"/>
  <outline>
    <contour>
      <point x="327" y="-151"/>
      <point x="357" y="-102"/>
      <point x="357" y="-54" type="curve" smooth="yes"/>
      <point x="357" y="4"/>
      <point x="323" y="30"/>
      <point x="216" y="70" type="curve" smooth="yes"/>
      <point x="129" y="102"/>
      <point x="88" y="137"/>
      <point x="88" y="228" type="curve" smooth="yes"/>
      <point x="88" y="313"/>
      <point x="134" y="429"/>
      <point x="297" y="429" type="curve" smooth="yes"/>
      <point x="351" y="429" type="line"/>
      <point x="359" y="456" type="line"/>
      <point x="306" y="456" type="line" smooth="yes"/>
      <point x="222" y="456"/>
      <point x="174" y="501"/>
      <point x="174" y="569" type="curve" smooth="yes"/>
      <point x="174" y="646"/>
      <point x="226" y="711"/>
      <point x="331" y="711" type="curve" smooth="yes"/>
      <point x="382" y="711"/>
      <point x="423" y="696"/>
      <point x="459" y="669" type="curve"/>
      <point x="477" y="689" type="line"/>
      <point x="439" y="719"/>
      <point x="391" y="738"/>
      <point x="332" y="738" type="curve" smooth="yes"/>
      <point x="220" y="738"/>
      <point x="144" y="672"/>
      <point x="144" y="567" type="curve" smooth="yes"/>
      <point x="144" y="503"/>
      <point x="181" y="459"/>
      <point x="243" y="445" type="curve"/>
      <point x="111" y="428"/>
      <point x="58" y="326"/>
      <point x="58" y="228" type="curve" smooth="yes"/>
      <point x="58" y="127"/>
      <point x="102" y="85"/>
      <point x="198" y="47" type="curve" smooth="yes"/>
      <point x="303" y="6"/>
      <point x="325" y="-11"/>
      <point x="325" y="-53" type="curve" smooth="yes"/>
      <point x="325" y="-94"/>
      <point x="296" y="-137"/>
      <point x="204" y="-177" type="curve"/>
      <point x="215" y="-199" type="line"/>
    </contour>
    <contour>
      <point x="273" y="734" type="move" name="top"/>
    </contour>
  </outline>
</glyph>
<glyph name="pi" format="1">
  <advance width="576"/>
  <unicode hex="03C0"/>
  <outline>
    <contour>
      <point x="131" y="0" type="line"/>
      <point x="201" y="499" type="line"/>
      <point x="171" y="499" type="line"/>
      <point x="101" y="0" type="line"/>
    </contour>
    <contour>
      <point x="453" y="19" type="line"/>
      <point x="421" y="35"/>
      <point x="410" y="53"/>
      <point x="418" y="109" type="curve" smooth="yes"/>
      <point x="473" y="499" type="line"/>
      <point x="443" y="499" type="line"/>
      <point x="388" y="111" type="line" smooth="yes"/>
      <point x="379" y="44"/>
      <point x="393" y="15"/>
      <point x="442" y="-5" type="curve"/>
    </contour>
    <contour>
      <point x="113" y="491"/>
      <point x="132" y="492"/>
      <point x="173" y="492" type="curve" smooth="yes"/>
      <point x="561" y="492" type="line"/>
      <point x="566" y="520" type="line"/>
      <point x="183" y="520" type="line" smooth="yes"/>
      <point x="132" y="520"/>
      <point x="108" y="518"/>
      <point x="73" y="509" type="curve"/>
      <point x="77" y="483" type="line"/>
    </contour>
    <contour>
      <point x="323" y="520" type="move" name="top"/>
    </contour>
    <contour>
      <point x="250" y="0" type="move" name="bottom"/>
    </contour>
  </outline>
</glyph>
<glyph name="uni03C2" format="1">
  <advance width="452"/>
  <unicode hex="03C2"/>
  <outline>
    <contour>
      <point x="325" y="-151"/>
      <point x="355" y="-102"/>
      <point x="355" y="-54" type="curve" smooth="yes"/>
      <point x="355" y="4"/>
      <point x="321" y="30"/>
      <point x="223" y="67" type="curve" smooth="yes"/>
      <point x="145" y="96"/>
      <point x="99" y="135"/>
      <point x="99" y="225" type="curve" smooth="yes"/>
      <point x="99" y="328"/>
      <point x="155" y="503"/>
      <point x="315" y="503" type="curve" smooth="yes"/>
      <point x="364" y="503"/>
      <point x="401" y="488"/>
      <point x="433" y="460" type="curve"/>
      <point x="452" y="479" type="line"/>
      <point x="411" y="514"/>
      <point x="370" y="530"/>
      <point x="314" y="530" type="curve" smooth="yes"/>
      <point x="132" y="530"/>
      <point x="69" y="338"/>
      <point x="69" y="227" type="curve" smooth="yes"/>
      <point x="69" y="126"/>
      <point x="113" y="80"/>
      <point x="205" y="44" type="curve" smooth="yes"/>
      <point x="301" y="6"/>
      <point x="323" y="-11"/>
      <point x="323" y="-53" type="curve" smooth="yes"/>
      <point x="323" y="-94"/>
      <point x="294" y="-137"/>
      <point x="202" y="-177" type="curve"/>
      <point x="213" y="-199" type="line"/>
    </contour>
    <contour>
      <point x="263" y="520" type="move" name="top"/>
    </contour>
  </outline>
</glyph>
<glyph name="sigma" format="1">
  <advance width="569"/>
  <unicode hex="03C3"/>
  <outline>
    <contour>
      <point x="432" y="-10"/>
      <point x="496" y="188"/>
      <point x="496" y="318" type="curve" smooth="yes"/>
      <point x="496" y="408"/>
      <point x="463" y="470"/>
      <point x="412" y="503" type="curve"/>
      <point x="545" y="495" type="line"/>
      <point x="548" y="520" type="line"/>
      <point x="497" y="523"/>
      <point x="399" y="528"/>
      <point x="355" y="528" type="curve" smooth="yes"/>
      <point x="123" y="528"/>
      <point x="66" y="329"/>
      <point x="66" y="197" type="curve" smooth="yes"/>
      <point x="66" y="66"/>
      <point x="132" y="-10"/>
      <point x="245" y="-10" type="curve" smooth="yes"/>
    </contour>
    <contour>
      <point x="151" y="18"/>
      <point x="97" y="81"/>
      <point x="97" y="196" type="curve" smooth="yes"/>
      <point x="97" y="316"/>
      <point x="150" y="505"/>
      <point x="363" y="505" type="curve" smooth="yes"/>
      <point x="372" y="505" type="line"/>
      <point x="427" y="473"/>
      <point x="465" y="413"/>
      <point x="465" y="318" type="curve" smooth="yes"/>
      <point x="465" y="209"/>
      <point x="416" y="18"/>
      <point x="245" y="18" type="curve" smooth="yes"/>
    </contour>
    <contour>
      <point x="322" y="520" type="move" name="top"/>
    </contour>
    <contour>
      <point x="248" y="0" type="move" name="bottom"/>
    </contour>
  </outline>
</glyph>
<glyph name="tau" format="1">
  <advance width="423"/>
  <unicode hex="03C4"/>
  <outline>
    <contour>
      <point x="231" y="19" type="line"/>
      <point x="199" y="35"/>
      <point x="188" y="53"/>
      <point x="196" y="109" type="curve" smooth="yes"/>
      <point x="251" y="499" type="line"/>
      <point x="221" y="499" type="line"/>
      <point x="166" y="111" type="line" smooth="yes"/>
      <point x="157" y="44"/>
      <point x="171" y="14"/>
      <point x="220" y="-5" type="curve"/>
    </contour>
    <contour>
      <point x="56" y="490"/>
      <point x="74" y="492"/>
      <point x="129" y="492" type="curve" smooth="yes"/>
      <point x="443" y="492" type="line"/>
      <point x="448" y="520" type="line"/>
      <point x="137" y="520" type="line" smooth="yes"/>
      <point x="76" y="520"/>
      <point x="48" y="518"/>
      <point x="27" y="509" type="curve"/>
      <point x="31" y="483" type="line"/>
    </contour>
    <contour>
      <point x="248" y="520" type="move" name="top"/>
    </contour>
    <contour>
      <point x="175" y="0" type="move" name="bottom"/>
    </contour>
  </outline>
</glyph>
<glyph name="chi" format="1">
  <advance width="414"/>
  <unicode hex="03C7"/>
  <outline>
    <contour>
      <point x="36" y="517" type="line"/>
      <point x="85" y="448"/>
      <point x="120" y="366"/>
      <point x="175" y="183" type="curve"/>
      <point x="189" y="157" type="line"/>
      <point x="306" y="-197" type="line"/>
      <point x="336" y="-188" type="line"/>
      <point x="208" y="182" type="line"/>
      <point x="194" y="206" type="line"/>
      <point x="146" y="383"/>
      <point x="110" y="459"/>
      <point x="65" y="526" type="curve"/>
    </contour>
    <contour>
      <point x="194" y="206" type="line"/>
      <point x="175" y="183" type="line"/>
      <point x="-62" y="-192" type="line"/>
      <point x="-31" y="-196" type="line"/>
      <point x="189" y="157" type="line"/>
      <point x="208" y="182" type="line"/>
      <point x="413" y="520" type="line"/>
      <point x="382" y="523" type="line"/>
    </contour>
    <contour>
      <point x="244" y="520" type="move" name="top"/>
    </contour>
  </outline>
</glyph>
<glyph name="psi" format="1">
  <advance width="752"/>
  <unicode hex="03C8"/>
  <outline>
    <contour>
      <point x="670" y="453"/>
      <point x="668" y="490"/>
      <point x="665" y="520" type="curve"/>
      <point x="635" y="520" type="line"/>
      <point x="638" y="490"/>
      <point x="640" y="453"/>
      <point x="640" y="412" type="curve" smooth="yes"/>
      <point x="640" y="198"/>
      <point x="602" y="26"/>
      <point x="359" y="17" type="curve"/>
      <point x="430" y="520" type="line"/>
      <point x="400" y="520" type="line"/>
      <point x="329" y="17" type="line"/>
      <point x="182" y="19"/>
      <point x="115" y="75"/>
      <point x="134" y="211" type="curve" smooth="yes"/>
      <point x="178" y="520" type="line"/>
      <point x="148" y="520" type="line"/>
      <point x="104" y="214" type="line" smooth="yes"/>
      <point x="82" y="61"/>
      <point x="163" y="-8"/>
      <point x="325" y="-10" type="curve"/>
      <point x="298" y="-199" type="line"/>
      <point x="329" y="-195" type="line"/>
      <point x="355" y="-10" type="line"/>
      <point x="626" y="2"/>
      <point x="670" y="179"/>
      <point x="670" y="412" type="curve" smooth="yes"/>
    </contour>
    <contour>
      <point x="417" y="520" type="move" name="top"/>
    </contour>
  </outline>
</glyph>
<glyph name="uni03D7" format="1">
  <advance width="575"/>
  <unicode hex="03D7"/>
  <outline>
    <contour>
      <point x="468" y="487" type="line"/>
      <point x="500" y="520" type="line"/>
      <point x="467" y="530" type="line"/>
      <point x="107" y="36" type="line"/>
      <point x="75" y="3" type="line"/>
      <point x="107" y="-6" type="line"/>
    </contour>
    <contour>
      <point x="476" y="19" type="line"/>
      <point x="441" y="38"/>
      <point x="434" y="60"/>
      <point x="440" y="99" type="curve" smooth="yes"/>
      <point x="500" y="520" type="line"/>
      <point x="468" y="487" type="line"/>
      <point x="460" y="438"/>
      <point x="408" y="106"/>
      <point x="408" y="79" type="curve" smooth="yes"/>
      <point x="408" y="36"/>
      <point x="426" y="14"/>
      <point x="465" y="-3" type="curve"/>
    </contour>
    <contour>
      <point x="402" y="-199"/>
      <point x="451" y="-163"/>
      <point x="462" y="-83" type="curve" smooth="yes"/>
      <point x="476" y="19" type="line"/>
      <point x="446" y="19" type="line"/>
      <point x="432" y="-80" type="line" smooth="yes"/>
      <point x="422" y="-150"/>
      <point x="384" y="-172"/>
      <point x="343" y="-172" type="curve" smooth="yes"/>
      <point x="310" y="-172"/>
      <point x="290" y="-162"/>
      <point x="272" y="-148" type="curve"/>
      <point x="255" y="-167" type="line"/>
      <point x="274" y="-183"/>
      <point x="301" y="-199"/>
      <point x="343" y="-199" type="curve" smooth="yes"/>
    </contour>
    <contour>
      <point x="99" y="504" type="line"/>
      <point x="134" y="485"/>
      <point x="141" y="463"/>
      <point x="135" y="424" type="curve" smooth="yes"/>
      <point x="75" y="3" type="line"/>
      <point x="107" y="36" type="line"/>
      <point x="115" y="85"/>
      <point x="167" y="417"/>
      <point x="167" y="444" type="curve" smooth="yes"/>
      <point x="167" y="487"/>
      <point x="149" y="511"/>
      <point x="110" y="528" type="curve"/>
    </contour>
    <contour>
      <point x="323" y="520" type="move" name="top"/>
    </contour>
  </outline>
</glyph>
<glyph name="uni03DA" format="1">
  <advance width="546"/>
  <unicode hex="03DA"/>
  <outline>
    <contour>
      <point x="391" y="-158"/>
      <point x="436" y="-114"/>
      <point x="436" y="-57" type="curve" smooth="yes"/>
      <point x="436" y="4"/>
      <point x="387" y="21"/>
      <point x="287" y="71" type="curve" smooth="yes"/>
      <point x="183" y="123"/>
      <point x="119" y="175"/>
      <point x="119" y="322" type="curve" smooth="yes"/>
      <point x="119" y="506"/>
      <point x="233" y="652"/>
      <point x="451" y="652" type="curve" smooth="yes"/>
      <point x="573" y="652" type="line"/>
      <point x="581" y="682" type="line"/>
      <point x="451" y="682" type="line" smooth="yes"/>
      <point x="217" y="682"/>
      <point x="87" y="523"/>
      <point x="87" y="323" type="curve" smooth="yes"/>
      <point x="87" y="162"/>
      <point x="168" y="98"/>
      <point x="273" y="47" type="curve" smooth="yes"/>
      <point x="372" y="2"/>
      <point x="406" y="-14"/>
      <point x="406" y="-59" type="curve" smooth="yes"/>
      <point x="406" y="-111"/>
      <point x="346" y="-150"/>
      <point x="284" y="-177" type="curve"/>
      <point x="295" y="-199" type="line"/>
    </contour>
    <contour>
      <point x="332" y="682" type="move" name="top"/>
    </contour>
  </outline>
</glyph>
<glyph name="uni03DB" format="1">
  <advance width="439"/>
  <unicode hex="03DB"/>
  <outline>
    <contour>
      <point x="294" y="-164"/>
      <point x="356" y="-118"/>
      <point x="356" y="-51" type="curve" smooth="yes"/>
      <point x="356" y="3"/>
      <point x="325" y="22"/>
      <point x="238" y="58" type="curve" smooth="yes"/>
      <point x="151" y="94"/>
      <point x="101" y="138"/>
      <point x="101" y="240" type="curve" smooth="yes"/>
      <point x="101" y="347"/>
      <point x="156" y="410"/>
      <point x="278" y="443" type="curve" smooth="yes"/>
      <point x="365" y="467"/>
      <point x="436" y="461"/>
      <point x="451" y="568" type="curve"/>
      <point x="424" y="573" type="line"/>
      <point x="411" y="484"/>
      <point x="354" y="494"/>
      <point x="264" y="469" type="curve" smooth="yes"/>
      <point x="135" y="433"/>
      <point x="70" y="359"/>
      <point x="70" y="241" type="curve" smooth="yes"/>
      <point x="70" y="121"/>
      <point x="133" y="71"/>
      <point x="219" y="36" type="curve" smooth="yes"/>
      <point x="282" y="10"/>
      <point x="324" y="-4"/>
      <point x="324" y="-50" type="curve" smooth="yes"/>
      <point x="324" y="-111"/>
      <point x="268" y="-148"/>
      <point x="203" y="-177" type="curve"/>
      <point x="214" y="-199" type="line"/>
    </contour>
    <contour>
      <point x="257" y="520" type="move" name="top"/>
    </contour>
  </outline>
</glyph>
<glyph name="uni03DE" format="1">
  <advance width="443"/>
  <unicode hex="03DE"/>
  <outline>
    <contour>
      <point x="184" y="0" type="line"/>
      <point x="423" y="330" type="line"/>
      <point x="391" y="336" type="line"/>
      <point x="147" y="0" type="line"/>
    </contour>
    <contour>
      <point x="423" y="330" type="line"/>
      <point x="413" y="360" type="line"/>
      <point x="44" y="360" type="line"/>
      <point x="54" y="330" type="line"/>
    </contour>
    <contour>
      <point x="316" y="682" type="line"/>
      <point x="279" y="682" type="line"/>
      <point x="44" y="360" type="line"/>
      <point x="76" y="354" type="line"/>
    </contour>
    <contour>
      <point x="278" y="682" type="move" name="top"/>
    </contour>
    <contour>
      <point x="182" y="0" type="move" name="bottom"/>
    </contour>
  </outline>
</glyph>
<glyph name="uni03DF" format="1">
  <advance width="408"/>
  <unicode hex="03DF"/>
  <outline>
    <contour>
      <point x="235" y="679"/>
      <point x="223" y="644"/>
      <point x="162" y="546" type="curve" smooth="yes"/>
      <point x="31" y="335" type="line"/>
      <point x="40" y="308" type="line"/>
      <point x="369" y="399" type="line"/>
      <point x="247" y="203" type="line" smooth="yes"/>
      <point x="189" y="107"/>
      <point x="171" y="67"/>
      <point x="154" y="-3" type="curve"/>
      <point x="183" y="-9" type="line"/>
      <point x="199" y="50"/>
      <point x="212" y="88"/>
      <point x="272" y="186" type="curve" smooth="yes"/>
      <point x="409" y="410" type="line"/>
      <point x="400" y="437" type="line"/>
      <point x="72" y="346" type="line"/>
      <point x="187" y="529" type="line" smooth="yes"/>
      <point x="247" y="624"/>
      <point x="262" y="662"/>
      <point x="280" y="735" type="curve"/>
      <point x="251" y="741" type="line"/>
    </contour>
    <contour>
      <point x="272" y="734" type="move" name="top"/>
    </contour>
    <contour>
      <point x="168" y="0" type="move" name="bottom"/>
    </contour>
  </outline>
</glyph>
<glyph name="uni03F0" format="1">
  <advance width="575"/>
  <unicode hex="03F0"/>
  <outline>
    <contour>
      <point x="468" y="487" type="line"/>
      <point x="500" y="520" type="line"/>
      <point x="467" y="530" type="line"/>
      <point x="107" y="36" type="line"/>
      <point x="75" y="3" type="line"/>
      <point x="107" y="-6" type="line"/>
    </contour>
    <contour>
      <point x="99" y="504" type="line"/>
      <point x="134" y="485"/>
      <point x="141" y="463"/>
      <point x="135" y="424" type="curve" smooth="yes"/>
      <point x="75" y="3" type="line"/>
      <point x="107" y="36" type="line"/>
      <point x="115" y="85"/>
      <point x="167" y="417"/>
      <point x="167" y="444" type="curve" smooth="yes"/>
      <point x="167" y="487"/>
      <point x="149" y="511"/>
      <point x="110" y="528" type="curve"/>
    </contour>
    <contour>
      <point x="476" y="19" type="line"/>
      <point x="441" y="38"/>
      <point x="434" y="60"/>
      <point x="440" y="99" type="curve" smooth="yes"/>
      <point x="500" y="520" type="line"/>
      <point x="468" y="487" type="line"/>
      <point x="460" y="438"/>
      <point x="408" y="106"/>
      <point x="408" y="79" type="curve" smooth="yes"/>
      <point x="408" y="36"/>
      <point x="426" y="12"/>
      <point x="465" y="-5" type="curve"/>
    </contour>
    <contour>
      <point x="325" y="520" type="move" name="top"/>
    </contour>
    <contour>
      <point x="252" y="0" type="move" name="bottom"/>
    </contour>
  </outline>
</glyph>
<glyph name="uni03F2" format="1">
  <advance width="502"/>
  <unicode hex="03F2"/>
  <outline>
    <contour>
      <point x="172" y="530"/>
      <point x="66" y="376"/>
      <point x="66" y="202" type="curve" smooth="yes"/>
      <point x="66" y="59"/>
      <point x="147" y="-10"/>
      <point x="270" y="-10" type="curve" smooth="yes"/>
      <point x="336" y="-10"/>
      <point x="388" y="11"/>
      <point x="438" y="44" type="curve"/>
      <point x="423" y="66" type="line"/>
      <point x="376" y="36"/>
      <point x="331" y="18"/>
      <point x="268" y="18" type="curve" smooth="yes"/>
      <point x="168" y="18"/>
      <point x="97" y="70"/>
      <point x="97" y="202" type="curve" smooth="yes"/>
      <point x="97" y="354"/>
      <point x="186" y="502"/>
      <point x="344" y="502" type="curve" smooth="yes"/>
      <point x="398" y="502"/>
      <point x="436" y="487"/>
      <point x="473" y="459" type="curve"/>
      <point x="492" y="480" type="line"/>
      <point x="446" y="515"/>
      <point x="404" y="530"/>
      <point x="343" y="530" type="curve" smooth="yes"/>
    </contour>
    <contour>
      <point x="308" y="259" type="move" name="center"/>
    </contour>
    <contour>
      <point x="215" y="0" type="move" name="bottom"/>
    </contour>
    <contour>
      <point x="288" y="520" type="move" name="top"/>
    </contour>
  </outline>
</glyph>
<glyph name="uni03F9" format="1">
  <advance width="561"/>
  <unicode hex="03F9"/>
  <outline>
    <contour>
      <point x="166" y="692"/>
      <point x="80" y="440"/>
      <point x="80" y="259" type="curve" smooth="yes"/>
      <point x="80" y="83"/>
      <point x="173" y="-10"/>
      <point x="315" y="-10" type="curve" smooth="yes"/>
      <point x="402" y="-10"/>
      <point x="459" y="16"/>
      <point x="508" y="54" type="curve"/>
      <point x="490" y="78" type="line"/>
      <point x="445" y="44"/>
      <point x="402" y="20"/>
      <point x="316" y="20" type="curve" smooth="yes"/>
      <point x="192" y="20"/>
      <point x="111" y="99"/>
      <point x="111" y="260" type="curve" smooth="yes"/>
      <point x="111" y="425"/>
      <point x="187" y="663"/>
      <point x="414" y="663" type="curve" smooth="yes"/>
      <point x="484" y="663"/>
      <point x="519" y="648"/>
      <point x="561" y="612" type="curve"/>
      <point x="580" y="633" type="line"/>
      <point x="540" y="669"/>
      <point x="497" y="692"/>
      <point x="413" y="692" type="curve" smooth="yes"/>
    </contour>
    <contour>
      <point x="360" y="344" type="move" name="center"/>
    </contour>
    <contour>
      <point x="249" y="0" type="move" name="bottom"/>
    </contour>
    <contour>
      <point x="345" y="682" type="move" name="top"/>
    </contour>
  </outline>
</glyph>
<glyph name="uni03FB" format="1">
  <advance width="651"/>
  <unicode hex="03FB"/>
  <outline>
    <contour>
      <point x="531" y="520" type="line"/>
      <point x="303" y="104" type="line"/>
      <point x="196" y="520" type="line"/>
      <point x="159" y="520" type="line"/>
      <point x="-5" y="-199" type="line"/>
      <point x="26" y="-193" type="line"/>
      <point x="148" y="350" type="line"/>
      <point x="164" y="421"/>
      <point x="168" y="437"/>
      <point x="177" y="488" type="curve"/>
      <point x="285" y="70" type="line"/>
      <point x="314" y="70" type="line"/>
      <point x="539" y="483" type="line"/>
      <point x="537" y="444"/>
      <point x="534" y="408"/>
      <point x="531" y="352" type="curve" smooth="yes"/>
      <point x="509" y="0" type="line"/>
      <point x="539" y="0" type="line"/>
      <point x="568" y="520" type="line"/>
    </contour>
    <contour>
      <point x="363" y="520" type="move" name="top"/>
    </contour>
  </outline>
</glyph>
<glyph name="uni0404" format="1">
  <advance width="552"/>
  <unicode hex="0404"/>
  <outline>
    <contour>
      <point x="382" y="-10"/>
      <point x="439" y="16"/>
      <point x="488" y="54" type="curve"/>
      <point x="470" y="78" type="line"/>
      <point x="425" y="44"/>
      <point x="382" y="20"/>
      <point x="306" y="20" type="curve" smooth="yes"/>
      <point x="192" y="20"/>
      <point x="111" y="99"/>
      <point x="111" y="260" type="curve" smooth="yes"/>
      <point x="111" y="425"/>
      <point x="187" y="663"/>
      <point x="404" y="663" type="curve" smooth="yes"/>
      <point x="464" y="663"/>
      <point x="499" y="648"/>
      <point x="541" y="612" type="curve"/>
      <point x="560" y="633" type="line"/>
      <point x="520" y="669"/>
      <point x="477" y="692"/>
      <point x="403" y="692" type="curve" smooth="yes"/>
      <point x="166" y="692"/>
      <point x="80" y="440"/>
      <point x="80" y="259" type="curve" smooth="yes"/>
      <point x="80" y="83"/>
      <point x="173" y="-10"/>
      <point x="305" y="-10" type="curve" smooth="yes"/>
    </contour>
    <contour>
      <point x="402" y="341" type="line"/>
      <point x="406" y="370" type="line"/>
      <point x="116" y="370" type="line"/>
      <point x="112" y="341" type="line"/>
    </contour>
    <contour>
      <point x="335" y="682" type="move" name="top"/>
    </contour>
    <contour>
      <point x="239" y="0" type="move" name="bottom"/>
    </contour>
  </outline>
</glyph>
<glyph name="uni040B" format="1">
  <advance width="687"/>
  <unicode hex="040B"/>
  <outline>
    <contour>
      <point x="74" y="682" type="line"/>
      <point x="70" y="652" type="line"/>
      <point x="517" y="652" type="line"/>
      <point x="526" y="682" type="line"/>
    </contour>
    <component base="uni04BA" xOffset="103"/>
  </outline>
</glyph>
<glyph name="uni042A" format="1">
  <advance width="654"/>
  <unicode hex="042A"/>
  <outline>
    <contour>
      <point x="313" y="682" type="line"/>
      <point x="74" y="682" type="line"/>
      <point x="70" y="653" type="line"/>
      <point x="278" y="653" type="line"/>
    </contour>
    <component base="uni042C" xOffset="103"/>
  </outline>
</glyph>
<glyph name="uni042D" format="1">
  <advance width="529"/>
  <unicode hex="042D"/>
  <outline>
    <contour>
      <point x="212" y="692"/>
      <point x="148" y="670"/>
      <point x="87" y="627" type="curve"/>
      <point x="101" y="605" type="line"/>
      <point x="170" y="648"/>
      <point x="216" y="664"/>
      <point x="282" y="664" type="curve" smooth="yes"/>
      <point x="379" y="664"/>
      <point x="442" y="596"/>
      <point x="442" y="441" type="curve" smooth="yes"/>
      <point x="442" y="288"/>
      <point x="390" y="20"/>
      <point x="181" y="20" type="curve"/>
      <point x="109" y="20"/>
      <point x="70" y="45"/>
      <point x="28" y="83" type="curve"/>
      <point x="8" y="62" type="line"/>
      <point x="48" y="25"/>
      <point x="96" y="-10"/>
      <point x="181" y="-10" type="curve"/>
      <point x="411" y="-10"/>
      <point x="473" y="265"/>
      <point x="473" y="444" type="curve" smooth="yes"/>
      <point x="473" y="617"/>
      <point x="396" y="692"/>
      <point x="283" y="692" type="curve" smooth="yes"/>
    </contour>
    <contour>
      <point x="147" y="370" type="line"/>
      <point x="143" y="341" type="line"/>
      <point x="440" y="341" type="line"/>
      <point x="444" y="370" type="line"/>
    </contour>
    <contour>
      <point x="281" y="682" type="move" name="top"/>
    </contour>
    <contour>
      <point x="228" y="0" type="move" name="bottom"/>
    </contour>
  </outline>
</glyph>
<glyph name="uni0431" format="1">
  <advance width="565"/>
  <unicode hex="0431"/>
  <outline>
    <contour>
      <point x="234" y="496"/>
      <point x="153" y="421"/>
      <point x="110" y="346" type="curve"/>
      <point x="132" y="509"/>
      <point x="195" y="583"/>
      <point x="329" y="629" type="curve" smooth="yes"/>
      <point x="410" y="657"/>
      <point x="457" y="677"/>
      <point x="495" y="713" type="curve"/>
      <point x="479" y="735" type="line"/>
      <point x="433" y="696"/>
      <point x="397" y="679"/>
      <point x="318" y="653" type="curve" smooth="yes"/>
      <point x="93" y="579"/>
      <point x="77" y="401"/>
      <point x="77" y="227" type="curve" smooth="yes"/>
      <point x="77" y="70"/>
      <point x="149" y="-10"/>
      <point x="264" y="-10" type="curve" smooth="yes"/>
      <point x="442" y="-10"/>
      <point x="496" y="177"/>
      <point x="496" y="303" type="curve" smooth="yes"/>
      <point x="496" y="422"/>
      <point x="440" y="496"/>
      <point x="335" y="496" type="curve" smooth="yes"/>
    </contour>
    <contour>
      <point x="162" y="18"/>
      <point x="106" y="91"/>
      <point x="106" y="222" type="curve" smooth="yes"/>
      <point x="106" y="252"/>
      <point x="107" y="279"/>
      <point x="109" y="299" type="curve"/>
      <point x="153" y="388"/>
      <point x="237" y="468"/>
      <point x="334" y="468" type="curve" smooth="yes"/>
      <point x="419" y="468"/>
      <point x="465" y="410"/>
      <point x="465" y="303" type="curve" smooth="yes"/>
      <point x="465" y="191"/>
      <point x="422" y="18"/>
      <point x="265" y="18" type="curve" smooth="yes"/>
    </contour>
    <contour>
      <point x="350" y="734" type="move" name="top"/>
    </contour>
    <contour>
      <point x="246" y="0" type="move" name="bottom"/>
    </contour>
  </outline>
</glyph>
<glyph name="uni0432" format="1">
  <advance width="517"/>
  <unicode hex="0432"/>
  <outline>
    <contour>
      <point x="166" y="530"/>
      <point x="67" y="362"/>
      <point x="67" y="216" type="curve" smooth="yes"/>
      <point x="67" y="70"/>
      <point x="151" y="-10"/>
      <point x="272" y="-10" type="curve" smooth="yes"/>
      <point x="370" y="-10"/>
      <point x="459" y="48"/>
      <point x="459" y="160" type="curve" smooth="yes"/>
      <point x="459" y="227"/>
      <point x="414" y="271"/>
      <point x="355" y="289" type="curve"/>
      <point x="435" y="318"/>
      <point x="468" y="363"/>
      <point x="468" y="422" type="curve" smooth="yes"/>
      <point x="468" y="488"/>
      <point x="415" y="530"/>
      <point x="333" y="530" type="curve" smooth="yes"/>
    </contour>
    <contour>
      <point x="373" y="262"/>
      <point x="428" y="231"/>
      <point x="428" y="159" type="curve" smooth="yes"/>
      <point x="428" y="74"/>
      <point x="361" y="18"/>
      <point x="272" y="18" type="curve" smooth="yes"/>
      <point x="167" y="18"/>
      <point x="97" y="88"/>
      <point x="97" y="216" type="curve" smooth="yes"/>
      <point x="97" y="228"/>
      <point x="98" y="240"/>
      <point x="99" y="252" type="curve"/>
      <point x="194" y="255"/>
      <point x="267" y="264"/>
      <point x="323" y="279" type="curve"/>
    </contour>
    <contour>
      <point x="401" y="503"/>
      <point x="438" y="473"/>
      <point x="438" y="422" type="curve" smooth="yes"/>
      <point x="438" y="326"/>
      <point x="326" y="282"/>
      <point x="103" y="278" type="curve"/>
      <point x="126" y="395"/>
      <point x="209" y="503"/>
      <point x="333" y="503" type="curve" smooth="yes"/>
    </contour>
  </outline>
</glyph>
<glyph name="uni0434" format="1">
  <advance width="548"/>
  <unicode hex="0434"/>
  <outline>
    <contour>
      <point x="409" y="-10"/>
      <point x="484" y="205"/>
      <point x="484" y="404" type="curve" smooth="yes"/>
      <point x="484" y="605"/>
      <point x="457" y="711"/>
      <point x="217" y="739" type="curve"/>
      <point x="209" y="713" type="line"/>
      <point x="432" y="690"/>
      <point x="454" y="589"/>
      <point x="454" y="401" type="curve" smooth="yes"/>
      <point x="454" y="398"/>
      <point x="454" y="395"/>
      <point x="454" y="392" type="curve"/>
      <point x="415" y="461"/>
      <point x="360" y="496"/>
      <point x="291" y="496" type="curve" smooth="yes"/>
      <point x="127" y="496"/>
      <point x="65" y="331"/>
      <point x="65" y="187" type="curve" smooth="yes"/>
      <point x="65" y="73"/>
      <point x="123" y="-10"/>
      <point x="236" y="-10" type="curve" smooth="yes"/>
    </contour>
    <contour>
      <point x="145" y="18"/>
      <point x="96" y="86"/>
      <point x="96" y="187" type="curve" smooth="yes"/>
      <point x="96" y="321"/>
      <point x="148" y="468"/>
      <point x="292" y="468" type="curve" smooth="yes"/>
      <point x="354" y="468"/>
      <point x="410" y="429"/>
      <point x="451" y="351" type="curve"/>
      <point x="432" y="180"/>
      <point x="377" y="18"/>
      <point x="236" y="18" type="curve" smooth="yes"/>
    </contour>
    <contour>
      <point x="311" y="734" type="move" name="top"/>
    </contour>
  </outline>
</glyph>
<glyph name="uni043B" format="1">
  <advance width="561"/>
  <unicode hex="043B"/>
  <outline>
    <contour>
      <point x="187" y="520" type="line"/>
      <point x="137" y="291" type="line" smooth="yes"/>
      <point x="90" y="76"/>
      <point x="79" y="37"/>
      <point x="16" y="20" type="curve"/>
      <point x="21" y="-6" type="line"/>
      <point x="109" y="17"/>
      <point x="117" y="64"/>
      <point x="167" y="289" type="curve" smooth="yes"/>
      <point x="212" y="493" type="line"/>
      <point x="449" y="493" type="line"/>
      <point x="379" y="0" type="line"/>
      <point x="409" y="0" type="line"/>
      <point x="483" y="520" type="line"/>
    </contour>
    <contour>
      <point x="331" y="520" type="move" name="top"/>
    </contour>
    <contour>
      <point x="243" y="0" type="move" name="bottom"/>
    </contour>
    <contour>
      <point x="419" y="0" type="move" name="bottomright"/>
    </contour>
  </outline>
</glyph>
<glyph name="uni0444" format="1">
  <advance width="777"/>
  <unicode hex="0444"/>
  <outline>
    <contour>
      <point x="338" y="-193" type="line"/>
      <point x="375" y="69" type="line"/>
      <point x="408" y="21"/>
      <point x="444" y="-10"/>
      <point x="509" y="-10" type="curve" smooth="yes"/>
      <point x="671" y="-10"/>
      <point x="714" y="226"/>
      <point x="714" y="357" type="curve" smooth="yes"/>
      <point x="714" y="465"/>
      <point x="676" y="530"/>
      <point x="578" y="530" type="curve" smooth="yes"/>
      <point x="528" y="530"/>
      <point x="475" y="503"/>
      <point x="429" y="450" type="curve"/>
      <point x="469" y="734" type="line"/>
      <point x="439" y="738" type="line"/>
      <point x="398" y="446" type="line"/>
      <point x="372" y="500"/>
      <point x="333" y="530"/>
      <point x="271" y="530" type="curve" smooth="yes"/>
      <point x="113" y="530"/>
      <point x="65" y="319"/>
      <point x="65" y="180" type="curve" smooth="yes"/>
      <point x="65" y="64"/>
      <point x="108" y="-10"/>
      <point x="200" y="-10" type="curve" smooth="yes"/>
      <point x="257" y="-10"/>
      <point x="301" y="15"/>
      <point x="344" y="66" type="curve"/>
      <point x="307" y="-199" type="line"/>
    </contour>
    <contour>
      <point x="131" y="18"/>
      <point x="96" y="75"/>
      <point x="96" y="180" type="curve" smooth="yes"/>
      <point x="96" y="303"/>
      <point x="133" y="503"/>
      <point x="272" y="503" type="curve" smooth="yes"/>
      <point x="330" y="503"/>
      <point x="364" y="471"/>
      <point x="393" y="408" type="curve"/>
      <point x="351" y="108" type="line"/>
      <point x="306" y="50"/>
      <point x="259" y="18"/>
      <point x="204" y="18" type="curve" smooth="yes"/>
    </contour>
    <contour>
      <point x="452" y="18"/>
      <point x="414" y="49"/>
      <point x="380" y="106" type="curve"/>
      <point x="422" y="406" type="line"/>
      <point x="469" y="468"/>
      <point x="523" y="503"/>
      <point x="578" y="503" type="curve" smooth="yes"/>
      <point x="651" y="503"/>
      <point x="683" y="453"/>
      <point x="683" y="357" type="curve" smooth="yes"/>
      <point x="683" y="245"/>
      <point x="646" y="18"/>
      <point x="508" y="18" type="curve" smooth="yes"/>
    </contour>
    <contour>
      <point x="456" y="734" type="move" name="top"/>
    </contour>
  </outline>
</glyph>
<glyph name="uni0448" format="1">
  <advance width="849"/>
  <unicode hex="0448"/>
  <outline>
    <contour>
      <point x="569" y="-10"/>
      <point x="636" y="50"/>
      <point x="690" y="153" type="curve"/>
      <point x="672" y="0" type="line"/>
      <point x="697" y="0" type="line"/>
      <point x="771" y="520" type="line"/>
      <point x="741" y="520" type="line"/>
      <point x="697" y="210" type="line"/>
      <point x="637" y="96"/>
      <point x="573" y="16"/>
      <point x="496" y="16" type="curve" smooth="yes"/>
      <point x="438" y="16"/>
      <point x="409" y="60"/>
      <point x="422" y="153" type="curve" smooth="yes"/>
      <point x="474" y="520" type="line"/>
      <point x="444" y="520" type="line"/>
      <point x="392" y="151" type="line" smooth="yes"/>
      <point x="377" y="49"/>
      <point x="416" y="-10"/>
      <point x="494" y="-10" type="curve" smooth="yes"/>
    </contour>
    <contour>
      <point x="272" y="-10"/>
      <point x="342" y="51"/>
      <point x="396" y="154" type="curve"/>
      <point x="401" y="210" type="line"/>
      <point x="341" y="96"/>
      <point x="276" y="16"/>
      <point x="199" y="16" type="curve" smooth="yes"/>
      <point x="141" y="16"/>
      <point x="112" y="60"/>
      <point x="125" y="153" type="curve" smooth="yes"/>
      <point x="177" y="520" type="line"/>
      <point x="147" y="520" type="line"/>
      <point x="95" y="151" type="line" smooth="yes"/>
      <point x="80" y="49"/>
      <point x="119" y="-10"/>
      <point x="197" y="-10" type="curve" smooth="yes"/>
    </contour>
    <contour>
      <point x="459" y="520" type="move" name="top"/>
    </contour>
    <contour>
      <point x="388" y="0" type="move" name="bottom"/>
    </contour>
    <contour>
      <point x="707" y="0" type="move" name="bottomright"/>
    </contour>
  </outline>
</glyph>
<glyph name="uni044A" format="1">
  <advance width="571"/>
  <unicode hex="044A"/>
  <outline>
    <contour>
      <point x="262" y="520" type="line"/>
      <point x="47" y="520" type="line"/>
      <point x="43" y="492" type="line"/>
      <point x="228" y="492" type="line"/>
    </contour>
    <component base="uni044C" xOffset="79"/>
  </outline>
</glyph>
<glyph name="uni044C" format="1">
  <advance width="492"/>
  <unicode hex="044C"/>
  <outline>
    <contour>
      <point x="146" y="310" type="line"/>
      <point x="266" y="310" type="line" smooth="yes"/>
      <point x="371" y="310"/>
      <point x="411" y="265"/>
      <point x="411" y="197" type="curve" smooth="yes"/>
      <point x="411" y="115"/>
      <point x="369" y="18"/>
      <point x="225" y="18" type="curve" smooth="yes"/>
      <point x="190" y="18"/>
      <point x="151" y="25"/>
      <point x="114" y="37" type="curve"/>
      <point x="183" y="520" type="line"/>
      <point x="153" y="520" type="line"/>
      <point x="81" y="17" type="line"/>
      <point x="126" y="1"/>
      <point x="177" y="-10"/>
      <point x="225" y="-10" type="curve"/>
      <point x="387" y="-10"/>
      <point x="442" y="100"/>
      <point x="442" y="196" type="curve" smooth="yes"/>
      <point x="442" y="280"/>
      <point x="390" y="338"/>
      <point x="267" y="338" type="curve" smooth="yes"/>
      <point x="150" y="338" type="line"/>
    </contour>
    <contour>
      <point x="283" y="520" type="move" name="top"/>
    </contour>
    <contour>
      <point x="209" y="0" type="move" name="bottom"/>
    </contour>
  </outline>
</glyph>
<glyph name="uni044D" format="1">
  <advance width="464"/>
  <unicode hex="044D"/>
  <outline>
    <contour>
      <point x="331" y="-10"/>
      <point x="399" y="161"/>
      <point x="399" y="339" type="curve" smooth="yes"/>
      <point x="399" y="457"/>
      <point x="337" y="530"/>
      <point x="235" y="530" type="curve" smooth="yes"/>
      <point x="173" y="530"/>
      <point x="121" y="510"/>
      <point x="73" y="477" type="curve"/>
      <point x="88" y="456" type="line"/>
      <point x="132" y="484"/>
      <point x="177" y="503"/>
      <point x="235" y="503" type="curve" smooth="yes"/>
      <point x="318" y="503"/>
      <point x="368" y="442"/>
      <point x="368" y="336" type="curve" smooth="yes"/>
      <point x="368" y="318"/>
      <point x="367" y="297"/>
      <point x="365" y="276" type="curve"/>
      <point x="364" y="265" type="line"/>
      <point x="343" y="107"/>
      <point x="273" y="18"/>
      <point x="160" y="18" type="curve" smooth="yes"/>
      <point x="97" y="18"/>
      <point x="60" y="41"/>
      <point x="28" y="68" type="curve"/>
      <point x="10" y="48" type="line"/>
      <point x="47" y="16"/>
      <point x="89" y="-10"/>
      <point x="160" y="-10" type="curve" smooth="yes"/>
    </contour>
    <contour>
      <point x="369" y="256" type="line"/>
      <point x="372" y="283" type="line"/>
      <point x="116" y="283" type="line"/>
      <point x="112" y="256" type="line"/>
    </contour>
    <contour>
      <point x="248" y="520" type="move" name="top"/>
    </contour>
    <contour>
      <point x="193" y="0" type="move" name="bottom"/>
    </contour>
  </outline>
</glyph>
<glyph name="uni044E" format="1">
  <advance width="747"/>
  <unicode hex="044E"/>
  <outline>
    <contour>
      <point x="286" y="285" type="line"/>
      <point x="149" y="285" type="line"/>
      <point x="182" y="520" type="line"/>
      <point x="152" y="520" type="line"/>
      <point x="78" y="0" type="line"/>
      <point x="108" y="0" type="line"/>
      <point x="145" y="257" type="line"/>
      <point x="281" y="257" type="line"/>
    </contour>
    <contour>
      <point x="622" y="-10"/>
      <point x="682" y="196"/>
      <point x="682" y="327" type="curve" smooth="yes"/>
      <point x="682" y="459"/>
      <point x="615" y="530"/>
      <point x="514" y="530" type="curve" smooth="yes"/>
      <point x="334" y="530"/>
      <point x="271" y="331"/>
      <point x="271" y="197" type="curve" smooth="yes"/>
      <point x="271" y="66"/>
      <point x="337" y="-10"/>
      <point x="441" y="-10" type="curve" smooth="yes"/>
    </contour>
    <contour>
      <point x="356" y="18"/>
      <point x="302" y="81"/>
      <point x="302" y="196" type="curve" smooth="yes"/>
      <point x="302" y="312"/>
      <point x="353" y="503"/>
      <point x="514" y="503" type="curve" smooth="yes"/>
      <point x="598" y="503"/>
      <point x="651" y="441"/>
      <point x="651" y="326" type="curve" smooth="yes"/>
      <point x="651" y="204"/>
      <point x="597" y="18"/>
      <point x="441" y="18" type="curve" smooth="yes"/>
    </contour>
    <contour>
      <point x="410" y="520" type="move" name="top"/>
    </contour>
    <contour>
      <point x="336" y="0" type="move" name="bottom"/>
    </contour>
  </outline>
</glyph>
<glyph name="uni0452" format="1">
  <advance width="587"/>
  <unicode hex="0452"/>
  <outline>
    <contour>
      <point x="101" y="652" type="line"/>
      <point x="97" y="625" type="line"/>
      <point x="172" y="625" type="line"/>
      <point x="378" y="625" type="line"/>
      <point x="388" y="652" type="line"/>
    </contour>
    <contour>
      <point x="382" y="-156"/>
      <point x="422" y="-125"/>
      <point x="441" y="7" type="curve" smooth="yes"/>
      <point x="472" y="228" type="line"/>
      <point x="442" y="228" type="line"/>
      <point x="412" y="10" type="line" smooth="yes"/>
      <point x="396" y="-107"/>
      <point x="361" y="-137"/>
      <point x="287" y="-173" type="curve"/>
      <point x="296" y="-196" type="line"/>
    </contour>
    <contour>
      <point x="295" y="530"/>
      <point x="218" y="471"/>
      <point x="165" y="368" type="curve"/>
      <point x="217" y="739" type="line"/>
      <point x="187" y="734" type="line"/>
      <point x="83" y="0" type="line"/>
      <point x="113" y="0" type="line"/>
      <point x="157" y="310" type="line"/>
      <point x="217" y="424"/>
      <point x="286" y="504"/>
      <point x="372" y="504" type="curve" smooth="yes"/>
      <point x="445" y="504"/>
      <point x="475" y="460"/>
      <point x="462" y="367" type="curve" smooth="yes"/>
      <point x="442" y="228" type="line"/>
      <point x="472" y="228" type="line"/>
      <point x="492" y="369" type="line" smooth="yes"/>
      <point x="506" y="471"/>
      <point x="467" y="530"/>
      <point x="375" y="530" type="curve" smooth="yes"/>
    </contour>
    <contour>
      <point x="301" y="260" type="move" name="center"/>
    </contour>
    <contour>
      <point x="257" y="0" type="move" name="bottom"/>
    </contour>
    <contour>
      <point x="360" y="734" type="move" name="top"/>
    </contour>
  </outline>
</glyph>
<glyph name="uni0454" format="1">
  <advance width="468"/>
  <unicode hex="0454"/>
  <outline>
    <contour>
      <point x="89" y="255" type="line"/>
      <point x="362" y="255" type="line"/>
      <point x="366" y="282" type="line"/>
      <point x="93" y="282" type="line"/>
    </contour>
    <contour>
      <point x="133" y="530"/>
      <point x="66" y="332"/>
      <point x="66" y="198" type="curve" smooth="yes"/>
      <point x="66" y="63"/>
      <point x="139" y="-10"/>
      <point x="247" y="-10" type="curve" smooth="yes"/>
      <point x="306" y="-10"/>
      <point x="356" y="10"/>
      <point x="398" y="43" type="curve"/>
      <point x="382" y="65" type="line"/>
      <point x="344" y="37"/>
      <point x="301" y="18"/>
      <point x="248" y="18" type="curve" smooth="yes"/>
      <point x="156" y="18"/>
      <point x="97" y="77"/>
      <point x="97" y="198" type="curve" smooth="yes"/>
      <point x="97" y="319"/>
      <point x="154" y="503"/>
      <point x="319" y="503" type="curve" smooth="yes"/>
      <point x="370" y="503"/>
      <point x="405" y="486"/>
      <point x="433" y="460" type="curve"/>
      <point x="452" y="480" type="line"/>
      <point x="417" y="514"/>
      <point x="375" y="530"/>
      <point x="320" y="530" type="curve" smooth="yes"/>
    </contour>
    <contour>
      <point x="273" y="520" type="move" name="top"/>
    </contour>
    <contour>
      <point x="199" y="0" type="move" name="bottom"/>
    </contour>
  </outline>
</glyph>
<glyph name="uni0459" format="1">
  <advance width="767"/>
  <unicode hex="0459"/>
  <outline>
    <contour>
      <point x="109" y="17"/>
      <point x="117" y="64"/>
      <point x="167" y="289" type="curve" smooth="yes"/>
      <point x="212" y="493" type="line"/>
      <point x="437" y="493" type="line"/>
      <point x="468" y="520" type="line"/>
      <point x="187" y="520" type="line"/>
      <point x="137" y="291" type="line" smooth="yes"/>
      <point x="90" y="76"/>
      <point x="79" y="37"/>
      <point x="16" y="20" type="curve"/>
      <point x="21" y="-6" type="line"/>
    </contour>
    <contour>
      <point x="662" y="-10"/>
      <point x="717" y="100"/>
      <point x="717" y="196" type="curve" smooth="yes"/>
      <point x="717" y="279"/>
      <point x="665" y="338"/>
      <point x="547" y="338" type="curve" smooth="yes"/>
      <point x="435" y="338" type="line"/>
      <point x="431" y="310" type="line"/>
      <point x="546" y="310" type="line" smooth="yes"/>
      <point x="649" y="310"/>
      <point x="686" y="263"/>
      <point x="686" y="197" type="curve" smooth="yes"/>
      <point x="686" y="116"/>
      <point x="644" y="18"/>
      <point x="504" y="18" type="curve" smooth="yes"/>
      <point x="473" y="18"/>
      <point x="437" y="25"/>
      <point x="399" y="37" type="curve"/>
      <point x="468" y="520" type="line"/>
      <point x="438" y="520" type="line"/>
      <point x="366" y="17" type="line"/>
      <point x="413" y="1"/>
      <point x="460" y="-10"/>
      <point x="505" y="-10" type="curve"/>
    </contour>
    <contour>
      <point x="420" y="520" type="move" name="top"/>
    </contour>
    <contour>
      <point x="346" y="0" type="move" name="bottom"/>
    </contour>
  </outline>
</glyph>
<glyph name="uni045F" format="1">
  <advance width="577"/>
  <unicode hex="045F"/>
  <outline>
    <contour>
      <point x="187" y="-141" type="line"/>
      <point x="210" y="-141" type="line"/>
      <point x="231" y="8" type="line"/>
      <point x="199" y="13" type="line"/>
    </contour>
    <component base="u"/>
  </outline>
</glyph>
<glyph name="uni0463" format="1">
  <advance width="495"/>
  <unicode hex="0463"/>
  <outline>
    <contour>
      <point x="321" y="479" type="line"/>
      <point x="331" y="506" type="line"/>
      <point x="156" y="506" type="line"/>
      <point x="81" y="506" type="line"/>
      <point x="77" y="479" type="line"/>
    </contour>
    <contour>
      <point x="149" y="310" type="line"/>
      <point x="269" y="310" type="line" smooth="yes"/>
      <point x="374" y="310"/>
      <point x="414" y="263"/>
      <point x="414" y="197" type="curve" smooth="yes"/>
      <point x="414" y="116"/>
      <point x="372" y="18"/>
      <point x="227" y="18" type="curve" smooth="yes"/>
      <point x="193" y="18"/>
      <point x="155" y="25"/>
      <point x="117" y="37" type="curve"/>
      <point x="202" y="633" type="line"/>
      <point x="173" y="628" type="line"/>
      <point x="84" y="17" type="line"/>
      <point x="131" y="1"/>
      <point x="180" y="-10"/>
      <point x="228" y="-10" type="curve"/>
      <point x="390" y="-10"/>
      <point x="445" y="100"/>
      <point x="445" y="196" type="curve" smooth="yes"/>
      <point x="445" y="279"/>
      <point x="393" y="338"/>
      <point x="270" y="338" type="curve" smooth="yes"/>
      <point x="153" y="338" type="line"/>
    </contour>
    <contour>
      <point x="190" y="649" type="move" name="top"/>
    </contour>
    <contour>
      <point x="210" y="0" type="move" name="bottom"/>
    </contour>
  </outline>
</glyph>
<glyph name="uni048C" format="1">
  <advance width="561"/>
  <unicode hex="048C"/>
  <outline>
    <contour>
      <point x="189" y="682" type="line"/>
      <point x="93" y="0" type="line"/>
      <point x="250" y="0" type="line" smooth="yes"/>
      <point x="447" y="0"/>
      <point x="512" y="129"/>
      <point x="512" y="240" type="curve" smooth="yes"/>
      <point x="512" y="358"/>
      <point x="436" y="412"/>
      <point x="306" y="412" type="curve" smooth="yes"/>
      <point x="175" y="412" type="line"/>
      <point x="171" y="383" type="line"/>
      <point x="307" y="383" type="line" smooth="yes"/>
      <point x="417" y="383"/>
      <point x="480" y="341"/>
      <point x="480" y="239" type="curve" smooth="yes"/>
      <point x="480" y="156"/>
      <point x="433" y="29"/>
      <point x="261" y="29" type="curve" smooth="yes"/>
      <point x="129" y="29" type="line"/>
      <point x="220" y="682" type="line"/>
    </contour>
    <contour>
      <point x="370" y="543" type="line"/>
      <point x="374" y="572" type="line"/>
      <point x="173" y="572" type="line"/>
      <point x="79" y="572" type="line"/>
      <point x="75" y="543" type="line"/>
    </contour>
    <contour>
      <point x="205" y="682" type="move" name="top"/>
    </contour>
    <contour>
      <point x="250" y="0" type="move" name="bottom"/>
    </contour>
  </outline>
</glyph>
<glyph name="uni0493" format="1">
  <advance width="473"/>
  <unicode hex="0493"/>
  <outline>
    <contour>
      <point x="292" y="-10"/>
      <point x="352" y="19"/>
      <point x="402" y="56" type="curve"/>
      <point x="385" y="76" type="line"/>
      <point x="333" y="39"/>
      <point x="283" y="18"/>
      <point x="209" y="18" type="curve" smooth="yes"/>
      <point x="140" y="18"/>
      <point x="83" y="50"/>
      <point x="83" y="118" type="curve" smooth="yes"/>
      <point x="83" y="183"/>
      <point x="117" y="221"/>
      <point x="232" y="256" type="curve"/>
      <point x="242" y="260" type="line"/>
      <point x="390" y="302"/>
      <point x="418" y="353"/>
      <point x="418" y="414" type="curve" smooth="yes"/>
      <point x="418" y="482"/>
      <point x="358" y="530"/>
      <point x="278" y="530" type="curve" smooth="yes"/>
      <point x="222" y="530"/>
      <point x="169" y="512"/>
      <point x="114" y="473" type="curve"/>
      <point x="130" y="452" type="line"/>
      <point x="180" y="486"/>
      <point x="223" y="503"/>
      <point x="277" y="503" type="curve" smooth="yes"/>
      <point x="341" y="503"/>
      <point x="388" y="468"/>
      <point x="388" y="414" type="curve" smooth="yes"/>
      <point x="388" y="344"/>
      <point x="354" y="321"/>
      <point x="207" y="273" type="curve"/>
      <point x="195" y="270" type="line"/>
      <point x="87" y="234"/>
      <point x="52" y="186"/>
      <point x="52" y="118" type="curve" smooth="yes"/>
      <point x="52" y="36"/>
      <point x="117" y="-10"/>
      <point x="209" y="-10" type="curve" smooth="yes"/>
    </contour>
    <contour>
      <point x="393" y="227" type="line"/>
      <point x="244" y="270" type="line"/>
      <point x="219" y="275" type="line"/>
      <point x="73" y="323" type="line"/>
      <point x="64" y="300" type="line"/>
      <point x="186" y="260" type="line"/>
      <point x="211" y="255" type="line"/>
      <point x="384" y="204" type="line"/>
    </contour>
  </outline>
</glyph>
<glyph name="uni049C" format="1">
  <advance width="547"/>
  <unicode hex="049C"/>
  <outline>
    <contour>
      <point x="114" y="0" type="line"/>
      <point x="163" y="346" type="line"/>
      <point x="287" y="346" type="line"/>
      <point x="458" y="0" type="line"/>
      <point x="490" y="0" type="line"/>
      <point x="312" y="362" type="line"/>
      <point x="461" y="575" type="line" smooth="yes"/>
      <point x="513" y="649"/>
      <point x="528" y="657"/>
      <point x="566" y="669" type="curve"/>
      <point x="557" y="692" type="line"/>
      <point x="513" y="677"/>
      <point x="494" y="668"/>
      <point x="441" y="593" type="curve" smooth="yes"/>
      <point x="287" y="374" type="line"/>
      <point x="167" y="374" type="line"/>
      <point x="210" y="682" type="line"/>
      <point x="179" y="682" type="line"/>
      <point x="83" y="0" type="line"/>
    </contour>
    <contour>
      <point x="223" y="159" type="line"/>
      <point x="279" y="561" type="line"/>
      <point x="251" y="561" type="line"/>
      <point x="195" y="159" type="line"/>
    </contour>
    <contour>
      <point x="330" y="682" type="move" name="top"/>
    </contour>
    <contour>
      <point x="234" y="0" type="move" name="bottom"/>
    </contour>
  </outline>
</glyph>
<glyph name="uni049E" format="1">
  <advance width="548"/>
  <unicode hex="049E"/>
  <outline>
    <contour>
      <point x="172" y="586" type="line"/>
      <point x="81" y="586" type="line"/>
      <point x="77" y="558" type="line"/>
      <point x="322" y="558" type="line"/>
      <point x="326" y="586" type="line"/>
    </contour>
    <component base="uni041A" xOffset="6"/>
  </outline>
</glyph>
<glyph name="uni049F" format="1">
  <advance width="515"/>
  <unicode hex="049F"/>
  <outline>
    <contour>
      <point x="114" y="0" type="line"/>
      <point x="152" y="264" type="line"/>
      <point x="243" y="264" type="line"/>
      <point x="393" y="0" type="line"/>
      <point x="428" y="0" type="line"/>
      <point x="269" y="276" type="line"/>
      <point x="336" y="372" type="line" smooth="yes"/>
      <point x="395" y="456"/>
      <point x="414" y="488"/>
      <point x="465" y="505" type="curve"/>
      <point x="455" y="530" type="line"/>
      <point x="400" y="513"/>
      <point x="376" y="476"/>
      <point x="316" y="390" type="curve" smooth="yes"/>
      <point x="246" y="290" type="line"/>
      <point x="155" y="290" type="line"/>
      <point x="218" y="739" type="line"/>
      <point x="188" y="734" type="line"/>
      <point x="84" y="0" type="line"/>
    </contour>
    <contour>
      <point x="167" y="585" type="line"/>
      <point x="373" y="585" type="line"/>
      <point x="383" y="612" type="line"/>
      <point x="96" y="612" type="line"/>
      <point x="92" y="585" type="line"/>
    </contour>
  </outline>
</glyph>
<glyph name="uni04A0" format="1">
  <advance width="645"/>
  <unicode hex="04A0"/>
  <outline>
    <contour>
      <point x="313" y="682" type="line"/>
      <point x="74" y="682" type="line"/>
      <point x="70" y="653" type="line"/>
      <point x="278" y="653" type="line"/>
    </contour>
    <component base="uni041A" xOffset="103"/>
  </outline>
</glyph>
<glyph name="uni04A1" format="1">
  <advance width="555"/>
  <unicode hex="04A1"/>
  <outline>
    <contour>
      <point x="230" y="520" type="line"/>
      <point x="47" y="520" type="line"/>
      <point x="43" y="492" type="line"/>
      <point x="196" y="492" type="line"/>
    </contour>
    <component base="uni043A" xOffset="48"/>
  </outline>
</glyph>
<glyph name="uni04A9" format="1">
  <advance width="583"/>
  <unicode hex="04A9"/>
  <outline>
    <contour>
      <point x="249" y="18" type="line"/>
      <point x="158" y="18"/>
      <point x="97" y="78"/>
      <point x="97" y="197" type="curve" smooth="yes"/>
      <point x="97" y="347"/>
      <point x="171" y="503"/>
      <point x="320" y="503" type="curve" smooth="yes"/>
      <point x="370" y="503"/>
      <point x="405" y="488"/>
      <point x="433" y="460" type="curve"/>
      <point x="452" y="479" type="line"/>
      <point x="415" y="514"/>
      <point x="377" y="530"/>
      <point x="320" y="530" type="curve" smooth="yes"/>
      <point x="155" y="530"/>
      <point x="66" y="366"/>
      <point x="66" y="198" type="curve" smooth="yes"/>
      <point x="66" y="65"/>
      <point x="136" y="-10"/>
      <point x="249" y="-10" type="curve"/>
    </contour>
    <contour>
      <point x="402" y="-79" type="line"/>
      <point x="322" y="24"/>
      <point x="261" y="78"/>
      <point x="261" y="178" type="curve" smooth="yes"/>
      <point x="261" y="262"/>
      <point x="311" y="330"/>
      <point x="387" y="330" type="curve" smooth="yes"/>
      <point x="445" y="330"/>
      <point x="477" y="295"/>
      <point x="477" y="241" type="curve" smooth="yes"/>
      <point x="477" y="124"/>
      <point x="373" y="18"/>
      <point x="249" y="18" type="curve"/>
      <point x="249" y="-10" type="line"/>
      <point x="396" y="-10"/>
      <point x="508" y="117"/>
      <point x="508" y="240" type="curve" smooth="yes"/>
      <point x="508" y="313"/>
      <point x="461" y="358"/>
      <point x="389" y="358" type="curve" smooth="yes"/>
      <point x="294" y="358"/>
      <point x="230" y="277"/>
      <point x="230" y="179" type="curve" smooth="yes"/>
      <point x="230" y="73"/>
      <point x="297" y="11"/>
      <point x="381" y="-95" type="curve"/>
    </contour>
    <contour>
      <point x="329" y="520" type="move" name="top"/>
    </contour>
  </outline>
</glyph>
<glyph name="uni04B0" format="1">
  <advance width="500"/>
  <unicode hex="04B0"/>
  <outline>
    <contour>
      <point x="241" y="288" type="line"/>
      <point x="119" y="288" type="line"/>
      <point x="115" y="259" type="line"/>
      <point x="268" y="259" type="line"/>
      <point x="390" y="259" type="line"/>
      <point x="394" y="288" type="line"/>
    </contour>
    <component base="Y"/>
  </outline>
</glyph>
<glyph name="uni04B1" format="1">
  <advance width="452"/>
  <unicode hex="04B1"/>
  <outline>
    <contour>
      <point x="316" y="5" type="line"/>
      <point x="320" y="32" type="line"/>
      <point x="217" y="32" type="line"/>
      <point x="79" y="32" type="line"/>
      <point x="75" y="5" type="line"/>
      <point x="180" y="5" type="line"/>
    </contour>
    <component base="uni04AF"/>
  </outline>
</glyph>
<glyph name="uni04B5" format="1">
  <advance width="622"/>
  <unicode hex="04B5"/>
  <outline>
    <contour>
      <point x="29" y="520" type="line"/>
      <point x="25" y="492" type="line"/>
      <point x="188" y="492" type="line"/>
      <point x="218" y="492" type="line"/>
      <point x="396" y="492" type="line"/>
      <point x="405" y="520" type="line"/>
    </contour>
    <contour>
      <point x="350" y="-10"/>
      <point x="424" y="64"/>
      <point x="467" y="163" type="curve"/>
      <point x="447" y="0" type="line"/>
      <point x="470" y="0" type="line"/>
      <point x="544" y="520" type="line"/>
      <point x="514" y="520" type="line"/>
      <point x="472" y="218" type="line"/>
      <point x="421" y="102"/>
      <point x="349" y="18"/>
      <point x="260" y="18" type="curve" smooth="yes"/>
      <point x="193" y="18"/>
      <point x="157" y="59"/>
      <point x="170" y="150" type="curve" smooth="yes"/>
      <point x="222" y="520" type="line"/>
      <point x="192" y="520" type="line"/>
      <point x="140" y="150" type="line" smooth="yes"/>
      <point x="126" y="48"/>
      <point x="171" y="-10"/>
      <point x="257" y="-10" type="curve" smooth="yes"/>
    </contour>
    <component base="descStraightcy" xOffset="473"/>
    <contour>
      <point x="480" y="0" type="move" name="ogonek"/>
    </contour>
    <contour>
      <point x="348" y="520" type="move" name="top"/>
    </contour>
    <contour>
      <point x="554" y="520" type="move" name="topright"/>
    </contour>
    <contour>
      <point x="480" y="0" type="move" name="bottomright"/>
    </contour>
    <contour>
      <point x="296" y="0" type="move" name="bottom"/>
    </contour>
  </outline>
</glyph>
<glyph name="uni04B9" format="1">
  <advance width="531"/>
  <unicode hex="04B9"/>
  <outline>
    <contour>
      <point x="233" y="375" type="line"/>
      <point x="194" y="96" type="line"/>
      <point x="222" y="96" type="line"/>
      <point x="261" y="375" type="line"/>
    </contour>
    <contour>
      <point x="423" y="520" type="line"/>
      <point x="394" y="313" type="line"/>
      <point x="344" y="246"/>
      <point x="278" y="211"/>
      <point x="209" y="211" type="curve" smooth="yes"/>
      <point x="132" y="211"/>
      <point x="93" y="247"/>
      <point x="105" y="333" type="curve" smooth="yes"/>
      <point x="132" y="520" type="line"/>
      <point x="102" y="520" type="line"/>
      <point x="75" y="331" type="line" smooth="yes"/>
      <point x="60" y="227"/>
      <point x="124" y="183"/>
      <point x="206" y="183" type="curve" smooth="yes"/>
      <point x="275" y="183"/>
      <point x="338" y="213"/>
      <point x="388" y="272" type="curve"/>
      <point x="349" y="0" type="line"/>
      <point x="379" y="0" type="line"/>
      <point x="453" y="520" type="line"/>
    </contour>
    <contour>
      <point x="278" y="520" type="move" name="top"/>
    </contour>
    <contour>
      <point x="338" y="0" type="move" name="bottomleft"/>
    </contour>
    <contour>
      <point x="389" y="0" type="move" name="bottomright"/>
    </contour>
    <contour>
      <point x="229" y="0" type="move" name="bottom"/>
    </contour>
  </outline>
</glyph>
<glyph name="uni04BD" format="1">
  <advance width="569"/>
  <unicode hex="04BD"/>
  <outline>
    <contour>
      <point x="125" y="239" type="line" smooth="yes"/>
      <point x="73" y="239"/>
      <point x="51" y="264"/>
      <point x="51" y="301" type="curve" smooth="yes"/>
      <point x="51" y="342"/>
      <point x="77" y="375"/>
      <point x="86" y="388" type="curve"/>
      <point x="65" y="402" type="line"/>
      <point x="47" y="378"/>
      <point x="22" y="345"/>
      <point x="22" y="299" type="curve" smooth="yes"/>
      <point x="22" y="249"/>
      <point x="54" y="214"/>
      <point x="128" y="214" type="curve" smooth="yes"/>
      <point x="161" y="214" type="line"/>
      <point x="164" y="239" type="line"/>
    </contour>
    <component base="e" xOffset="59"/>
  </outline>
</glyph>
